<svg xmlns="http://www.w3.org/2000/svg" viewBox="19.99999999999997 178.6333425153657 535.0000977528362 217.73331496926858"><rect height="100%" width="100%" x="19.99999999999997" y="178.6333425153657" fill="rgba(64, 64, 64, 1)"/> <g transform="rotate(0 129.08171310703028 287.5)"><svg xmlns="http://www.w3.org/2000/svg" xmlns:xlink="http://www.w3.org/1999/xlink" version="1.1" x="89.99999999999997" y="248.6333425153657" viewBox="62.860836029052734 62.965152740478516 366.13922119140625 364.13482666015625" xml:space="preserve" height="77.73331496926858" width="78.16342621406062" preserveAspectRatio="xMinYMin" enable-background="new 0 0 500 500" style="overflow: visible;"><path class="st0" d="M262.3,63.7l-8-0.5c4.8,0.4,8.2,0.7,10.9,0.9C264.3,63.9,263.3,63.8,262.3,63.7z" style="fill: #196917; fill-opacity: 1;"></path><path class="st0" d="M283.4,66.8L283.4,66.8c-0.4-0.1-0.7-0.1-1.1-0.2c-7.8-1.5-10.9-2-17-2.6c6,0.8,13.1,1.9,18.6,2.9    C283.8,66.9,283.6,66.9,283.4,66.8z" style="fill: #196917; fill-opacity: 1;"></path><path class="st0" d="M418,184.2l-0.6-1.8c-0.1-0.2-0.2-0.4-0.2-0.6c0,0,0,0.1,0,0.1C417.5,182.6,417.7,183.4,418,184.2z" style="fill: #196917; fill-opacity: 1;"></path><path class="st0" d="M368.6,110.1l-0.6-0.5c-0.3-0.3-0.7-0.6-1.1-0.9C367.5,109.2,368,109.6,368.6,110.1    C368.5,110.1,368.6,110.1,368.6,110.1z" style="fill: #196917; fill-opacity: 1;"></path><path class="st0" d="M359.8,106c0.3-1-3.7-4.6-6.2-6.6c-5-4-11.4-8-13.7-8.6c-0.1,0-0.3,0-0.4,0.1    C339.7,92.2,357.8,106.9,359.8,106z" style="fill: #196917; fill-opacity: 1;"></path><path class="st0" d="M312.8,78.1c-0.1-0.7-2.9-2.2-6-3.5c0,0,0,0,0,0c2.9,0.2,5.2,0.7,7,1.4l-5.6-2.1c-1.7-0.6-3.8-1-6.3-1.2    c0.1,0,0.2,0.1,0.3,0.1c-5-1.8-9.9-3.1-11.7-3.2c-0.1,0-0.2,0-0.3,0c0,0,0,0.1,0,0.1C291.1,70.7,311.9,79.2,312.8,78.1z     M306.3,74.4c0.1,0,0.1,0.1,0.2,0.1c0,0,0,0,0,0C306.5,74.5,306.4,74.4,306.3,74.4z" style="fill: #196917; fill-opacity: 1;"></path><path class="st0" d="M162.9,88.4c0.6,1.8,5.1-0.8,7.1-4.5c4.4-1.8,9-3.6,13.6-5.4c0.5-0.2,0.7-0.6,0.6-0.9c0,0-1.1-3-1.4-3.5    l-0.8,0.3c-0.1,0.9-0.1,0.9,0.4,3.3c-4,1.5-8,3.1-11.8,4.7c0,0,0,0,0,0c0.2-0.8,0.2-1.6-0.9-1.3c0,0,0,0,0.1,0    c1.4-1.6,2.9-2.8,4.7-3.6l-0.8,0.4c-1.9,0.8-3.6,2.1-5.1,3.8c0,0,0,0,0,0c-1.6,0.9-3.6,2.5-4.7,4c0.1-0.2,0.2-0.3,0.4-0.5    c-11.1,5-23.6,11-32.8,18.1l-5.4,4.5c3.3-2.7,12-9.8,36.9-20.8C162.8,87.5,162.7,88,162.9,88.4z" style="fill: #196917; fill-opacity: 1;"></path><polygon class="st0" points="406,239.9 406,239.9 406,239.9   " style="fill: #196917; fill-opacity: 1;"></polygon><path class="st0" d="M155.2,352.9c-0.1-0.1-0.1-0.2-0.2-0.3c-11.9,7.6-20.7,14.7-25.2,20.7c-4.2,5.5-4.4,9.6-1.1,12.3l4.6,3.7    c-3.4-2.6-3.3-6.7,0.9-12.3c4.4-5.9,13-12.8,24.7-20.3C158.3,356.3,156.8,354.9,155.2,352.9z" style="fill: #196917; fill-opacity: 1;"></path><path class="st0" d="M379.2,226c-3.6,0.9-5.2,5.9-5.1,11.3c-7.2,1.2-15.1,2.8-23.5,4.7c-9.9-10.8-25.1-25.7-27.3-25.4    c-9.2,2.4-18.8,5.2-28.8,8.3c0.1,0.2,0.1,0.3,0.2,0.5c-2.4-5.1-7.3-9-13.1-7.5c-9.8,3.9-7.6,19.8,1.3,24.8    c7.7,4.4,14.8-2.5,13.5-12c9.7-3,19-5.6,27.8-8c5.1,4.5,11.9,10.4,16.5,15.4c9.3,10,9.3,10,10.2,10c8.6-2,16.6-3.6,23.9-5.2    c0.7,3.4,2,6.6,3.9,8.3c4.2,4,8.8-2.1,8.5-11.4C386.8,233,383.7,225.8,379.2,226z" style="fill: #196917; fill-opacity: 1;"></path><path class="st0" d="M405.2,207.6c2.8,1.6,4.1-3.3,2.8-10.2c0,0.2,0.1,0.3,0.1,0.5c9.6,0.8,15.2,3.4,16.2,7.8l-1.5-6l-0.1-0.3    l-2.2-7.7l-1-3c1.1,3.3,2.1,6.6,2.9,10c-1.7-3.7-7.2-5.9-15.8-6.6c0.1,0.2,0.1,0.3,0.2,0.5c-1.8-5.4-4.7-10.5-7.3-10.9    c-0.1,0-0.3,0-0.4,0.1C394.5,183,399.6,204.6,405.2,207.6z" style="fill: #196917; fill-opacity: 1;"></path><path class="st0" d="M420.3,299.7c-0.1,0.5-0.2,1.1-0.4,1.7l1.7-5.7c0.2-0.7,0.3-1.3,0.3-1.9l0,0c-0.3,0.5-1.5,4.8-1.6,5.5    C420.3,299.4,420.3,299.5,420.3,299.7z" style="fill: #196917; fill-opacity: 1;"></path><path class="st0" d="M428.7,243.5L428.7,243.5L428.7,243.5c0-0.1,0-0.3,0-0.5c-0.1-6.1-8.3-9.1-22.8-9c0,0.4,0.1,0.7,0.1,1    c-0.4-6.1-2.6-12.2-5.9-12.4c-1.2,0.2-2.1,1.2-2.8,2.6c-12-20.7-18.7-30-40.1-51.2c-0.5-0.4-0.6-0.5-1.1-0.6    c-4.2,0.7-8.3,1.5-12.5,2.3c-3.2-8.3-6.8-16.1-10.6-23.6c23.7-4.9,42.5-6.9,54.8-5.8c0.1,0,0.2-0.1,0.2-0.2c0-0.2,0-0.4,0-0.5    c-5.4-20.7-14.4-29.9-22.3-38c0,0-0.1-0.1-0.1-0.1c0.4,0.4,0.9,0.7,1.3,1.1c-4.7-4-12.5-10.3-17.7-13.8c3.9,2.9,8.7,6.6,13.1,10.1    c12,12.1,16.5,18.5,22.2,36.4c-12.2-1-30.7,1-54.1,5.8c-2.6-4.9-5.4-9.6-8.4-14.2c-0.1-0.2-0.2-0.3-0.4-0.4c0,0,0.1,0.1,0.1,0.1    c2.9-1.8,2.4-5.5,0.5-9c0,0.1,0.1,0.1,0.1,0.2c7.2-1.4,13.9-2.5,20-3.2c0.4-0.1,0.5-0.2,0.4-0.7c-2.1-10.3-2.9-12.1-6.9-20.8    c5-0.3,9.3-0.2,12.9,0.2c-1.6-1.2-2.9-2.2-4.3-3.4c-3.7-0.4-8.1-0.4-13.1-0.1c-0.1,0-0.1,0.1-0.2,0.1c0,0.1,0,0.3,0.1,0.4    c4.3,8.3,4.8,10.3,7.1,20.2c-5.9,0.8-12.3,1.8-19.2,3.1c0.1,0.1,0.2,0.3,0.3,0.4c-3.4-3.7-8.4-6.7-12.7-6.1    c-0.5,0.2-1.2,0.4-1.8,0.8c-4.5,3.9,3.6,16.8,13.3,18.3c-0.1-0.3-0.2-0.6-0.2-1c0-0.4,0.3-0.8,0.7-0.9c-0.4,0.2-1.2,0.7-0.2,2.6    c2.8,4.5,5.5,9.2,8.1,14.1c-4.2,0.9-8.5,1.9-12.9,2.9c0.1,0.2,0.2,0.3,0.3,0.5c-2.9-4.4-8-8-13-7c-0.4,0.1-0.8,0.3-1.2,0.4    c-1.1,0.6-2,1.4-2.5,2.4c-15.1-8.7-17.5-10-32.8-17.6c-0.8-0.3-1-0.3-1.7-0.2c-3.3,1-6.7,2-10.1,3.1c-5.5,1.7-11.1,3.5-16.6,5.3    c0.2,0.3,0.4,0.5,0.6,0.8c-2.8-4.1-7.9-6.2-12.3-4.8c0.6-0.2,1.3-0.3,2-0.4c-1.9-4.1-3.7-7.9-5.5-11.6c7.1-2.4,14.3-4.8,21.5-7    c15.8-4.9,30.4-8.9,43.6-11.9c0.2-0.1,0.4-0.3,0.5-0.4c-0.7-10.4-0.7-10.6-2.4-15.9c24-4.7,41-5.3,47.9-1.6l-5.3-2.7    c-7-3.4-23.5-2.8-46.8,1.8c-0.1,0.1-0.3,0.3-0.4,0.4c2.2,8.3,2.3,8.8,2.6,15.1c-12.7,3-26.8,6.8-42,11.5c-7,2.2-14.1,4.5-21,6.9    c-3.7-7.6-7.3-14.3-10.7-20c-0.1,0-0.1,0.1-0.2,0.1c2.6-1.4,3.9-4.4,2.2-7.2c-1.3-2.3-5.3-5-9.9-3.6c-0.3,0.1-0.8,0.3-1.1,0.5    c-4.6,2.7-2.8,9.5,3,11c1.1,0.3,2.2,0.4,3.2,0.2c3.1,5.9,6.5,12.7,10,20.3c-7.1,2.5-14.1,5-21,7.6c-15.8-8.5-19.2-10.6-27.9-16.4    c0.4-1.1,0.7-2.3,0.7-3.6c0.1-3.4-2-6.1-5.4-4.7c0.4-0.2,0.7-0.3,1.1-0.3c0.3-3.6,0.8-6.8,1.4-9.6c8.5-3.5,21.4-8.9,40.4-15    c-0.3-0.2-0.9-0.5-1.4-1c1.7,1.5,5.4,2.8,8.6,2.3c-0.1,0-0.1,0-0.2,0c4.3,3.5,8.9,8.3,13.6,14.1c0,0,0,0,0.1,0    c-0.2,0.1-0.3,0.2-0.5,0.3c-4.8,3.6,0,11.6,7.6,12.7c6.7,1,10.6-3.9,7.1-8.9c-1.1-1.6-2.8-2.9-4.7-3.8c0,0,0.1,0,0.1,0.1    c1.2-8.3,1.4-9.4,0.9-14.4c12.7-3.4,24-5.9,33.6-7.4l6.8,1.6c4.3,2.9,16.3,7.4,19.1,6.6c1.7-0.5-0.5-2.7-4.9-4.7    c-5-2.4-11.9-4.2-14.9-4c-0.3,0.1-0.6,0.1-0.7,0.3c-0.1,0.2-0.1,0.4,0.1,0.7l-8-1.8c-0.5-0.1-0.6-0.1-1-0.1    c-9.5,1.4-20.7,3.9-33.3,7.3c-0.5,0.2-0.5,0.2-0.2,5.6c0.1,2.8-0.7,6.5-1.2,9.2c0.2,0,0.4,0.1,0.5,0.1c-1.3-0.3-2.6-0.3-3.8-0.2    c0.2,0,0.3-0.1,0.5-0.1c-4.9-5.7-9.7-10.4-14.3-13.8c0,0,0,0,0,0c1.7-0.9,1.7-2.5-0.1-3.7c0,0,0.1,0,0.1,0.1    c17.3-4.7,27.8-7.5,42.6-9.2c10,1.3,21.4,2.7,36,6.7c-0.8-0.3-1.7-0.7-2.4-1.1c-0.1,0-15.3-4.5-36.9-6.2c-0.3,0-0.6,0-0.8,0    c-10.4,1-24.2,3.9-40.6,8.8c0.1,0,0.2,0.1,0.2,0.1c-2.2-0.8-5-1.1-7.2-0.7c0,0,0.1,0,0.1,0c-4.7-2-9.1-2.5-13.1-1.3l-0.8,0.2    l-0.3,0.1c3.7-1.1,7.8-0.6,12.3,1.5c0,0,0,0,0,0c-0.3,0.2-0.6,0.4-0.8,0.7c-0.4,0.7-0.1,1.6,0.7,2.4c-0.1-0.1-0.1-0.1-0.2-0.2    c-13.3,4.2-26.3,9-38.2,14.1c0.2-0.5,0.3-1,0.5-1.5l-0.1,0.1c-0.6,0.4-1.1,0.6-1.6,0.7c-0.2,0.5-0.4,1-0.6,1.6    c-22.6,9.7-41,20.1-48.7,27.8l-4.3,4.6c9.3-9.1,26.9-19.2,52.3-30.2c-0.8,2.9-1.4,6.2-1.8,9.8c0.1-0.1,0.2-0.1,0.2-0.1    c-4.4,2.7-6.8,10.1-4,12.9c2,2,5.5,0.8,7.9-2c0,0,0,0,0,0c9.1,6.2,12.2,8.2,28.8,17.4c0.6,0.3,0.8,0.3,1.5,0.1    c7.3-2.8,14.7-5.5,22.2-8.1c1.7,3.7,3.5,7.6,5.3,11.7c0,0,0,0,0,0c-3.2,2-4.3,5.8-3.7,9.5c-24,8.2-47.1,17.5-67.8,27    c-1.9-11.6-3-22.4-3.2-32.3c-0.2,0.2-0.4,0.3-0.6,0.4c2.8-1.9,5.4-6.1,5.6-10.7c0.2-3.4-1.2-8.1-5.8-6.3    c-3.5,1.8-6.1,6.4-6.7,10.5c0-0.3,0.1-0.6,0.2-0.9c-22.7,10.5-41.3,21.3-52.4,30.4c2.2-5.5,4.6-10.8,7.4-16    c12-9.9,34-21.9,60.3-33.5c0-0.5-0.1-1.5,0.2-3c-25.7,11.2-47.1,23-58.6,32.6c0,0,0,0.1,0,0.1c0,0-0.1,0-0.1,0    c-0.4,0.5-0.6,0.8-0.8,1.1c0.5-0.7,0.7-1,0.8-1.1c0,0,0.1-0.1,0.1-0.1c-2.8,2.3-5,4.6-6.6,6.6c-0.4,0.5-0.7,0.9-1,1.4l-3.1,5.2    c0.3-0.6,0.8-1.2,1.3-1.9c1.5-2,3.6-4.1,6.3-6.4c-2.8,5.2-5.3,10.5-7.6,16.1c-3,2.5-5.3,4.9-7,7.1c-1,1.3-1.7,2.5-2.2,3.6    l-2.2,5.5c0.7-1.2,1.7-2.8,2.3-4c1.7-2.3,4.1-4.7,7.2-7.3c-5.3,14.5-8.4,30.1-9.3,46.3c-3.7,3.1-6.6,6.1-8.6,8.8    c-1.1,1.5-1.9,2.8-2.5,4.1l-0.3,5.2c0-0.5,0.1-1,0.1-1.5c0.6-10.6,0.6-10.6,0.5-11c0,0,0,0,0,0c0,0,0,0,0,0c0.3-2.3,0.7-4.5,1-6.7    c1-4.2,1.9-8.4,2.9-12.6c1.4-5.8,2.6-9.8,3-11.2l-1.2,3.9c-1.7,6.1-3.6,14.4-4.9,20.7c0,0,0,0.1,0,0.1c0,0,0,0.1,0,0.1    c-0.4,2.2-0.8,4.5-1.1,6.8c0,0,0-0.1,0-0.1c-0.1,0.8-0.3,1.9-0.3,2.4c-0.6,5.2-1,12.1-1.3,17.2c-0.1,3.4,0,5.3,0.2,5.5    c0,0,0,0,0,0c0.2,19.6,3.7,39.5,10.9,59c4,10.9,9.1,21.3,14.9,30.9c-0.4,1.9-0.1,3.5,0.7,4.9l3.3,5.2c-1.1-2.9-2.2-5.6,2.8-12.1    c1.7-2.2,3.9-4.6,6.6-7.1c2.2,2.9,4.7,5.1,7,5.4c0.4,0.1,0.7,0,1,0c-0.1,0-0.1,0-0.2,0.1c1.3,2,2.7,3.9,4.1,5.8    c-1.8,4.9,8.5,18.6,15.4,19.7c4.7,0.7,2.8-5.8-2-12.2c-4-5.3-9.5-9.7-12.2-8.7c0.1-0.1,0.3-0.1,0.5-0.1c-1.4-1.9-2.8-3.9-4.1-5.9    c-0.1,0.3-0.3,0.5-0.4,0.7c1.3-1.6,0.7-5.9-1.6-10.9c5.2-4,11.4-8.2,18.4-12.6c7.1,12.4,15.1,24.1,24,34.8    c-3.2,4.8,6.9,17.5,15.4,18.5c6,0.7,5.1-5.8,0.2-11.9c-3.9-4.8-9.9-8.9-13.7-8c0.1,0,0.2-0.1,0.3-0.1    c-8.5-10.8-16.5-22.5-23.6-34.9c16-9.7,36-20,58.5-30.1c1.6,2.2,3.7,4.1,6.2,5c1.4,0.6,2.8,0.8,4,0.6c2.4,5.2,4.9,10.3,7.5,15.3    c-7.4,3.3-14.5,6.5-21.3,9.8c-1.1,0.8-2.8,19.1,1.6,45.9c0,0,0,0,0,0c-1.6-0.4-3.1-0.4-4.4,0.2c-0.1,0.1-0.3,0.2-0.5,0.3    c-5,4,5.7,16.6,14.8,17.5c0.7,0.1,1.2,0,1.7,0c0,0-0.1,0-0.1,0c5.1,4.5,10.2,8.8,15.5,12.7c-15,8.6-25.5,15.4-31.7,23.1    c-3.4,4.5-3.3,7.7-0.2,9.7c-9.7-3.5-19.1-7.8-28-12.9c-3.7-2.4-3.8-6.2,0.2-11.5c5.3-7.1,17.3-15.8,33.6-25.2    c-0.6-0.5-2.2-1.7-3.8-3.5c-0.1-0.1-0.1-0.2-0.2-0.3c-16.7,9.6-29,18.6-34.5,25.8c-4.1,5.5-4,9.4-0.2,11.8l-3.4-2.2    c1.1,0.7,2.3,1.5,3.4,2.2c0.1,0,0.1,0.1,0.2,0.1l5.1,3l4.1,2.3c7.7,4.2,15.8,7.7,24.1,10.7c0.5,0.3,1,0.5,1.7,0.7l5.7,1.9    c-5.3-1.7-6.5-5.2-2.4-10.5c4.7-6.2,15.6-14,30.5-22.3c1.1,0.7,2.1,1.5,3.2,2.2c0,0,0,0,0-0.1c-1.2,2,2.3,5.3,6.8,7.8    c-0.9-0.5-1.7-1-2.6-1.6c-12,6.9-20.8,13.3-24.7,18.5c-4,5.3-2.4,8.6,3.6,9.9l6,1.3c-6.3-1.2-8-4.3-4.1-9.6    c3.7-4.9,12.1-11.1,23.5-17.6c3.6,1.7,7.5,2.8,10.1,2.4c0,0-0.1,0-0.1,0c13.7,7.1,27.6,11.8,41.2,13.7c1.7,0.2,2.1,0.2,2.4,0.1    c-0.2-0.2-0.3-0.2-1.8-0.5c-13.3-2.1-26.9-7-40.3-14.2l0,0.1c0,0,0,0-0.1,0.1c0.8-1.1-1.1-3.5-4.1-5.7c4.5-2.4,9.4-4.8,14.5-7.2    c12.5,11,25,19.2,36.7,23.6c1.1,0.4,1.4,0.4,1.8,0.4c-0.1-0.4-0.1-0.4-1-0.8c-11.8-4.9-24.5-13.7-37.1-25.7    c-1.1-0.9-1.9-1.3-2.7-1c-5.8,2.7-11.2,5.4-16.2,8.1c0,0,0,0,0.1,0c-4.1-2.3-8-3.5-10.3-3c0.1,0,0.1,0,0.2-0.1    c-1-0.7-2.1-1.5-3.1-2.2c12.5-6.8,27.6-14,44.1-20.8c1.5,1.8,3.5,3.4,5.7,4.2c1,0.4,1.9,0.5,2.7,0.4c0,0-0.1,0-0.1,0    c9.3,16,18,28.6,25.4,36.5c0.6,0.6,0.8,0.7,1.1,0.7c0.1,0,0.1-0.1,0.2-0.1c0-0.2-0.1-0.4-0.5-0.9c-6.8-8.1-15-20.9-24-37.1    l-0.1,0.1c-0.1,0.1-0.1,0.1-0.2,0.1c2-1.5,2.4-5,1.2-8.7c0,0.1,0.1,0.2,0.1,0.3c13.1-5.1,26.9-9.9,40.6-14.2    c9.1-2.8,17.7-5.2,25.7-7.3c0.6-0.4,0.6-0.4,1-0.9c0.1-0.1,10.1-17.6,19.1-34.3c3.3,4.5,8.3-1.6,9.8-9.4c0,0.1,0,0.2,0,0.3    c7.6-1.3,14.4-2.2,20.4-2.7c-0.4,3.8-0.3,7.2,0.7,8.7c0.2,0.2,0.3,0.4,0.5,0.5c0,0-0.1,0-0.1,0c-0.4,1.4-0.7,2.8-1.1,4.2    c0,0,0.1,0,0.1-0.1c-2.2,1.3-4.9,6.5-6.7,11.7c0.2-0.6,0.4-1.3,0.7-2c0-0.1,0.1-0.2,0.1-0.3c-3.6,0.3-7.5,0.7-11.8,1.4    c-0.5,0.3-0.5,0.3-7.6,11.5c-0.1,0.1-8.2,13-20,30c0,0.1,0.1,0.2,0.1,0.3c-0.3-1-0.9-1.5-1.8-1.4c-2.5,0.8-4.9,4.6-6.5,8.6    c-6.7,1.6-13.9,3.6-21.7,6c-6.9,2.2-13.9,4.5-20.7,7c-0.3,0.2-0.8,0.5-0.5,1.9c3.3,9.6,6.1,17.6,8.1,23.6c0.3,0.8,0.5,0.8,0.8,0.9    c0.2-0.3,0.3-0.5,0.1-1.2c-1.5-5.8-3.7-13.3-6.4-22.2c6.1-2.2,12.3-4.3,18.5-6.2c7.3-2.3,14.2-4.2,20.4-5.7    c-0.6,2.4-0.8,4.5-0.5,5.5c0.1,0.4,0.3,0.6,0.6,0.7c0,0,0,0-0.1,0c-3.7,8.2-8,15.5-12.9,21.9c-0.8,1.1-0.8,1.2-0.9,1.5    c0.1,0,0.4-0.1,1.7-1.6c5.2-6.5,9.7-13.9,13.6-22.1c0,0,0,0,0,0c1.9-1.2,4.6-4.9,6.4-8.8c1.1-2.3,1.7-4.4,1.9-6.1    c0,0.1,0,0.1,0,0.2c12.7-17.9,15.9-22.7,26.6-39.3c4-0.6,7.6-1,11-1.3c-1,3.6-1.4,6.8-0.8,8.2c0.1,0.3,0.3,0.4,0.4,0.6    c-0.1,0-0.1-0.1-0.2-0.1c-11,26.4-27.4,49.7-48.5,67.2c-1.1,0.9-1.3,1.1-1.8,1.5c0.5-0.2,0.6-0.2,2.3-1.6    c21.5-17.5,38.3-40.8,49.5-67.2c-0.1,0.1-0.2,0.1-0.3,0.2c1.7-0.8,4.4-4.6,6.6-9.4c-0.1,0.1-0.1,0.2-0.2,0.4    c6.3,0,11,0.7,13.7,2.3c-1.9,4.3-3.3,8-3,8.9c0,0,0,0,0,0c-14.4,25.9-35.1,48.8-61,65.8c-1.4,0.9-1.6,1.1-2.3,1.5    c0.8-0.4,0.8-0.4,2.4-1.4c26-16.9,46.8-39.7,61.3-65.8l-0.1,0c0,0,0,0,0,0c0.8-0.4,2.9-3.4,5.1-7.5c-0.1,0.1-0.1,0.3-0.2,0.4    c0.5,0.8,0.8,1.6,0.7,2.6l0-0.1c0-0.1,0.1-0.3,0.2-0.5c-0.1,0.3-0.2,0.5-0.2,0.6c0,0.1,0,0.3,0,0.4c-0.1,0.9-0.4,2-1,3.1l2.6-5.3    c0.6-1.2,0.9-2.3,0.9-3.2l0,0c0-1-0.2-1.8-0.7-2.6c-0.1,0.3-0.3,0.6-0.4,0.9c2.8-6.1,4.3-11.2,3.7-12c0.1,0.1,0.1,0.3,0.1,0.5    c0.4-1.1,0.8-2.2,1.2-3.3l0,0c0,0-0.1,0-0.1,0c0.8-0.4,2.6-4.2,4.2-9c-0.1,0.2-0.1,0.4-0.2,0.7c0.6,0.9,0.9,1.9,0.8,3l0-0.1    c0.2-1.1,1.4-4.8,1.6-5.3c0-1.1-0.3-2.1-0.8-3c0,0.1,0,0.2-0.1,0.3c1.4-5.5,2.1-10.3,1.4-11.3c0,0-0.1-0.1-0.1-0.1    c-0.7,0-2.3,4-3.8,8.8c-3.3-1.8-8.8-2.7-16.3-2.7c0,0.1,0,0.2,0,0.3c0.7-5.3,0-9.4-1.9-10c0.1,0,0.2,0.1,0.3,0.1    c0.3-1.4,0.5-2.8,0.7-4.2c15.4-0.6,24.1,2.2,24,8.3l0-0.1c0.1-0.4,0.2-1,0.3-1.7c-0.2,0.9-0.3,1.6-0.3,1.9c0,0.2,0,0.3,0,0.5    c0,0.3-0.1,0.5-0.1,0.8l0.9-4.9l0.2-0.9c0.1-0.4,0.1-0.7,0.1-1.1l0,0c0.1-6.2-8.7-9-24.4-8.5c0.5-5.8,0.8-11.6,0.8-17.5    c-0.6,0.4-1.1,0.4-1.7,0.3c2.4,0.7,4.5-3.4,5-9.4c0,0.1,0,0.2,0,0.3c14.7-0.1,22.8,2.9,22.7,9.1c0,0,0-0.4,0-1c0,0.4,0,0.8,0,0.9    l0-1.1l0-0.6c0-0.6,0-1.2,0-1.9c0,0,0-0.1,0-0.1c0-0.1,0-0.1,0-0.2C428.7,244.5,428.7,244,428.7,243.5z M319.2,131.2    c0.3,0,0.6,0,1,0.2C319.9,131.3,319.6,131.2,319.2,131.2z M97.7,142.8c-0.1,0.2-0.2,0.5-0.6,1.1C97.3,143.6,97.5,143.2,97.7,142.8    z M96.5,144.1c-0.1,0.2-0.3,0.5-0.5,0.8C96.2,144.6,96.3,144.3,96.5,144.1z M66.2,213.5c-0.1,0.3-0.1,0.5-0.1,0.6    C66.2,213.8,66.2,213.6,66.2,213.5z M241.7,399.7c-0.1,0.1-0.2,0.1-0.4,0.2C241.5,399.8,241.6,399.8,241.7,399.7z M223.6,388    c-0.3,0.1-0.6,0.2-0.9,0.3C222.9,388.2,223.2,388.1,223.6,388z M385.3,328.6c0.2,0.1,0.5,0,0.7-0.1    C385.7,328.7,385.5,328.7,385.3,328.6z M163.9,166.9C163.9,166.9,163.9,166.9,163.9,166.9c0,0-0.1,0-0.1-0.1    C163.8,166.8,163.8,166.8,163.9,166.9z M163.5,166.7c-0.4-0.1-0.9,0-1.3,0.2C162.7,166.6,163.1,166.6,163.5,166.7z M162.1,167    c-0.3,0.4-0.6,0.7-0.8,1.2C161.4,167.7,161.7,167.3,162.1,167z M93,328.8C93,328.8,93,328.8,93,328.8c-1.7,2.3-2.8,4.3-3.4,6.1    c-5.9-9.7-10.9-20-14.9-31c-7.2-19.5-10.7-39.4-11-59c0,0,0,0,0,0c0.2-1.6,0.4-5.2,0.9-12.1c0.6-1.3,1.4-2.6,2.5-4.1    c2.1-2.8,5-5.8,8.8-8.9c-0.5,22.1,3.3,45.2,11.8,68.2c2.8,7.5,5.9,14.7,9.5,21.7c-1.2,2.5,0.1,7.4,2.5,12    C96.9,324.2,94.7,326.6,93,328.8z M107.1,315.4c0.1,0.1,0.2,0.3,0.2,0.4c-3.1-4.8-7.1-8.5-9.3-7.2c0,0,0.1-0.1,0.1-0.1    c-2.9-7.2-6-14.4-8.8-21.9c-8.5-23-12.3-46.1-11.9-68.1c5.4-4.4,12.3-9.2,20.3-14.2c0.7,21.2,5.1,43.9,13.6,66.9    c4,10.9,8.8,21.5,14.2,31.6C118.5,307.2,112.3,311.4,107.1,315.4z M97.7,201.7c0-0.1,0-0.2,0-0.3c0,0.6,0,1,0,1.5    C97.7,202.5,97.7,202.1,97.7,201.7z M99.6,198.4c0.3,0.2,0.5,0.8,0.6,1.8C100.1,199.7,99.8,198.9,99.6,198.4z M128.2,301.2    c-5.4-10.1-10.2-20.6-14.2-31.6c-8.5-23-13-45.6-13.8-66.8c3-1.8,6.1-3.6,9.4-5.5c-0.1-0.6-0.4-2.4-0.1-4.8c0-0.1,0-0.3,0-0.4    c-3.7,2.1-7.3,4.2-10.7,6.2c0.3-0.1,0.5-0.1,0.7,0c-0.3,0.1-0.6,0.1-0.9,0.2c-0.5,0.8-0.7,1.2-0.9,2.4c0.2-1.5,0.7-2.1,0.9-2.4    c0.1-0.1,0.2-0.1,0.2-0.2c-8.4,5.2-15.6,10.1-21.2,14.7c0.8-16.1,3.9-31.6,9-46.1c11.4-9.4,30.6-20.5,54-31.5    c0.1,1.5,0.6,2.7,1.5,3.6c0.9,0.9,2,1.2,3.1,1c0.1,9.9,1,20.8,2.8,32.5c-9.3,4.3-18.1,8.6-26.3,12.9c0.2,0.6,0.3,1.3,0.4,2.2    c-0.7-5.1-3.3-8.9-7-7.1c0.4-0.2,0.9-0.4,1.4-0.5c0-2,0-4,0-5.9c2.4-2.3,4.6-6.9,5.1-12.1c0.4-4.3-0.5-10-4.7-8.1    c-5.6,3.5-9.1,16.4-5.6,20.5c0.7,0.9,1.6,1.2,2.5,1.1c0,2-0.1,3.9,0,5.9c0,0,0.1-0.1,0.1-0.1c-5.2,4.7-6.4,18-1.4,21.8    c1,0.8,2.1,1,3.2,0.8c1.8,18,6.5,37.1,13.7,56.6c4,10.9,8.7,21.6,13.9,31.7C138,295.5,132.9,298.4,128.2,301.2z M146.4,290.9    c-5.2-10.2-9.8-20.8-13.9-31.8c-7.2-19.5-11.9-38.5-14.2-56.5c0,0,0,0-0.1,0.1c2.4-2.4,4.2-7,4.2-12.2c8.2-4.3,17.1-8.7,26.5-13    c3.4,19.8,9.4,41.6,17.9,64.6c4,10.9,8.5,21.7,13.2,32.1C167.9,279.8,156.6,285.4,146.4,290.9z M188.6,274.6    c-0.7-1.3-1.2-2.4-1.6-3.6c-1.1,0.5-2.2,1-3.3,1.5c-4.7-10.4-9.1-21.2-13.2-32.1c-8.5-23-14.5-44.8-18.1-64.5    c3-1.4,6.1-2.8,9.2-4.1c4.1,19.5,10.4,41.2,18.9,64.2c2.8,7.5,5.7,14.9,8.7,22.1c0.4-0.3,0.7-0.5,1-0.8    C185.2,260.3,185.1,268.4,188.6,274.6z M191,256.8c0.6-0.3,1.2-0.4,2-0.5c-3-7.3-5.9-14.7-8.7-22.1c-8.5-23-14.9-44.6-19.2-64    c17.5-7.6,36.3-15.1,55.7-22c1.4,2.4,3.6,4.4,6.5,5.4c7.7,2.7,13.8-4,11.5-11.6c5.5-1.8,11-3.6,16.6-5.3c3.2-1,6.3-1.9,9.4-2.9    c14.4,7.4,18.3,9.4,32,17.5c0-0.3,0-0.7,0.1-1.2c-0.6,5.9,4,14.1,10.9,16.6c7,2.5,11.3-3.3,8.9-10.8c4.5-1.1,8.8-2.1,13-3    c3.8,7.5,7.3,15.3,10.5,23.6c-17.7,3.8-37.9,9.1-60,16c-8.5,2.6-17.1,5.4-25.5,8.3c0.2,0.3,0.3,0.6,0.4,0.8    c-2.6-5.1-7.8-9-13.7-7.3c-8.7,3.7-7.6,16.2-1,22.5c-4.7,15.7-6.4,21.5-10.5,36.2c-8.8,3.4-17.4,7-25.8,10.5    c0.2,0.3,0.4,0.7,0.5,1C201.4,258.3,195.6,254.9,191,256.8z M393.9,286.2c-6.1,0.5-13.1,1.4-20.8,2.8c0,0.2,0,0.4,0,0.6    c0-5.2-1.9-9.7-5.5-9.3c-5.9,1.7-7.9,13.5-6.2,20.2c0-0.2-0.1-0.3-0.1-0.5c-6.7,12.6-9.4,17.8-18.5,34.1    c-8.1,2.1-16.9,4.5-26.2,7.4c-14.3,4.4-28.6,9.5-42.2,14.8c0,0,0,0.1,0.1,0.1c-2.3-3.5-5.6-5.5-8.6-5.2c0.1,0,0.2,0,0.2,0    c-4.7-9.2-9.6-19.1-14.5-29.6l-0.2,0.1c-0.3,0.2-0.7,0.4-1,0.6c1.3-0.6,2.3-1.7,2.9-3.1c12.9,8.1,15.6,9.7,25.3,16.4    c0.6,0.4,0.8,0.3,1.4,0.3c11.3-4.2,22.9-8.1,34.5-11.7c5.5-1.7,10.8-3.3,16-4.7c0.5-0.3,0.7-0.4,1.1-1l3.8-8    c4.7,3.6,10.1-3.3,10.4-11.7c0.2-5.5-2.1-12.7-7.9-11.6c-7.3,2.5-8,15.4-4.3,21.3c-0.2-0.3-0.4-0.7-0.6-1.1c-1,2.2-2.4,5-3.4,7.2    c-5.1,1.4-10.3,3-15.8,4.7c-11.7,3.6-23.4,7.6-34.8,11.8c-12.8-8.7-13.6-9.3-24.7-16.2c0-1.7-0.3-3.6-1-5.6    c-1.7-4.6-6.9-11.1-13.7-9c-8.5,4.1-4.1,18.4,4.7,22.1c1.4,0.6,2.7,0.8,3.9,0.7c0,0,0,0-0.1,0c5.1,10.4,10.1,20.3,15.1,29.4    c-2.1,1.8-2.2,5.4-0.8,8.8c-17.1,7.1-32.9,14.5-45.9,21.6c-5.2-4-10.2-8.3-15.2-12.8c1.3-2-0.2-6-3.5-9.8c-1.7-2-3.9-3.8-6.1-5.2    c0,0,0.1,0,0.1,0.1c-2.4-15.1-3.3-20.8-2.4-43.2c6.5-3.1,13.3-6.2,20.4-9.4c5.4,10.4,11.1,20.4,16.8,29.8    c-4.7,4.4,0.7,16.1,9.3,18.8c7.2,2.3,9.5-4.6,6-11.6c-3.1-6.1-9.3-9.9-13.7-8.2c0.5-0.2,1-0.3,1.6-0.4c-5.6-9.5-11.1-19.5-16.5-30    c22.1-9.6,46.3-18.9,71-27.2c13.5,10.1,14.9,11.1,22.7,17.6c0.3,0.1,0.7,0.3,0.9,0.4c0.7-0.1,0.8-0.1,0.9-0.2    c38.2-11.9,69.7-18.4,90.3-19.5c-0.2,1.4-0.3,2.9-0.5,4.3c0,0,0,0,0,0C396.8,277.6,395,281.6,393.9,286.2z M401.2,291.1    c0,0.1-0.1,0.2-0.1,0.4c7.3,0,12.7,0.8,15.9,2.6c-1.2,4.5-2,8.6-1.9,10.1c-0.4,1.1-0.8,2.2-1.2,3.3c0.1-0.1,0.2-0.1,0.3-0.1    c-0.7,0-3.1,4.2-5.5,9.2c-2.9-1.6-7.7-2.4-14.2-2.3c0,0.1-0.1,0.3-0.1,0.4c1.6-5.4,1.5-9.7-0.4-9.8c0.3,0,0.5,0.1,0.7,0.3    c0.4-1.4,0.8-2.8,1.1-4.2c-0.1,0.1-0.2,0.1-0.3,0.2C397.4,300.2,399.7,296.2,401.2,291.1z M400.6,248.8c0,5.9-0.2,11.7-0.7,17.5    c-20.8,1.1-52.8,7.7-91.5,19.7c-13.3-10.7-13.5-10.9-23-17.8c-0.3-0.1-0.7-0.3-1.1-0.4c-25.9,8.6-50.7,18.1-73.4,28    c-2.5-5-4.9-10.1-7.3-15.3c2.5-2.2,3.6-6.4,2.6-11.3c8.7-3.7,17.6-7.3,26.7-10.9c0.5-0.3,0.8-0.5,1.1-1.4    c3.7-12.3,7.1-24.8,10.9-37.1c0,0,0,0-0.1,0c7.6,2.8,13.6-4.2,11.9-13.2c8.5-2.9,17-5.7,25.5-8.3c22.2-6.9,42.4-12.2,60.1-16    c2.2,5.8,4.1,11.7,5.9,17.6c0.1-0.1,0.2-0.1,0.2-0.1c-6,3.5-4.4,18.8,3.1,24.3c6.1,4.4,11.4-2.2,9.7-12    c-1.4-7.7-6.6-13.7-11.3-12.9c0.5-0.1,1-0.1,1.7,0c-1.7-5.9-3.7-11.8-5.8-17.6c4-0.8,7.8-1.6,11.5-2.2    c19.1,19.6,26.6,28.6,38.9,50.5c-0.8,6.5,0.6,15.4,3.6,18.4c0.4,0.4,0.7,0.6,1.1,0.7C400.7,248.9,400.6,248.8,400.6,248.8z     M406,239.4c0-0.4,0-0.9,0.1-1.4C406,238.6,406,239,406,239.4z M406.1,237.8c0-0.5,0-0.9,0-1.4C406.1,237,406.1,237.4,406.1,237.8    z" style="fill: #196917; fill-opacity: 1;"></path><path class="st0" d="M343.8,399.9l1.7-1.1c-0.7,0.5-1.4,0.9-2.1,1.3C343.5,400.1,343.7,400,343.8,399.9z" style="fill: #196917; fill-opacity: 1;"></path><path class="st1" d="M268.1,91.9c5.3,2.4,9.5,3.3,11.5,2.9c0,0-0.1,0-0.1,0l-0.1,0c1,0.5,1.9,1,2.8,1.6c0,0,0-0.1,0.1-0.1    c-0.6,1.5,1.8,4.3,5.1,6.8c-0.1-0.1-0.2-0.2-0.3-0.2c-7.6,4.6-16.7,9.5-26.7,14.4c1.4,1.1,2.5,2.2,3.5,3.5    c10.4-5.1,19.8-10.1,27.7-14.9c-0.1,0-0.2-0.1-0.2-0.1c7.4,4.4,13.1,4.6,12.8,1.4c-0.6-5.4-15.3-12.7-20.4-11.7c0,0,0.1,0,0.1,0    c-1-0.5-1.9-1-2.9-1.6c0,0,0,0,0,0c0.1-0.2,0-0.5-0.1-0.9c-1.7-4.3-16.3-9.5-20.9-8.6c-25.1-9.4-51.2-12.3-75.9-7.2l0,0    c24.3-4.8,49.9-1.6,74.7,8c0-0.1,0.1-0.1,0.1-0.2c-0.7,1.4,3.9,4.2,7.2,5.9c-0.9-0.5-1.6-0.9-2.2-1.2c-6.1,3.7-13.4,7.7-21.5,11.6    c0.1,0,0.2,0.1,0.2,0.2c1.8,1.2,2.9,2.3,3.3,2.7c8.4-4.1,16-8.2,22.5-12.1C268.2,92,268.2,91.9,268.1,91.9z" style="fill: #0de809; fill-opacity: 1;"></path><path class="st1" d="M162.8,100.4c-0.6,1-0.6,1.3-0.6,1.5c0,0,0.1,0.1,0.1,0.1c4.2-1,8.8-2.3,13.8-3.8c4-1.2,8-2.6,12-4    c0,0,0,0,0-0.1c1.6,4.1,4.7,4.8,5.8,2.7c0.1-0.2,0.2-0.4,0.2-0.6c0,0,0,0.1,0,0.1c10.4,8.3,26.9,16.7,28.8,17.6    c0.6,0.3,0.8,0.2,1.1,0.2c4.5-1.9,8.8-3.8,13-5.7c0,0,0,0-0.1-0.1c3.4,2.8,6.9,4,9.1,3.8c0.8,0.8,1.7,1.7,2.5,2.5    c0.5-0.6,1.2-1,2.3-1.1c-0.9-0.8-1.7-1.7-2.6-2.5c0.3-0.4,0.5-1,0.5-1.7c-0.2-5.2-10.7-11.6-15.4-11c0,0,0.1,0,0.1,0    c-17.3-13.3-34.3-21-49.4-21l0,0c14.5,0.4,30.9,8.3,47.7,21.8c0.1-0.1,0.2-0.2,0.2-0.2c-1.3,1.3-0.1,4.1,2.2,6.7    c-0.1-0.1-0.1-0.2-0.2-0.2c-3.8,1.8-7.8,3.5-11.9,5.3C205.5,102,202.8,100.2,194,94c0.1,0.5,0.1,0.9,0.1,1.3    c0.1-3.4-3.3-8.4-5.5-8.5c-2-4.3-3.5-7.5-4.7-9.6l0,0c0.9,2.2,2.2,5.6,3.9,9.9c0.1-0.1,0.2-0.2,0.4-0.3c-1,0.4-1.2,2.8-0.7,5.1    c0-0.1,0-0.2-0.1-0.3c-3.5,1.3-7.1,2.5-10.7,3.6c-4.2,1.3-8.2,2.4-11.8,3.3c5.4-8.7,11.7-15.9,19-21.3l0.1-0.1l-0.1,0.1    C175.7,83.1,168.7,90.9,162.8,100.4z" style="fill: #0de809; fill-opacity: 1;"></path><path class="st1" d="M136.2,114.4c-2.2,0.1-4.1,0-5.7-0.2c-0.5,0.6-2.4,2.5-3.9,4.1c1.8,0.2,4,0.3,6.6,0.1c0.3-0.1,1-0.8,2.2-2.1    c13.4-16.3,29.6-29.7,48.4-39.2l0.1-0.1c0,0,0,0-0.1,0.1C165.5,86.3,149.5,99.1,136.2,114.4z" style="fill: #0de809; fill-opacity: 1;"></path><path class="st1" d="M66.1,213.9c0.4-1.9,0.8-3.9,1.3-6C66.7,210.9,66.5,211.9,66.1,213.9z" style="fill: #0de809; fill-opacity: 1;"></path><path class="st1" d="M72.3,189.2c0,0.1-0.1,0.1-0.1,0.2l-1.2,3.9c-1.1,4.3-2.5,9.7-3.6,14.7c0.8-3.1,2.1-8.2,4.9-18.6    C72.3,189.3,72.3,189.2,72.3,189.2z" style="fill: #0de809; fill-opacity: 1;"></path><path class="st1" d="M183.7,239.9c1.9-3,2.3-7,1.6-10.8c0.1,0.7,0.2,1.2,0.2,1.6c1.5-0.1,2.9-0.5,4.4-1c8.1-2.5,16.2-5.2,24.2-7.9    c0.5-0.3,1.9-1,11.8-35.6c9-3.3,17.8-6.8,26.4-10.3c-0.1-0.1-0.1-0.2-0.2-0.3c4.8,7.2,13.4,8.6,15.8,2c2.8-7.8-6.4-20.7-15-17.8    c-5.2,2.6-4,9.9-1.9,14c-0.4-0.8-0.8-1.6-1.1-2.7c-8.6,3.5-17.5,7-26.6,10.4c-0.8,0.5-0.8,0.5-4.7,13.7c-1.9,6.5-4.9,15.1-7,21.5    c-7.6,2.6-15.3,5.1-23,7.5c-1.4,0.4-2.9,0.9-4.3,1.3c-1.9-4.8-5.8-8.3-10.8-7.2c-6.5,2.4-7.3,11-5.8,16.4    C170.3,244.1,179.3,247.1,183.7,239.9z" style="fill: #0de809; fill-opacity: 1;"></path><path class="st1" d="M359,149.3c-0.1,0.1-0.3,0.2-0.4,0.2c-2.8,2.5-0.2,8.8,2.5,13.1c-0.3-0.5-0.7-1.1-1-1.7    c-10.9,7.2-24.5,14.9-40,22.8c0.1,0.1,0.2,0.2,0.2,0.3c1.6,2.2,2.4,4.1,2.7,4.8c15.7-7.9,29.5-15.7,40.4-23    c-0.2-0.2-0.4-0.4-0.5-0.7c2,2.4,6,6.7,9.7,6.5c7.9,12.6,14.6,26.2,19.9,40.6c0.9,2.3,1.7,4.6,2.4,6.9c0.1-0.2,0.3-0.4,0.4-0.5    c-2.6,3-2.2,10.9-0.3,17.1c2.5,8,6.8,10.9,9.1,6.1c3.7-7.7-1.6-24.9-7-24.2c-0.8-2.3-1.6-4.6-2.4-6.9c-5.3-14.4-12-27.9-19.9-40.6    c1.3-3.1,0.2-7.1-2.1-10.9c0.4-0.3,0.9-0.7,1.3-1c-0.1,0-0.2,0.1-0.4,0.1c-0.2,0-0.3-0.1-0.5-0.2c0.3,0.1,0.6,0.2,0.9,0.1    c0.4-0.3,0.8-0.6,1.1-0.9c5.4-4.3,9.6-8.3,12.4-12c2.7-3.5,3.9-6.5,3.7-9c4.1,5.1,5.2,6.3,5.6,6.6c0,0,0,0,0,0c0,0,0,0,0,0l0,0    c11.6,17.8,14.9,24,23.7,48.7l-3.2-9.4c-1.6-4.3-4.1-9.9-5.9-14.2c-4.3-9.2-9.3-17.8-14.8-25.7c-2.1-3.8-13.8-18.7-16.1-20    c0,0,0,0.1,0,0.1c0.4,0.8,1.6,2.5,7.1,9.3c0.2,2.4-1,5.4-3.6,8.9c-2.9,3.9-7.5,8.1-13.4,12.7c-0.5,0.4-0.9,0.7-1.4,1.1    C365.7,150.7,361.5,148.2,359,149.3z M366.2,161.4c-0.4-1.1-0.2-1.7,0.2-1.9C365.9,159.8,365.8,160.5,366.2,161.4z M366.5,159.5    c0.1,0,0.2,0,0.3,0c0.4,0.1,0.7,0.3,1.1,0.5C367.3,159.7,366.9,159.6,366.5,159.5z M395.9,218.1c-0.2,0.1-0.3,0.3-0.5,0.5    C395.6,218.4,395.8,218.2,395.9,218.1z M369,161.3c-0.1-0.2-0.3-0.4-0.4-0.5C368.7,161,368.9,161.2,369,161.3z" style="fill: #0de809; fill-opacity: 1;"></path><path class="st1" d="M110.7,123l-1.5,1.7c1.2-1.4,2.5-2.7,3.7-4c0.3-0.4,0.6-0.7,0.9-1.1L110.7,123z" style="fill: #0de809; fill-opacity: 1;"></path><path class="st1" d="M192.7,70.9l-0.8,0.2l-0.3,0.1c-2.9,0.9-5.5,2.9-7.8,5.9l0,0c0,0,0,0,0,0C186.5,73.9,189.5,71.9,192.7,70.9z" style="fill: #0de809; fill-opacity: 1;"></path><path class="st1" d="M189,73.5c-1.7,1.1-3.4,2.2-5.1,3.6C186.1,75.5,187.7,74.4,189,73.5z" style="fill: #0de809; fill-opacity: 1;"></path><path class="st1" d="M201.2,68.6c-1.8,0.4-3.6,0.9-5.4,1.6c1.1-0.4,2.4-0.8,4.1-1.3L201.2,68.6z" style="fill: #0de809; fill-opacity: 1;"></path><path class="st1" d="M183.9,77.1C183.9,77.1,184,77.1,183.9,77.1C184,77.1,183.9,77.1,183.9,77.1L183.9,77.1z" style="fill: #0de809; fill-opacity: 1;"></path><path class="st1" d="M195.9,70.2c-2.8,0.9-4.4,1.7-6.8,3.4C191.3,72.1,193.5,71,195.9,70.2z" style="fill: #0de809; fill-opacity: 1;"></path><path class="st1" d="M254.4,63.1c-0.1,0-0.3,0-0.4,0c0.2,0,0.4,0,0.6,0L254.4,63.1z" style="fill: #0de809; fill-opacity: 1;"></path><path class="st1" d="M213.5,65.9c-0.8,0.2-1.8,0.3-3,0.6C211.5,66.3,212.5,66.1,213.5,65.9z" style="fill: #0de809; fill-opacity: 1;"></path><path class="st1" d="M249.1,63c1.9,0,3.5,0.1,4.9,0.1C252.4,63.1,250.7,63,249.1,63z" style="fill: #0de809; fill-opacity: 1;"></path><path class="st1" d="M254.6,63.2l5.8,0.4C258.4,63.4,256.5,63.2,254.6,63.2z" style="fill: #0de809; fill-opacity: 1;"></path><path class="st1" d="M278.2,65.8c-5-0.7-9.2-1.3-12.8-1.8c4.6,0.6,9.9,1.4,14.6,2.2C279.5,66.1,278.9,65.9,278.2,65.8z" style="fill: #0de809; fill-opacity: 1;"></path><path class="st1" d="M262.3,63.7l-2-0.1c1.6,0.1,3.3,0.3,5,0.5C264.3,63.9,263.3,63.8,262.3,63.7z" style="fill: #0de809; fill-opacity: 1;"></path><path class="st1" d="M182.9,74.2l-0.8,0.3c0.3,0,0.4,0.1,1.8,2.7l0,0l0,0C183.1,75,183.1,74.9,182.9,74.2z" style="fill: #0de809; fill-opacity: 1;"></path><path class="st1" d="M174.5,77.5l-0.8,0.4c2.9-1.3,6.3-1.5,10.1-0.7c0,0,0,0,0.1,0c0,0,0,0,0,0C180.3,76.3,177.2,76.4,174.5,77.5z    " style="fill: #0de809; fill-opacity: 1;"></path><path class="st1" d="M272,75c0,0-0.1-0.1-0.1-0.1c0,0,0-0.1,0-0.1c0.2,0.9,4.1,2.4,7.3,3.5c-1.3,1.3-2.9,2.6-4.6,4    c-1.6,1.2-3.3,2.5-5.2,3.7c0.1,0,0.3,0.1,0.4,0.1c2.4,0.8,4,1.6,4.6,1.9c2-1.3,3.7-2.6,5.4-3.9c0.2-0.2,0.4-0.3,0.7-0.5    c1.6-1.2,3-2.4,4.2-3.6c-0.1,0-0.1,0-0.2-0.1c6.3,1.9,10.2,2.5,11.6,2.1c0,0-0.1,0-0.1,0l-0.1,0c1.1,0.4,2.2,0.8,3.3,1.3    c-0.1-0.2,0-0.3,0.1-0.5c-0.7,1.3,5,4.5,8.1,6.2c-0.3-0.1-0.5-0.3-0.8-0.4c-1.6,1.6-3.6,3.2-5.8,4.9c-1.9,1.5-4.1,3-6.4,4.6    c1.8,0.9,3.2,1.8,4.7,2.8c2.4-1.6,4.6-3.2,6.6-4.8c-0.1,0-0.1,0.1-0.2,0.1c-0.1,0-0.2,0-0.3,0c0.2,0,0.4,0,0.5-0.1    c0.3-0.2,0.5-0.4,0.8-0.6c1.9-1.5,3.7-3,5.2-4.5c-0.1-0.1-0.3-0.1-0.4-0.2c7,3.2,12,4.1,11.4,2c-0.5-1.6-3.6-3.8-7.4-5.8    c0,0,0.1-0.1,0.1-0.1c2.8-3.6,3.3-6.5,1.9-8.6c0,0-2.2-0.9-5.3-2.1c1.4,2,0.8,4.8-1.8,8.3c0,0,0,0.1-0.1,0.1    c-4.3-1.7-8.5-2.8-10.3-2.3c-1.1-0.4-2.1-0.8-3.2-1.2c-0.8-1.8-7.6-4.4-13.9-5.9c2.5,0.6,4.3,1.1,5,1.3c0,0,0.1-0.1,0.1-0.1    c2.2-3,2.7-5.3,1.5-7c-1.4-0.3-4.4-0.9-5.6-1.2c1.1,1.6,0.7,3.8-1.5,6.6c0,0-0.1,0.1-0.1,0.1c-4.2-1-8-1.5-9.6-1    c-28.9-6.4-59.2-5.9-88.5,2.9l0,0C213.1,68.6,243.3,68.4,272,75z M300.8,93.8c0,0.5,0.9,1.1,1.6,1.5    C301.4,94.8,300.7,94.2,300.8,93.8z M272.2,74.5C272.2,74.5,272.2,74.4,272.2,74.5C272.2,74.5,272.2,74.5,272.2,74.5    C272.2,74.5,272.2,74.5,272.2,74.5z" style="fill: #0de809; fill-opacity: 1;"></path><path class="st1" d="M227.4,64.1c2-0.3,3.7-0.5,5.1-0.6c6.8-0.3,11.9-0.5,16.5-0.5c-4.8-0.1-10.7,0-16,0.5    c1.4-0.1,2.6-0.2,3.4-0.3c-3.5,0.1-7.2,0.5-10.7,0.9c-1.5,0.1-3.2,0.3-5,0.6c-3.2,0.5-4.2,0.6-7.3,1.2c2.4-0.4,4.8-0.7,7.2-1.1    c-3.8,0.6-6.5,1.3-6.7,1.5c0,0,0,0,0,0c-10,2.3-20.1,5.9-30,10.8l-0.1,0.1c10.1-5,20.3-8.6,30.5-10.9    C218.8,65.8,223.1,64.7,227.4,64.1z" style="fill: #0de809; fill-opacity: 1;"></path><path class="st1" d="M428.7,243.2C428.7,243.3,428.7,243.3,428.7,243.2l0,0.2l0-0.4C428.7,243.1,428.7,243.2,428.7,243.2    c-0.1,2.3-1.2,5.1-3.7,8.3c-4.3,5.7-12.1,12.3-22.7,19.4c0.2,1.4,0.2,2.6,0.2,3.5c0-6.3-2.3-11.9-5.4-11.3c-0.3,0.1-0.7,0.3-1,0.4    c-1.3,1-2.3,2.6-3,4.5c0,0,0-0.1,0-0.1c-19.8-22.5-41.5-37.9-43.1-37.4c-4,2.1-8.2,4.2-12.5,6.3c-4.8-12.4-10.2-24.4-16.1-35.9    c7.5-6.4-2-22.7-10.8-23.1c-1.4-0.1-2.1,0.2-2.9,0.6c-5.5,3.2-3.3,11.5-0.6,16c1.3,2.2,4.9,7.2,10.6,7.7    c5.9,11.7,11.4,23.9,16.3,36.5c-19.3,9.3-40.9,18.7-63.7,27.5c-3.1-8.4-6.3-16.7-9.5-25c5.1-2,10.1-3.9,15-5.9    c0.7-0.4,0.8-0.6,1.1-1.4c6.7-28.4,8.6-40.4,10.6-64c-1.2-0.5-2.1-0.9-3.2-1.7c5.1,3.5,10.7,3,11.7-2.4c1.4-7.7-8.5-18-15.3-16.9    c0.1,0,0.1,0,0.2,0c-3.2-4.4-6.4-8.6-9.7-12.6c21.6-10.3,39.5-20.6,51-29.4c0.3-0.2,0.6-0.5,0.9-0.7c4.3-3.4,7.7-6.6,9.9-9.5    c3.5-4.6,3.8-8,1.4-10.4c5,2.7,9.9,5.6,14.6,8.8c2.5,2.1,5.2,4,7.8,5.9c1.7,2.5,1,6-2.4,10.5c-2.6,3.4-6.7,7.3-12,11.4    c-11.9,9.2-30,19.7-51.8,30.3c0.1,0.1,0.2,0.2,0.3,0.3c1.8,1.8,2.7,3.4,3.2,4c22.1-10.8,40.5-21.5,52.5-30.8    c0.3-0.3,0.7-0.5,1-0.8c4.9-3.9,8.7-7.5,11.2-10.8c3.4-4.6,4.2-8.1,2.4-10.7c2.5,2,4.8,4.1,7.4,5.9l-0.6-0.5    c-5.5-4.6-13-10.5-18.8-14.7c-0.5-0.4-0.7-0.4-0.9-0.6c-4.7-3.2-9.6-6.1-14.5-8.8c-0.4-0.3-0.8-0.6-1.3-0.8l-5.3-2.7    c0.6,0.3,1.1,0.6,1.6,1c-1.2-0.6-2.4-1.2-3.6-1.8c-1.4-1-5.7-2.9-10.1-4.7c-0.4-0.2-0.7-0.4-1.2-0.5l-5.6-2.1    c0.6,0.2,1.1,0.5,1.6,0.7c-3.9-1.4-7.2-2.4-8.1-2.3c0,0,0,0,0.1,0c-1.3-0.4-2.6-0.8-3.9-1.1c-1.2-0.7-5.6-1.9-10.4-2.9    c-0.9-0.5-2.1-0.9-3.6-1.2c-1.2-0.2-2.6-0.5-3.9-0.7c0.7,0.2,1.4,0.5,2,0.8c-4-0.7-7.5-1.2-8.7-1c0,0,0,0,0,0    c-29.1-3.8-59.7-0.5-89.2,11.1l0,0c29.7-11.5,60.4-14.7,89.6-10.8c0,0,0,0,0,0c0.8,0.2,3.5,0.8,13.3,2.9    c10.8,2.3,10.9,2.3,11.3,2.2c0,0,0,0-0.1,0l0,0c1.4,0.4,2.8,0.8,4.2,1.2c-0.3-0.1-0.4-0.2-0.5-0.3c0.4,0.2,0.6,0.3,13.3,5.3    c9.4,3.7,10.2,4,10.4,3.9c0,0,0,0,0,0l0,0c1.3,0.6,2.6,1.2,3.8,1.9c2.4,2.3,2,5.6-1.3,10.1c-2.3,3-5.8,6.4-10.5,9.9    c-11.2,8.6-28.6,18.6-49.6,28.6c-0.8-1-1.7-2-2.5-2.9c0,0,0,0,0,0c0.5-0.5,0.8-1.2,0.9-2.1c0.7-6.8-11.8-15.5-16.8-13.3    c-2.7,1.3-1.8,5.2,0.6,8.8c-0.1-0.1-0.1-0.2-0.2-0.3c-7.4,3.4-15.2,6.7-23.2,10c-2.6-3.4-6.3-5.6-9.6-4.6    c-1.6,0.8-2.5,2.3-2.9,4.1c0.1-0.4,0.2-0.8,0.3-1.3c-11.3-7.4-16.5-11.8-16.5-11.8c-6.6-5.7-6.6-5.7-7.2-5.7    c-5.5,1.9-11,3.8-16.6,5.5c-11.3,3.5-21.5,6.2-30.4,8.2c1.3-3.5,1.9-6.4,1.1-7c0,0,0,0,0,0c9.9-18.1,23-32.8,38.8-42.6l0.1-0.1    c0,0,0,0-0.1,0.1c-16.3,9.9-29.8,24.7-40.2,42.9c0.1,0,0.3-0.2,0.2-0.1c0.1,0,0.1,0,0.1-0.1c-1.7,0.8-4.6,4.3-6.9,8.1    c0.1-0.1,0.1-0.2,0.2-0.3c-9.3,1.5-16.5,1.9-20.9,1c0.9-1.1,1.8-2.2,2.7-3.3c-0.2,0.1-0.2,0.1-0.4,0.1c0,0,0,0,0-0.1    c1.7,0.4,16.9-16.7,18.2-18.2c0,0,0,0,0,0c13.8-12.3,29.6-22.6,47.1-30.2l0,0c-17.7,7.6-33.6,17.8-47.5,30.1    c0.1,0,0.2-0.1,0.3-0.1c0,0,0,0,0,0c-1.1,0.4-4.9,3.4-8.7,7c0.1-0.1,0.3-0.3,0.4-0.4c-3-1-3.6-3-1.3-6.1c1.7-2,1.8-2.1,4.6-4.5    l-5.4,4.5c-1.5,1.3-1.8,1.6-3.5,3.6c-2.5,3.3-1.8,5.5,1.4,6.6c0.1-0.1,0.1-0.1,0.2-0.2c-3.4,3.6-5.8,6.8-5.8,7.8c0,0,0-0.1,0-0.1    l0-0.1c-0.9,1.1-1.9,2.2-2.8,3.3c-4.7-1.1-5.9-3.8-2.7-8c-1.3,1.3-2.5,2.7-3.7,4c-3.4,4.5-2.1,7.3,2.8,8.5    c-4.4,5.8-8.6,11.8-12.2,18c0.1,0,0.1,0,0.2-0.1c-1.3,0.5-4.1,4.1-6.7,8.6c0.1-0.1,0.1-0.2,0.2-0.4c-4.8-1.6-6.1-4.6-3.2-9.2    l-3.1,5.2c-2.6,4.5-1.2,7.5,3.6,9.1c0.1-0.2,0.1-0.3,0.2-0.5c-3,6.2-3.7,10.7-2.1,10.1c2.8-1.1,12.2-19.8,11.6-22.6c0,0,0,0,0,0    c3.7-6.3,7.8-12.3,12.2-18.1c4.7,0.9,12.3,0.5,22.2-1.1c0.1-0.1,0.1-0.3,0.2-0.4c-2,4.5-2,7.4-0.6,7.8c-0.1,0-0.2-0.1-0.3-0.1    c-4.1,10.2-7.4,21-9.8,32.4c0.5-0.3,0.8-0.4,1.2-0.5c-3.2,0.7-6.8,7.4-7.7,14.1c-1,7.6,2,12.2,5.9,9.2c4-3.2,6.2-13.1,5.3-18.9    c0,0.1,0,0.2,0,0.3c5.8-10.1,7.8-13.4,15.1-25.7c9.3-2.2,19.5-5,30.5-8.4c2.9-0.9,5.7-1.8,8.6-2.7c1.2,1.2,2.9,2.9,4.1,4.1    c-0.4,2.2-0.3,4.6,0.3,6.8c2.1,7.7,9.3,9.9,12.5,3.9c3.4-6.5-1.5-18.8-8.5-17c-1.3,0.5-2.2,1.5-3,2.7c0,0,0,0,0-0.1    c-5-4.9-5-4.9-5.6-4.8c-2.9,1-5.8,1.9-8.8,2.8c-10.7,3.3-20.7,6.1-29.8,8.2c-0.5,0.3-0.5,0.3-0.8,0.8    c-7.1,11.5-7.5,12.1-15.8,26.1c-0.4-0.7-1-1.1-1.6-1.2c0.1,0,0.2,0,0.3,0.1c2.3-11.4,5.4-22.2,9.3-32.3c2-1.2,4.3-4.6,6.1-8.3    c9.3-1.9,20.1-4.7,32.1-8.4c5.8-1.8,11.5-3.7,17.2-5.7c7.2,6.7,15.4,12.4,22.7,17.4c0-0.1,0-0.3,0-0.4c0,2.1,0.7,4.4,1.7,6.4    c4,7.7,11.6,8.4,13.6,2.9c0.7-2.1,0.5-4.5-0.4-6.8c8.4-3.4,16.4-6.9,24.1-10.4c0,0,0,0-0.1-0.1c3.5,3.3,7.2,4.8,9.9,4.5    c0.8,1,1.6,2,2.4,3c-25.8,12.1-56.7,24.2-87.8,33.8c-1.9,0.6-3.8,1.2-6.1,2c-0.2,0.2-0.4,0.6-0.6,0.8c-1.2,2.7-7.2,15.7-12,26.2    c-20.5,5.6-38.3,9.3-52.6,11.1c1.3-11.6,3.6-22.8,6.5-33.6c0,0,0,0,0,0c5-2.8,11.5-21.9,7.6-22.7c-0.1,0-0.2,0-0.4,0    c-2.8,0.7-6.8,7.2-8.7,12.7c-1.8,5.2-1.8,9.2-0.3,10.1c-3.2,10.8-5.5,22.1-7,33.7c-4.5,0.5-8.5,0.8-12.2,0.9    c-2.3-19-1.3-24.6,1.4-39.5c-1,1.7-1.6,2.5-2.4,3.6c-1.9,10.9-3.9,22.2-0.8,40.8c0.1,0.6,0.3,0.7,0.5,0.8c3.8-0.1,8.1-0.4,12.9-1    c-0.5,5.5-0.9,11.1-1,16.7c0.3-0.2,0.5-0.3,0.8-0.4c-2.4,0.8-4.4,5-4.9,10.1c0-0.1,0-0.2,0-0.2c-8.1,0.8-14.9,0.9-20.2,0.3    c0,0.1,0,0.2,0,0.4c0,2.7-0.1,4.8-0.2,5.5c4.4,0.5,9.7,0.5,15.9,0c0.5,23.5,4.8,47.3,13.2,70.3c4,10.9,8.9,21.2,14.3,30.7    c-6.6,0.4-12.3,0.4-16.9,0c1.4,2.2,2.3,3.7,2.9,4.9c4.7,0.5,10.3,0.5,16.9,0.1c7.2,11.7,15.3,22.1,24.8,31.1c0,0,0.1,0,0.1,0    c-2.1,0.5-0.9,3.4,2.5,6.9c-0.1-0.1-0.1-0.1-0.2-0.2c-9.8,0.4-16.9-0.5-21-2.7c-12.8-10.7-24.2-23.4-33.6-37.9    c1.1,0.6,2.5,1.1,4.1,1.6c0,0-0.1-0.1-0.1-0.1c4.1,5.8,8.6,9.9,9.1,8c0.7-2.7-10.3-20.5-14.3-21.8c0.2,0,0.4,0.1,0.8,0.4    c-3.6-6.8-6.7-14-9.5-21.4c-7.3-19.8-11.1-40.1-11.8-60.2c0,0-0.1,0-0.1,0c0.2-0.1,0.3-0.2,0.5-0.3c2.7-2.8,3.9-24.4,0.1-25.8    c-1.8,0-3.2,4.9-3.7,10.2c0-0.2,0-0.4,0.1-0.7c-0.8-0.2-1.5-0.5-2.2-0.7c0,0.1,0,0.3,0,0.4l0,0c-0.1,2.6-0.2,4.7-0.2,5.4    c0.7,0.3,1.4,0.5,2.1,0.7c0-0.2,0-0.3,0-0.5c0,5.3,1,9.6,2.2,11c0,0,0,0,0,0c0.5,20.2,4.3,40.6,11.6,60.3    c2.8,7.5,5.9,14.6,9.5,21.4c0.1,0,0.2-0.2,0.3-0.1c0.1,0,0.1,0,0.2,0c-1.6,0.1-0.2,4.5,2.9,9.8c-0.2-0.3-0.4-0.6-0.5-0.9    c-1.5-0.4-2.9-0.9-4-1.5c-5.8-9.6-10.8-19.9-14.8-30.8c-7.2-19.5-10.8-39.6-11.4-59.4c0,0,0,0,0,0c0.1,0,0.1,0,0.2-0.1    c2-1.9,2.8-24.2,1-26c0.1,0.1,0.2,0.2,0.3,0.5c1.3-10.8,3.6-21.4,6.6-31.7c0,0-0.1,0-0.1,0c1.2-0.5,3.7-6.2,5.6-11.4    c1.3-3.5,4.2-11.7,3.3-12.8c-0.9-0.2-3.3,3.6-5.4,8.6c0-0.1,0.1-0.2,0.1-0.3c-1.8-1.6-2.2-3.9-1-6.7l-2.2,5.5    c-1.1,2.7-0.7,4.9,1.1,6.5c0.1-0.2,0.1-0.3,0.2-0.5c-1.8,5.1-2.6,9.3-2.3,10.6c0,0,0-0.1,0-0.1c-3.2,10.3-5.4,20.9-6.8,31.7    c0,0,0.1-0.1,0.1,0c0.1-0.1,0.2-0.1,0.4,0c-1.3-0.3-2.5,6-2.8,12c0.1-1.5,0.2-2.7,0.3-3.7c-1.2-1.1-1.9-2.4-2-3.8    c0.3-3.1,0.5-6.2,0.8-8.8c-0.2,1.8-0.5,4.6-0.8,8c0,0,0,0,0,0c0,0.1,0,0.3,0,0.4c0,0,0,0.1,0,0.1c-0.1,1.5-0.2,3.2-0.3,4.9    c0,0.1,0,0.2,0,0.3c0,0,0,0,0,0c-0.1,1.1-0.1,2.2-0.1,3.4c0-0.9,0.1-2,0.2-3c0.1,1.6,0.8,3,2,4.2c0-0.1,0-0.2,0-0.3    c-0.2,5.7,0.4,10.4,1.2,11.9c0,0-0.1-0.1-0.1-0.1C67,273,70.6,293,77.8,312.6c4,10.9,9,21.2,14.9,30.8c-1.1-0.7-2-1.6-2.6-2.5    l3.3,5.2c0.6,0.9,1.4,1.7,2.5,2.3c9.5,14.5,20.9,27.2,33.7,38c-0.3-0.2-0.6-0.4-0.9-0.6l4.6,3.7c0.2,0.2,0.4,0.3,0.7,0.5    c4,3.2,8.2,6.1,12.5,8.9l3.6,2.3l5.1,3l4.1,2.3c-1.3-0.7-2.6-1.4-3.9-2.1c5,2.7,15.1,3.1,29.2,1.5c-0.1-0.1-0.2-0.1-0.3-0.2    c6.4,3.8,13.8,5.6,13.5,2.9c-0.4-3.2-12.9-12.1-19.1-11.5c-2.9,0.6-1.2,3.5,2.2,6.3c-0.1-0.1-0.3-0.2-0.4-0.3    c-14.5,1.7-24.9,1.2-30-1.5c-5.5-3.4-10.8-7.1-15.8-11c4,2.1,11,3,20.6,2.6c-0.1-0.1-0.2-0.1-0.2-0.2c6.1,4.7,13,7.3,13,4.6    c0-3.4-11.6-13.4-17.5-14.6c0,0,0.1,0,0.1,0c-8.9-9.2-17-19.7-24.1-31.3c15-1.2,34.4-4.7,57.1-10.3c3.2,4.2,7.7,6.3,11.3,6    c-0.3,0-0.6,0-0.9,0c2.5,4.6,5,9,7.7,13.3c-7.5,1.9-14.7,3.7-21.4,5.1c-0.5,0.2-0.6,0.3-0.7,0.9c-0.5,16.5,0.3,20.1,3.5,31.2    c0.2,0.1,0.4,0.1,0.5,0.2c1.7,0.6,3.2,1.4,3.9,1.7c-3.8-12.1-3.8-16.9-3.5-29.9c6.5-1.4,13.3-3.1,20.5-4.9    c5.6,8.7,11.4,16.6,17.4,23.5c0.5-0.3,1-0.5,1.5-0.6c-4.4,1.2-4.2,5.8,0.3,9.7c6,5.1,16,6.2,15.7,0.3c-0.3-4.8-8.3-10.9-14.7-10.3    c0.2,0,0.4,0,0.6,0c-5.8-7-11.5-14.9-17-23.6c9.2-2.4,18.9-5.2,29-8.4c14.7-4.6,29.4-9.6,43.7-14.8c23,12.7,23,12.7,23.8,12.6    c36.3-14.3,68.9-30,91-44c-0.1,1.3-0.3,2.5-0.5,3.8c0,0,0.1-0.1,0.1-0.1c-2.2,2.3-4.1,6.8-5.2,11.1c0-0.1,0.1-0.3,0.1-0.4    c-6.5,4-13.9,8-21.9,12.2c0.1,1.5,0,2.8-0.4,4.5c7.8-4,15-8,21.4-11.9c0,0,0-0.1,0-0.1c-0.4,3.5,0,6.1,1.6,5.9c0,0,0,0,0,0l-0.1,0    c-0.3,1.2-0.7,2.3-1,3.5c0.4-0.4,0.7-0.6,1-0.8c-2.3,1.5-5,6.3-7,10.8c0.1-0.1,0.1-0.3,0.2-0.4c-3.8,2.3-8,4.7-12.4,7.1    c-0.4,0.3-0.5,0.4-1,1c-9.8,15.2-16.9,23.8-25.9,34.7c-0.1-0.1-0.1-0.1-0.2-0.2c-0.5-0.3-1.3,0.1-1.7,0.2    c-2.8,1.4-5.2,4.7-6.5,6.9c0.1-0.2,0.2-0.3,0.3-0.5c-12.5,5.7-26.7,11.4-41.4,16.4c-0.5,0.3-0.6,0.6-0.3,1c3.6,3.7,6.7,5.5,9,5.1    c0.5-0.1,0.6-0.2,0.9-0.3c-1.9,0.2-4.4-1.4-7.4-4.8c13.4-4.6,26.4-9.8,37.9-15.1c0,0,0-0.1,0-0.1c-0.5,1.2-1,2.9,0.3,2.5    c0,0-0.1,0-0.1,0c-3.3,4.3-7.2,7.6-11.7,9.8c-0.1,0.1-0.3,0.1-0.4,0.2l0.9-0.4c0.1,0,0.2-0.1,0.3-0.1c4.7-2.3,8.9-5.7,12.4-10.1    c3-1.8,7.3-6.8,7.8-9.4c11.9-13.4,15.1-17.6,25.9-33.2c4.1-2.2,8-4.5,11.6-6.6c0-0.1,0-0.1,0.1-0.2c-1,3-1.4,5.7-0.2,5.4l-0.1,0    c-9,18.1-21.9,33.1-38.4,43.5l1.7-1.1c16.3-10.6,29.2-25.5,38.1-43.2c2.1-1.7,4.6-5.5,6.4-9.3c6.8-4.6,12-8.8,15.3-12.6    c-1,1.9-2,3.7-2.7,5.7c-1.6,2.7-3.2,5.4-5,8l0.8-1.1c1.5-2.3,3-4.7,4.4-7.1c1.2-1.4,5-8.7,7.8-14.5l0.2-0.4c0,0.1-0.1,0.2-0.1,0.2    c1.9-3.9,3.2-7.2,3.1-7.6c0,0,0,0,0,0c0,0,0,0,0,0c0.4-1,0.8-2,1.2-3c1-1.8,2.7-6.2,4.2-10.7c0.4-0.7,0.6-1.3,0.8-1.9l1.7-5.7    c-0.2,0.7-0.5,1.4-0.9,2.2c1-3.5,1.6-6.5,1.3-7.3c-0.1,0-0.2,0.1-0.3,0.2c-0.3,0.5-1.2,1.9-4.1,11.7c-3.9,4.6-10.2,9.7-18.4,15.2    c0.5-3.4,0.1-6-1.6-6.2c-0.1,0-0.2,0-0.3,0c0,0,0,0,0.1,0c0.2-1.3,0.3-2.5,0.5-3.8c11.4-7.4,19.8-14.2,24.2-20    c1.8-2.3,2.8-4.4,3.2-6.2l0.9-4.9l0.2-0.9c-0.3,1.9-1.4,4.1-3.3,6.6c-4.5,5.9-13,12.8-24.6,20.3c0.4-5.1,0.7-10.4,0.6-15.7    c2.2-2.7,3.3-6.6,3.5-10.4c10.5-7.1,18.3-13.6,22.6-19.3c2.4-3.2,3.6-5.9,3.6-8.2l0,0c0,0,0,0,0,0l0,0l0-1.2    C428.7,246.4,428.7,244.6,428.7,243.2z M312.5,191.1c0-0.7,0.3-1.1,0.7-1.3C312.9,190.1,312.6,190.4,312.5,191.1z M313.5,189.7    c0.2-0.1,0.5-0.1,0.7,0C314,189.6,313.7,189.6,313.5,189.7z M314.2,189.6c0.1,0,0.2,0,0.3,0c0.1,0.1,0.3,0.1,0.4,0.2    C314.7,189.7,314.5,189.7,314.2,189.6z M315.9,190.7c0.2,0.3,0.4,0.6,0.5,0.7C316.2,191.2,316.1,190.9,315.9,190.7z M343.1,124.5    c0.5,0.6,1,1,1,1c0.2,0.2,0.4,0.3,0.7,0.5C344.1,125.7,343.5,125.1,343.1,124.5z M360,103.2C360,103.3,360,103.3,360,103.2    C360,103.3,360,103.2,360,103.2C360,103.2,360,103.2,360,103.2z M348.8,94.7c-0.2-0.1-0.3-0.2-0.4-0.3    C348.6,94.5,348.7,94.6,348.8,94.7z M298.2,71.4c0-0.1-0.1-0.1-0.2-0.2C298.2,71.3,298.2,71.3,298.2,71.4    C298.2,71.4,298.2,71.4,298.2,71.4z M301.7,72.3C301.7,72.3,301.7,72.3,301.7,72.3C301.7,72.3,301.7,72.3,301.7,72.3    C301.7,72.3,301.7,72.3,301.7,72.3z M319.6,105.9c0.2,0.1,0.5,0.3,0.8,0.4c-0.7-0.3-1.4-0.8-2-1.3    C319,105.5,319.6,105.9,319.6,105.9z M224.5,387.3c-0.4,0-0.8,0.1-1.2,0.2C223.6,387.5,224,387.4,224.5,387.3z M93.6,243.4    c0-0.3,0-0.8,0.1-1.4C93.7,242.4,93.7,242.8,93.6,243.4z M93.8,241.9c0.1-0.5,0.3-0.9,0.5-1.2c0.1-0.1,0.1-0.1,0.2-0.2    C94.1,241.1,93.9,241.4,93.8,241.9z M94.5,240.5c0.1-0.1,0.2-0.1,0.4,0C94.8,240.5,94.7,240.5,94.5,240.5z M95,240.5    c0.2,0.1,0.5,0.4,0.7,1.1C95.5,241.2,95.3,241,95,240.5z M95.8,242.2c0,0.3,0.1,0.6,0.1,1C95.9,242.8,95.8,242.5,95.8,242.2z     M123.7,346.5c-5.4-9.5-10.2-19.8-14.3-30.8c-8.5-23-12.8-46.9-13.4-70.3c0.7-0.1,1.4-0.1,2.1-0.2c0,0,0-0.1,0-0.1    c0.5,5.4,2.6,9.4,4.9,10.3c1.7,19.9,6.1,40.1,13.3,59.6c4,10.9,8.8,21.2,14.2,30.8C128.1,346.1,125.8,346.3,123.7,346.5z     M185,324.2c-5.1,1.7-5.8,7.1-4,12.1c0-0.1-0.1-0.1-0.1-0.2c-18.2,4.5-34.3,7.7-47.8,9.4c-5.3-9.5-10.1-19.8-14.1-30.8    c-7.2-19.5-11.6-39.6-13.6-59.5c0.3-0.2,0.6-0.5,1-0.8c2-2.2,3-6.4,3.1-10.7c0,0,0,0.1,0,0.1c5.8-0.8,12.2-2,18.9-3.3    c8.5,11.2,9.3,12,21.9,25.1c0.4-2,0.8-3.2,1.7-4.7c-11.3-11.6-11.7-12.1-22.2-25.7c-0.5-0.6-0.8-0.6-1.2-0.6    c-7,1.4-13.5,2.6-19.4,3.4c0,0.1,0,0.3,0.1,0.4c0.4,2.4,0.4,4.4,0.3,5.2c0.1-6.4-1.7-13-4.8-14.1c0.1-5.6,0.4-11.1,0.9-16.6    c14.7-1.9,33.2-5.7,54.9-11.8c0.2-0.3,0.4-0.6,0.6-0.9c4-8.8,7.9-17.7,11.9-26.5c1.7-0.5,3.4-1,5.2-1.6    c32-9.9,63.7-22.3,90.2-34.8c3.2,4.1,6.4,8.3,9.5,12.7c0.4-0.4,0.8-0.7,1.3-0.9c-4.2,2.2-3.1,9,0.4,14c1.4,2,3.1,3.7,4.8,4.8    c-0.2-0.1-0.4-0.3-0.6-0.5l-0.5-0.4c-1.8,23.2-4.3,36.6-10.4,62.8c-4.6,1.9-9.3,3.7-14.1,5.6c-2.2-5.7-4.4-11.3-6.6-16.8    c1-0.8,1.9-2,2.5-3.5c3.6-8.7-4.6-22.4-14.1-19.5c-6.3,2.9-5.9,11.3-3.7,16.3c2.9,6.3,8.5,9.2,12.9,7.8c-0.5,0.1-0.9,0.3-1.5,0.3    l-0.3,0c2.2,5.6,4.4,11.2,6.5,16.9c-18.5,7.1-37.7,13.7-56.9,19.7c-10.8,3.3-21.1,6.3-30.8,8.9c0,0,0,0,0,0.1    c-2.1-5-6.1-8.9-10.9-8c-5.7,1.8-7,9.9-4.9,16.4c3.1,9.7,12.1,13.1,15.9,6.2c2-3.6,1.9-8.7,0.4-13.1c0.5,1.4,0.8,2.6,1,4.3    c9.8-2.6,20.2-5.6,31-9c19.4-6,38.7-12.7,57.3-19.8c3.1,8.2,6.3,16.6,9.4,25c-5.1,1.9-10.3,3.9-15.5,5.8c0,0.1,0.1,0.2,0.1,0.2    c-2.8-5-7.7-8.5-13.3-6.9c-7.5,3.2-6.9,12.3-4.8,17.2c0.9,2.2,2.2,4,3.7,5.4c-3.1,9.6-3.8,11.8-11.1,34.1c-1,0.3-1.9,0.6-2.9,0.9    c-8.3,2.6-16.3,4.9-23.9,7.3C195.5,326.9,190.3,323.2,185,324.2z M304.1,348.6c-22.5-13.1-23.3-13.1-24.2-13    c-14.8,5.5-29.9,10.6-45.1,15.3c-10.3,3.2-20.1,6-29.4,8.5c-2.6-4.2-5.1-8.7-7.5-13.3c1.2-0.8,2.2-2,2.7-3.8    c0.5-1.7,0.5-3.7,0-5.6c7.7-2.1,15.8-4.5,24.1-7.1c1.2-0.4,2.5-0.8,3.7-1.2c0.8-0.3,1-0.7,1.2-1.2c6.7-20.4,6.7-20.4,11.4-34.7    c4.3,1.5,8.9,0.1,11.1-4.9c1.1-2.6,1.3-5.5,0.7-8.4c0,0,0,0.1,0,0.1c5.2-1.9,10.4-3.8,15.5-5.8c2.1,5.6,4.1,11.2,6.1,16.6    c0.2,0.4,0.3,0.6,0.4,0.8c0,0,0.1-0.1,0.1-0.1c-4.3,3.4-4.9,10.4-2.5,15.7c4.3,9.3,15,10,18.3,1.3c0.9-2.4,1-4.9,0.6-7.3    c9.2-3.3,18.2-7,26.8-10.8c11.7,8,15.3,10.4,25.4,18.1c0.3,0.1,0.7,0.3,1,0.3c9-4.1,17.1-8.2,24.8-12.2c0-0.1,0-0.2-0.1-0.3    c1.7,6.7,6.2,8.6,9.8,3.6c5.7-7.9,3.1-23-3.8-21.9c-0.4,0.1-1,0.3-1.4,0.5c-4.6,2.9-5.6,10-5.1,14.8c-0.1-0.6-0.1-1.2-0.1-1.9    c-7.5,3.9-15.5,7.9-24,11.9c-11.5-8.6-12.7-9.5-25.8-18.4c-0.7-0.4-0.9-0.4-1.6-0.2c-9,3.9-18.2,7.8-27.8,11.5    c-2.4-4.2-6.6-7.1-11-6.3c0,0,0.1,0,0.1,0c-0.1-0.3-0.1-0.4-0.2-0.7c-1.9-5.4-4-10.9-6-16.6c22.8-8.8,44.4-18.2,63.7-27.5    c2.2,5.8,4.1,11.6,5.9,17.3c0.3-0.2,0.5-0.4,0.7-0.6c-4.3,3.1-5.1,11-3,16.9c3.2,8.9,10.9,10.4,14.5,2.9c4.3-8.9-1.4-22-8.6-21    c-1.8-5.7-3.7-11.5-5.9-17.3c4-2,8-4,11.8-5.9c23,17.5,29,23.6,40.4,36.5c-0.3,2.4-0.3,5,0,7.3c0.7,5.8,2.9,8.4,5,7.9    c0,0-0.1,0-0.1,0l-0.1,0c0.1,5.3-0.1,10.5-0.5,15.6C373.7,318.2,340.8,334.1,304.1,348.6z M413.6,317.1c0.1-0.1,0.1-0.2,0.2-0.2    C413.7,317,413.6,317.1,413.6,317.1z M414.4,314.8c0.1-0.1,0.2-0.2,0.3-0.4C414.6,314.6,414.5,314.7,414.4,314.8z M398.1,322.6    c8-5.4,14.1-10.4,17.9-14.9c0,0,0,0,0,0c-1.8,6.2-1.7,6.7-1.7,7c0,0,0.1,0,0.1,0.1c0,0,0,0-0.1,0c-0.4,1-0.8,2.1-1.2,3.1    c0.1-0.1,0.1-0.2,0.2-0.3c-0.4,0.8-1.4,2.8-6.5,13.3c0,0,0,0,0,0c0.3-0.6,0.6-1.2,1-2.2c-3.4,4-8.9,8.4-16,13.2    c1-2.9,1.2-5.2,0.2-5.6c-0.2-0.1-0.4-0.1-0.6,0c0,0,0.1,0,0.1,0c0.4-1.1,0.7-2.3,1.1-3.5C394.9,330.6,396.9,326.6,398.1,322.6z" style="fill: #0de809; fill-opacity: 1;"></path><path class="st1" d="M272.5,410.6c1.1-0.6,1.8-1.6,1.6-3.1c-0.1-0.7-0.3-1.3-0.7-2c0,0,0.1,0.1,0.1,0.1    c22.9-7.2,45.6-15.9,65.4-24.8c0.4-0.2,0.6-0.4,0.9-0.9c9.2-13.6,11.8-18.3,18-29.7c-0.3-0.2-0.4-0.4-0.6-0.6    c1.4,1.7,3.7,1.6,6.1-0.8c6.2-6.2,6.7-19.2,0.8-18.7c-0.6,0-1.2,0.3-1.7,0.5c-4.9,2.9-6.7,10.1-6.7,13.9c0,1.5,0.3,2.8,0.7,3.8    l0,0c-6.8,12.5-12.6,21.5-17.7,29.5c-20.5,9.2-43.8,18.1-67.2,25.6c0.1,0.1,0.2,0.1,0.2,0.2c-2.3-2-6.1-3.4-9.5-2.9    c0.1,0,0.3,0,0.4-0.1c-5-5.6-10.1-12.4-15.2-20.1c0.8-0.5,1.4-1.1,1.9-1.8c15,6.1,26.3,10.5,26.4,10.5c0.6,0.2,0.9,0.2,1.4,0.1    c17-5.7,33.7-12.1,49.5-18.8c0.2-0.2,0.5-0.5,0.7-0.8c1.1-2,2.5-4.6,3.6-6.6c-0.2-0.1-0.3-0.2-0.5-0.2c2.6,1.2,5.9-0.1,8.4-3.9    c4.4-7,1.8-16-4.4-15c-0.5,0.1-1.1,0.3-1.5,0.5c-5.7,2.9-6.7,9.6-6,13.2c0.3,1.5,0.9,2.7,1.6,3.6c0,0,0,0,0,0l-3.1,6    c-15.6,6.6-32.3,12.9-49.3,18.6c-11.4-4.7-11.4-4.7-25.7-10.6c0,0.2,0,0.4-0.1,0.6c0.7-6.4-7.1-13.8-15.2-11.9    c-6.4,2.3-5.3,8.5-2.4,12.2c3,3.9,7.5,5.7,11.3,5.4c5.3,7.7,10.6,14.3,15.8,19.9c0.2-0.1,0.5-0.2,0.7-0.4    c-2.8,1.2-3.3,3.6-1.4,5.9c0,0-0.1-0.1-0.1-0.1c-17.8,5.1-33.3,8.6-45.8,10.4c-5.3-2.4-10.6-5.1-15.8-8.2c-0.5,0.2-1,0.3-1.9,0.3    l-0.2,0c5.2,3.1,10.5,5.9,15.9,8.2c-12.1,1.6-21.1,1.6-26.2-0.2l5.7,1.9c4.9,1.6,13.4,1.6,24.8,0c1.1,0.4,2.2,0.8,3.3,1.2    c0.1-0.1,0.3-0.2,0.6-0.2c-1.3,0.2-0.7,0.8-0.2,1.2c0.8,0.6,2.4,1.2,4.4,1.8c-0.1,0-0.1,0-0.2-0.1c-7.9,0.9-14.1,0.9-18.2,0l6,1.3    c3.9,0.7,9.6,0.7,16.7-0.2c-0.3-0.1-0.5-0.1-0.8-0.2c4.2,0.9,9,1.5,11.2,1.4c-0.1,0-0.2,0-0.2,0l-0.1,0c9.3,1.6,18.7,2,28,1.2    l1.6-0.2c-5.3,0.3-12.4,0.8-17.6,0.2c-3.2-0.4-7.4-1.2-10.6-1.3c0,0-0.1,0-0.1,0c0.1,0,0.1-0.1,0.2-0.1c-0.1-0.5-1.9-1.2-4.4-2    c4.3-0.7,9-1.6,14-2.8c11.2,4,22.5,5.3,33.4,3.6l1.5-0.3c-11.2,1.9-22.9,0.3-34.7-4.4c-1.5-0.5-2.1-0.4-2.6-0.4    c-5.7,1.3-11,2.4-15.8,3.1c-4.6-1.2-9.6-2.1-11.4-1.9c0.3,0,0.6-0.1,1.1,0c-1.1-0.4-2.1-0.8-3.2-1.2c12-1.7,27-5.1,44.1-10.1    c0,0-0.1,0-0.1-0.1c3.4,2.1,8.1,2.7,10.7,1.5c-0.6,0.3-1.3,0.5-2.1,0.6c10,8.1,19.4,11.5,27.5,9.5c0.1,0,0.3-0.1,0.4-0.1l0.1,0    c0.3-0.1,0.6-0.2,0.9-0.3c-0.2,0-0.3,0.1-0.5,0.1C290.9,422.4,282,418.8,272.5,410.6z M356.7,349c0-0.1-0.1-0.1-0.1-0.2l-0.1-0.2    C356.6,348.7,356.7,348.8,356.7,349z" style="fill: #0de809; fill-opacity: 1;"></path><path class="st1" d="M419.2,210.2c-3.3,4.4-8.6,9.3-15.6,14.5c0,0.1,0.1,0.2,0.1,0.3c0.9,2.5,1.2,4.6,1.4,5.4    c6.9-5.2,12.2-10.1,15.5-14.5c2.3-3.1,3.6-5.8,3.8-8.1c0-0.2,0-0.4,0-0.6c0-0.4-0.3-1.5-0.5-2.7c0.3,1.1,0.5,2.2,0.5,2.7    c0-0.6,0-1.1-0.2-1.6l-1.5-6l0.2,1.8C423,204,421.7,206.9,419.2,210.2z M423.4,202.6c-0.1-0.5-0.3-0.9-0.4-1.1    C423.1,201.6,423.3,202.1,423.4,202.6z" style="fill: #0de809; fill-opacity: 1;"></path><path class="st1" d="M109.6,358.7c-0.3,0.3-0.7,0.2-1.5-0.3c1.4,1.9,2.7,3.7,4.2,5.5c0.1-0.1,0.3-0.1,0.5-0.1    c-1.5-0.1,0.4,3.3,3.2,6.6c0.9,1.1,1.9,2.2,3,3.4c5.1,5.4,11.1,9.8,11.4,8.5c0.4-1.7-11.9-15.7-16.6-18.2c0,0,0,0,0.1,0    C112.4,362.4,111,360.5,109.6,358.7z" style="fill: #0de809; fill-opacity: 1;"></path></svg></g> <g transform="rotate(0 334.3550934803752 302.2461246256961)"><svg y="298.4811245207919" viewBox="0.5299999713897705 1.6100000143051147 301.2900085449219 7.53000020980835" x="183.7100892079143" height="7.53000020980835" width="301.2900085449219" style="overflow: visible;"><g fill="#03c200" fill-opacity="1" style=""><path d="M1.50 7.47L0.53 7.47L0.53 2.10L1.50 2.10L1.50 7.47ZM7.15 7.47L6.20 7.47L6.20 3.51L6.99 3.51L7.06 3.93L7.10 3.93Q7.33 3.70 7.64 3.58Q7.94 3.45 8.29 3.45L8.29 3.45Q8.68 3.45 8.98 3.60Q9.28 3.75 9.45 4.08Q9.62 4.41 9.62 4.96L9.62 4.96L9.62 7.47L8.66 7.47L8.66 5.01Q8.66 4.60 8.49 4.44Q8.31 4.28 8.01 4.28L8.01 4.28Q7.86 4.28 7.71 4.32Q7.55 4.36 7.41 4.45Q7.26 4.53 7.15 4.68L7.15 4.68L7.15 7.47ZM15.18 7.47L14.22 7.47L14.22 3.51L15.01 3.51L15.08 3.93L15.13 3.93Q15.35 3.70 15.66 3.58Q15.96 3.45 16.32 3.45L16.32 3.45Q16.70 3.45 17.00 3.60Q17.30 3.75 17.47 4.08Q17.64 4.41 17.64 4.96L17.64 4.96L17.64 7.47L16.69 7.47L16.69 5.01Q16.69 4.60 16.51 4.44Q16.34 4.28 16.03 4.28L16.03 4.28Q15.89 4.28 15.73 4.32Q15.58 4.36 15.43 4.45Q15.29 4.53 15.18 4.68L15.18 4.68L15.18 7.47ZM23.90 7.55L23.90 7.55Q23.34 7.55 22.93 7.32Q22.51 7.10 22.28 6.65Q22.06 6.20 22.06 5.50L22.06 5.50Q22.06 4.80 22.28 4.35Q22.50 3.90 22.91 3.67Q23.33 3.45 23.90 3.45L23.90 3.45Q24.47 3.45 24.89 3.67Q25.30 3.90 25.52 4.35Q25.74 4.80 25.74 5.50L25.74 5.50Q25.74 6.19 25.52 6.65Q25.29 7.10 24.88 7.32Q24.46 7.55 23.90 7.55ZM23.90 6.81L23.90 6.81Q24.18 6.81 24.37 6.69Q24.57 6.57 24.67 6.29Q24.78 6.00 24.78 5.51L24.78 5.51Q24.78 5.00 24.67 4.71Q24.57 4.43 24.37 4.31Q24.17 4.19 23.90 4.19L23.90 4.19Q23.63 4.19 23.43 4.31Q23.23 4.43 23.12 4.71Q23.02 4.99 23.02 5.49L23.02 5.49Q23.02 6.00 23.12 6.28Q23.23 6.57 23.43 6.69Q23.63 6.81 23.90 6.81ZM32.28 7.47L31.08 7.47L29.65 3.51L30.65 3.51L31.75 6.73L31.67 6.73L32.77 3.51L33.71 3.51L32.28 7.47ZM38.79 7.54L38.79 7.54Q38.20 7.54 37.87 7.23Q37.54 6.93 37.54 6.42L37.54 6.42Q37.54 5.88 37.91 5.57Q38.28 5.26 39.11 5.20L39.11 5.20L40.02 5.11L40.12 5.67L39.20 5.75Q38.82 5.79 38.65 5.93Q38.48 6.08 38.48 6.33L38.48 6.33Q38.48 6.59 38.64 6.73Q38.79 6.86 39.09 6.86L39.09 6.86Q39.28 6.86 39.48 6.79Q39.68 6.71 39.84 6.53L39.84 6.53L39.84 4.98Q39.84 4.68 39.75 4.50Q39.65 4.33 39.44 4.26Q39.23 4.19 38.90 4.19L38.90 4.19Q38.68 4.19 38.39 4.23Q38.10 4.27 37.83 4.35L37.83 4.35L37.83 3.62Q38.11 3.54 38.44 3.50Q38.77 3.45 39.06 3.45L39.06 3.45Q39.65 3.45 40.03 3.60Q40.41 3.75 40.59 4.09Q40.78 4.44 40.78 5.03L40.78 5.03L40.78 7.47L39.99 7.47L39.92 7.06L39.87 7.06Q39.69 7.31 39.41 7.42Q39.12 7.54 38.79 7.54ZM47.06 7.55L47.06 7.55Q46.38 7.55 46.01 7.20Q45.64 6.86 45.64 6.12L45.64 6.12L45.64 3.51L45.81 2.10L46.60 2.10L46.60 5.97Q46.60 6.41 46.77 6.58Q46.94 6.75 47.30 6.75L47.30 6.75Q47.41 6.75 47.51 6.74Q47.62 6.73 47.74 6.70L47.74 6.70L47.74 7.47Q47.59 7.50 47.41 7.52Q47.23 7.55 47.06 7.55ZM47.71 4.27L44.97 4.27L44.97 3.51L47.71 3.51L47.71 4.27ZM53.00 7.47L52.05 7.47L52.05 3.51L53.00 3.51L53.00 7.47ZM52.52 2.84L52.52 2.84Q52.22 2.84 52.07 2.70Q51.92 2.56 51.92 2.32L51.92 2.32Q51.92 2.07 52.07 1.94Q52.22 1.80 52.52 1.80L52.52 1.80Q52.83 1.80 52.98 1.94Q53.13 2.07 53.13 2.32L53.13 2.32Q53.13 2.56 52.98 2.70Q52.83 2.84 52.52 2.84ZM59.82 7.47L58.62 7.47L57.19 3.51L58.19 3.51L59.29 6.73L59.21 6.73L60.31 3.51L61.25 3.51L59.82 7.47ZM67.27 7.55L67.27 7.55Q66.57 7.55 66.11 7.33Q65.65 7.12 65.43 6.67Q65.20 6.21 65.20 5.49L65.20 5.49Q65.20 4.82 65.41 4.37Q65.62 3.91 66.01 3.68Q66.40 3.45 66.96 3.45L66.96 3.45Q67.49 3.45 67.86 3.68Q68.23 3.91 68.42 4.37Q68.61 4.84 68.61 5.52L68.61 5.52L68.61 5.78L65.74 5.78L65.74 5.21L67.88 5.21L67.71 5.29Q67.71 4.84 67.63 4.57Q67.54 4.31 67.37 4.19Q67.20 4.08 66.95 4.08L66.95 4.08Q66.70 4.08 66.52 4.19Q66.34 4.30 66.25 4.57Q66.16 4.83 66.16 5.28L66.16 5.28L66.16 5.65Q66.16 6.08 66.28 6.34Q66.40 6.59 66.67 6.70Q66.94 6.81 67.40 6.81L67.40 6.81Q67.63 6.81 67.88 6.78Q68.13 6.74 68.39 6.67L68.39 6.67L68.39 7.40Q68.09 7.48 67.82 7.51Q67.54 7.55 67.27 7.55ZM79.82 7.54L79.82 7.54Q79.45 7.54 79.08 7.48Q78.71 7.43 78.38 7.32L78.38 7.32L78.38 6.52Q78.61 6.59 78.86 6.65Q79.11 6.70 79.35 6.72Q79.60 6.75 79.82 6.75L79.82 6.75Q80.41 6.75 80.66 6.55Q80.92 6.36 80.92 6.00L80.92 6.00Q80.92 5.69 80.73 5.52Q80.54 5.35 80.04 5.23L80.04 5.23L79.68 5.13Q78.98 4.96 78.63 4.59Q78.27 4.22 78.27 3.62L78.27 3.62Q78.27 2.88 78.80 2.46Q79.33 2.03 80.39 2.03L80.39 2.03Q80.74 2.03 81.06 2.08Q81.38 2.12 81.63 2.19L81.63 2.19L81.63 2.99Q81.37 2.91 81.06 2.87Q80.75 2.83 80.44 2.83L80.44 2.83Q80.00 2.83 79.74 2.92Q79.48 3.01 79.36 3.17Q79.24 3.34 79.24 3.57L79.24 3.57Q79.24 3.86 79.41 4.02Q79.59 4.19 80.04 4.31L80.04 4.31L80.40 4.40Q80.91 4.53 81.24 4.73Q81.57 4.94 81.73 5.23Q81.89 5.53 81.89 5.93L81.89 5.93Q81.89 6.44 81.65 6.80Q81.40 7.16 80.94 7.35Q80.47 7.54 79.82 7.54ZM88.03 7.55L88.03 7.55Q87.47 7.55 87.05 7.32Q86.64 7.10 86.41 6.65Q86.19 6.20 86.19 5.50L86.19 5.50Q86.19 4.80 86.41 4.35Q86.63 3.90 87.04 3.67Q87.46 3.45 88.03 3.45L88.03 3.45Q88.60 3.45 89.02 3.67Q89.43 3.90 89.65 4.35Q89.87 4.80 89.87 5.50L89.87 5.50Q89.87 6.19 89.64 6.65Q89.42 7.10 89.01 7.32Q88.59 7.55 88.03 7.55ZM88.03 6.81L88.03 6.81Q88.31 6.81 88.50 6.69Q88.70 6.57 88.80 6.29Q88.91 6.00 88.91 5.51L88.91 5.51Q88.91 5.00 88.80 4.71Q88.70 4.43 88.50 4.31Q88.30 4.19 88.03 4.19L88.03 4.19Q87.75 4.19 87.56 4.31Q87.36 4.43 87.25 4.71Q87.15 4.99 87.15 5.49L87.15 5.49Q87.15 6.00 87.25 6.28Q87.36 6.57 87.56 6.69Q87.75 6.81 88.03 6.81ZM95.27 7.47L94.32 7.47L94.32 1.61L95.27 1.61L95.27 7.47ZM101.21 7.54L101.21 7.54Q100.82 7.54 100.52 7.39Q100.23 7.24 100.05 6.92Q99.88 6.59 99.88 6.04L99.88 6.04L99.88 3.51L100.83 3.51L100.83 5.99Q100.83 6.40 101.01 6.55Q101.19 6.71 101.47 6.71L101.47 6.71Q101.61 6.71 101.77 6.67Q101.92 6.63 102.06 6.54Q102.20 6.45 102.31 6.32L102.31 6.32L102.31 3.51L103.26 3.51L103.26 7.47L102.47 7.47L102.41 7.06L102.37 7.06Q102.13 7.30 101.84 7.42Q101.54 7.54 101.21 7.54ZM109.63 7.55L109.63 7.55Q108.95 7.55 108.58 7.20Q108.22 6.86 108.22 6.12L108.22 6.12L108.22 3.51L108.39 2.10L109.17 2.10L109.17 5.97Q109.17 6.41 109.34 6.58Q109.51 6.75 109.88 6.75L109.88 6.75Q109.98 6.75 110.08 6.74Q110.19 6.73 110.32 6.70L110.32 6.70L110.32 7.47Q110.16 7.50 109.98 7.52Q109.81 7.55 109.63 7.55ZM110.28 4.27L107.54 4.27L107.54 3.51L110.28 3.51L110.28 4.27ZM115.57 7.47L114.62 7.47L114.62 3.51L115.57 3.51L115.57 7.47ZM115.10 2.84L115.10 2.84Q114.79 2.84 114.64 2.70Q114.49 2.56 114.49 2.32L114.49 2.32Q114.49 2.07 114.64 1.94Q114.79 1.80 115.10 1.80L115.10 1.80Q115.41 1.80 115.55 1.94Q115.70 2.07 115.70 2.32L115.70 2.32Q115.70 2.56 115.55 2.70Q115.41 2.84 115.10 2.84ZM121.87 7.55L121.87 7.55Q121.31 7.55 120.90 7.32Q120.48 7.10 120.26 6.65Q120.03 6.20 120.03 5.50L120.03 5.50Q120.03 4.80 120.25 4.35Q120.47 3.90 120.89 3.67Q121.30 3.45 121.87 3.45L121.87 3.45Q122.45 3.45 122.86 3.67Q123.27 3.90 123.49 4.35Q123.71 4.80 123.71 5.50L123.71 5.50Q123.71 6.19 123.49 6.65Q123.26 7.10 122.85 7.32Q122.44 7.55 121.87 7.55ZM121.87 6.81L121.87 6.81Q122.15 6.81 122.35 6.69Q122.54 6.57 122.65 6.29Q122.75 6.00 122.75 5.51L122.75 5.51Q122.75 5.00 122.65 4.71Q122.54 4.43 122.34 4.31Q122.15 4.19 121.87 4.19L121.87 4.19Q121.60 4.19 121.40 4.31Q121.20 4.43 121.10 4.71Q120.99 4.99 120.99 5.49L120.99 5.49Q120.99 6.00 121.10 6.28Q121.20 6.57 121.40 6.69Q121.60 6.81 121.87 6.81ZM129.12 7.47L128.17 7.47L128.17 3.51L128.96 3.51L129.02 3.93L129.07 3.93Q129.30 3.70 129.60 3.58Q129.91 3.45 130.26 3.45L130.26 3.45Q130.64 3.45 130.94 3.60Q131.24 3.75 131.41 4.08Q131.58 4.41 131.58 4.96L131.58 4.96L131.58 7.47L130.63 7.47L130.63 5.01Q130.63 4.60 130.46 4.44Q130.28 4.28 129.98 4.28L129.98 4.28Q129.83 4.28 129.68 4.32Q129.52 4.36 129.38 4.45Q129.23 4.53 129.12 4.68L129.12 4.68L129.12 7.47ZM137.28 7.55L137.28 7.55Q136.95 7.55 136.65 7.50Q136.34 7.46 136.07 7.38L136.07 7.38L136.07 6.66Q136.36 6.75 136.66 6.79Q136.96 6.84 137.27 6.84L137.27 6.84Q137.70 6.84 137.89 6.71Q138.07 6.58 138.07 6.35L138.07 6.35Q138.07 6.16 137.97 6.06Q137.87 5.96 137.63 5.91L137.63 5.91L137.02 5.79Q136.47 5.68 136.22 5.41Q135.98 5.13 135.98 4.68L135.98 4.68Q135.98 4.13 136.41 3.79Q136.84 3.45 137.74 3.45L137.74 3.45Q138.02 3.45 138.27 3.48Q138.53 3.51 138.75 3.58L138.75 3.58L138.75 4.29Q138.52 4.23 138.27 4.19Q138.02 4.16 137.77 4.16L137.77 4.16Q137.42 4.16 137.22 4.23Q137.03 4.29 136.95 4.41Q136.87 4.52 136.87 4.65L136.87 4.65Q136.87 4.82 136.97 4.92Q137.07 5.03 137.31 5.08L137.31 5.08L137.91 5.19Q138.45 5.30 138.71 5.56Q138.97 5.82 138.97 6.31L138.97 6.31Q138.97 6.88 138.53 7.21Q138.09 7.55 137.28 7.55ZM149.80 7.47L148.85 7.47L148.85 3.51L149.80 3.51L149.80 7.47ZM149.33 2.84L149.33 2.84Q149.02 2.84 148.87 2.70Q148.72 2.56 148.72 2.32L148.72 2.32Q148.72 2.07 148.87 1.94Q149.02 1.80 149.33 1.80L149.33 1.80Q149.63 1.80 149.78 1.94Q149.93 2.07 149.93 2.32L149.93 2.32Q149.93 2.56 149.78 2.70Q149.63 2.84 149.33 2.84ZM155.40 7.47L154.45 7.47L154.45 3.51L155.24 3.51L155.30 3.93L155.35 3.93Q155.58 3.70 155.88 3.58Q156.19 3.45 156.54 3.45L156.54 3.45Q156.93 3.45 157.22 3.60Q157.52 3.75 157.69 4.08Q157.86 4.41 157.86 4.96L157.86 4.96L157.86 7.47L156.91 7.47L156.91 5.01Q156.91 4.60 156.74 4.44Q156.56 4.28 156.26 4.28L156.26 4.28Q156.11 4.28 155.96 4.32Q155.80 4.36 155.66 4.45Q155.51 4.53 155.40 4.68L155.40 4.68L155.40 7.47ZM169.65 7.55L169.65 7.55Q168.98 7.55 168.61 7.20Q168.24 6.86 168.24 6.12L168.24 6.12L168.24 3.51L168.41 2.10L169.19 2.10L169.19 5.97Q169.19 6.41 169.36 6.58Q169.53 6.75 169.90 6.75L169.90 6.75Q170.00 6.75 170.11 6.74Q170.21 6.73 170.34 6.70L170.34 6.70L170.34 7.47Q170.19 7.50 170.01 7.52Q169.83 7.55 169.65 7.55ZM170.30 4.27L167.56 4.27L167.56 3.51L170.30 3.51L170.30 4.27ZM175.60 7.47L174.64 7.47L174.64 1.61L175.60 1.61L175.60 3.93L175.64 3.93Q175.86 3.70 176.15 3.57Q176.44 3.45 176.78 3.45L176.78 3.45Q177.14 3.45 177.43 3.60Q177.72 3.75 177.89 4.08Q178.06 4.41 178.06 4.95L178.06 4.95L178.06 7.47L177.10 7.47L177.10 5.01Q177.10 4.60 176.93 4.44Q176.75 4.28 176.45 4.28L176.45 4.28Q176.30 4.28 176.15 4.32Q175.99 4.36 175.85 4.45Q175.70 4.54 175.60 4.68L175.60 4.68L175.60 7.47ZM184.54 7.55L184.54 7.55Q183.84 7.55 183.39 7.33Q182.93 7.12 182.70 6.67Q182.48 6.21 182.48 5.49L182.48 5.49Q182.48 4.82 182.69 4.37Q182.89 3.91 183.29 3.68Q183.68 3.45 184.23 3.45L184.23 3.45Q184.77 3.45 185.13 3.68Q185.50 3.91 185.69 4.37Q185.88 4.84 185.88 5.52L185.88 5.52L185.88 5.78L183.01 5.78L183.01 5.21L185.15 5.21L184.99 5.29Q184.99 4.84 184.90 4.57Q184.81 4.31 184.64 4.19Q184.47 4.08 184.22 4.08L184.22 4.08Q183.97 4.08 183.79 4.19Q183.62 4.30 183.52 4.57Q183.43 4.83 183.43 5.28L183.43 5.28L183.43 5.65Q183.43 6.08 183.55 6.34Q183.67 6.59 183.95 6.70Q184.22 6.81 184.67 6.81L184.67 6.81Q184.90 6.81 185.15 6.78Q185.40 6.74 185.67 6.67L185.67 6.67L185.67 7.40Q185.36 7.48 185.09 7.51Q184.82 7.55 184.54 7.55ZM197.25 7.52L197.25 7.52Q197.03 7.52 196.80 7.51Q196.57 7.51 196.33 7.49Q196.09 7.47 195.85 7.44L195.85 7.44L195.85 2.21Q196.09 2.16 196.36 2.12Q196.63 2.09 196.90 2.07Q197.18 2.05 197.45 2.05L197.45 2.05Q198.86 2.05 199.58 2.72Q200.30 3.38 200.30 4.79L200.30 4.79Q200.30 5.75 199.96 6.35Q199.63 6.95 198.95 7.24Q198.27 7.52 197.25 7.52ZM197.49 6.73L197.49 6.73Q198.10 6.73 198.50 6.53Q198.91 6.34 199.10 5.91Q199.30 5.48 199.30 4.78L199.30 4.78Q199.30 4.09 199.10 3.66Q198.91 3.24 198.50 3.04Q198.10 2.84 197.51 2.84L197.51 2.84Q197.35 2.84 197.17 2.86Q196.99 2.87 196.82 2.90L196.82 2.90L196.82 6.69Q196.98 6.71 197.14 6.72Q197.31 6.73 197.49 6.73ZM205.76 7.47L204.81 7.47L204.81 3.51L205.76 3.51L205.76 7.47ZM205.29 2.84L205.29 2.84Q204.98 2.84 204.83 2.70Q204.68 2.56 204.68 2.32L204.68 2.32Q204.68 2.07 204.83 1.94Q204.98 1.80 205.29 1.80L205.29 1.80Q205.59 1.80 205.74 1.94Q205.89 2.07 205.89 2.32L205.89 2.32Q205.89 2.56 205.74 2.70Q205.59 2.84 205.29 2.84ZM211.75 9.14L211.75 9.14Q211.46 9.14 211.12 9.10Q210.79 9.06 210.49 8.97L210.49 8.97L210.49 8.22Q210.81 8.31 211.11 8.35Q211.42 8.40 211.68 8.40L211.68 8.40Q212.29 8.40 212.56 8.16Q212.84 7.92 212.84 7.36L212.84 7.36L212.84 7.05L212.79 7.05Q212.62 7.26 212.36 7.38Q212.09 7.51 211.75 7.51L211.75 7.51Q211.34 7.51 210.99 7.31Q210.64 7.11 210.43 6.68Q210.22 6.26 210.22 5.58L210.22 5.58Q210.22 4.53 210.76 3.99Q211.30 3.45 212.38 3.45L212.38 3.45Q212.62 3.45 212.87 3.48Q213.12 3.50 213.35 3.55Q213.59 3.59 213.80 3.66L213.80 3.66L213.80 7.19Q213.80 8.22 213.29 8.68Q212.78 9.14 211.75 9.14ZM212.09 6.72L212.09 6.72Q212.30 6.72 212.50 6.65Q212.70 6.57 212.84 6.41L212.84 6.41L212.84 4.25Q212.74 4.22 212.59 4.20Q212.45 4.19 212.30 4.19L212.30 4.19Q211.76 4.19 211.47 4.49Q211.18 4.79 211.18 5.49L211.18 5.49Q211.18 5.97 211.30 6.24Q211.41 6.51 211.62 6.61Q211.82 6.72 212.09 6.72ZM219.39 7.47L218.44 7.47L218.44 3.51L219.39 3.51L219.39 7.47ZM218.92 2.84L218.92 2.84Q218.61 2.84 218.46 2.70Q218.31 2.56 218.31 2.32L218.31 2.32Q218.31 2.07 218.46 1.94Q218.61 1.80 218.92 1.80L218.92 1.80Q219.23 1.80 219.37 1.94Q219.52 2.07 219.52 2.32L219.52 2.32Q219.52 2.56 219.37 2.70Q219.23 2.84 218.92 2.84ZM225.72 7.55L225.72 7.55Q225.04 7.55 224.67 7.20Q224.30 6.86 224.30 6.12L224.30 6.12L224.30 3.51L224.47 2.10L225.25 2.10L225.25 5.97Q225.25 6.41 225.43 6.58Q225.60 6.75 225.96 6.75L225.96 6.75Q226.06 6.75 226.17 6.74Q226.27 6.73 226.40 6.70L226.40 6.70L226.40 7.47Q226.25 7.50 226.07 7.52Q225.89 7.55 225.72 7.55ZM226.36 4.27L223.62 4.27L223.62 3.51L226.36 3.51L226.36 4.27ZM231.73 7.54L231.73 7.54Q231.13 7.54 230.80 7.23Q230.47 6.93 230.47 6.42L230.47 6.42Q230.47 5.88 230.84 5.57Q231.21 5.26 232.04 5.20L232.04 5.20L232.96 5.11L233.06 5.67L232.13 5.75Q231.75 5.79 231.58 5.93Q231.42 6.08 231.42 6.33L231.42 6.33Q231.42 6.59 231.57 6.73Q231.72 6.86 232.02 6.86L232.02 6.86Q232.22 6.86 232.42 6.79Q232.61 6.71 232.78 6.53L232.78 6.53L232.78 4.98Q232.78 4.68 232.68 4.50Q232.59 4.33 232.38 4.26Q232.17 4.19 231.83 4.19L231.83 4.19Q231.61 4.19 231.32 4.23Q231.04 4.27 230.76 4.35L230.76 4.35L230.76 3.62Q231.04 3.54 231.38 3.50Q231.71 3.45 232.00 3.45L232.00 3.45Q232.58 3.45 232.96 3.60Q233.34 3.75 233.53 4.09Q233.71 4.44 233.71 5.03L233.71 5.03L233.71 7.47L232.92 7.47L232.85 7.06L232.81 7.06Q232.63 7.31 232.34 7.42Q232.06 7.54 231.73 7.54ZM239.27 7.47L238.32 7.47L238.32 1.61L239.27 1.61L239.27 7.47ZM250.45 7.47L249.48 7.47L249.48 2.10L253.07 2.10L253.07 2.90L250.45 2.90L250.45 7.47ZM252.71 5.22L250.11 5.22L250.11 4.42L252.71 4.42L252.71 5.22ZM258.14 7.47L257.19 7.47L257.19 3.51L257.97 3.51L258.05 4.03L258.09 4.03Q258.27 3.74 258.56 3.61Q258.85 3.47 259.18 3.47L259.18 3.47Q259.27 3.47 259.35 3.48Q259.43 3.48 259.50 3.49L259.50 3.49L259.50 4.36Q259.41 4.35 259.31 4.34Q259.22 4.33 259.12 4.33L259.12 4.33Q258.95 4.33 258.76 4.38Q258.58 4.43 258.41 4.53Q258.25 4.63 258.14 4.78L258.14 4.78L258.14 7.47ZM265.30 7.55L265.30 7.55Q264.74 7.55 264.33 7.32Q263.92 7.10 263.69 6.65Q263.46 6.20 263.46 5.50L263.46 5.50Q263.46 4.80 263.68 4.35Q263.90 3.90 264.32 3.67Q264.73 3.45 265.30 3.45L265.30 3.45Q265.88 3.45 266.29 3.67Q266.70 3.90 266.92 4.35Q267.14 4.80 267.14 5.50L267.14 5.50Q267.14 6.19 266.92 6.65Q266.69 7.10 266.28 7.32Q265.87 7.55 265.30 7.55ZM265.30 6.81L265.30 6.81Q265.58 6.81 265.78 6.69Q265.97 6.57 266.08 6.29Q266.18 6.00 266.18 5.51L266.18 5.51Q266.18 5.00 266.08 4.71Q265.97 4.43 265.77 4.31Q265.58 4.19 265.30 4.19L265.30 4.19Q265.03 4.19 264.83 4.31Q264.63 4.43 264.53 4.71Q264.42 4.99 264.42 5.49L264.42 5.49Q264.42 6.00 264.53 6.28Q264.63 6.57 264.83 6.69Q265.03 6.81 265.30 6.81ZM272.55 7.47L271.60 7.47L271.60 3.51L272.39 3.51L272.45 3.93L272.50 3.93Q272.73 3.70 273.03 3.58Q273.34 3.45 273.69 3.45L273.69 3.45Q274.08 3.45 274.38 3.60Q274.67 3.75 274.84 4.08Q275.02 4.41 275.02 4.96L275.02 4.96L275.02 7.47L274.06 7.47L274.06 5.01Q274.06 4.60 273.89 4.44Q273.71 4.28 273.41 4.28L273.41 4.28Q273.26 4.28 273.11 4.32Q272.95 4.36 272.81 4.45Q272.66 4.53 272.55 4.68L272.55 4.68L272.55 7.47ZM281.30 7.55L281.30 7.55Q280.62 7.55 280.25 7.20Q279.88 6.86 279.88 6.12L279.88 6.12L279.88 3.51L280.05 2.10L280.84 2.10L280.84 5.97Q280.84 6.41 281.01 6.58Q281.18 6.75 281.54 6.75L281.54 6.75Q281.65 6.75 281.75 6.74Q281.86 6.73 281.98 6.70L281.98 6.70L281.98 7.47Q281.83 7.50 281.65 7.52Q281.47 7.55 281.30 7.55ZM281.95 4.27L279.20 4.27L279.20 3.51L281.95 3.51L281.95 4.27ZM287.24 7.47L286.29 7.47L286.29 3.51L287.24 3.51L287.24 7.47ZM286.76 2.84L286.76 2.84Q286.46 2.84 286.31 2.70Q286.16 2.56 286.16 2.32L286.16 2.32Q286.16 2.07 286.31 1.94Q286.46 1.80 286.76 1.80L286.76 1.80Q287.07 1.80 287.22 1.94Q287.37 2.07 287.37 2.32L287.37 2.32Q287.37 2.56 287.22 2.70Q287.07 2.84 286.76 2.84ZM293.77 7.55L293.77 7.55Q293.07 7.55 292.61 7.33Q292.15 7.12 291.92 6.67Q291.70 6.21 291.70 5.49L291.70 5.49Q291.70 4.82 291.91 4.37Q292.11 3.91 292.51 3.68Q292.90 3.45 293.45 3.45L293.45 3.45Q293.99 3.45 294.35 3.68Q294.72 3.91 294.91 4.37Q295.10 4.84 295.10 5.52L295.10 5.52L295.10 5.78L292.23 5.78L292.23 5.21L294.37 5.21L294.21 5.29Q294.21 4.84 294.12 4.57Q294.03 4.31 293.86 4.19Q293.69 4.08 293.44 4.08L293.44 4.08Q293.19 4.08 293.01 4.19Q292.84 4.30 292.74 4.57Q292.65 4.83 292.65 5.28L292.65 5.28L292.65 5.65Q292.65 6.08 292.77 6.34Q292.89 6.59 293.17 6.70Q293.44 6.81 293.90 6.81L293.90 6.81Q294.12 6.81 294.37 6.78Q294.63 6.74 294.89 6.67L294.89 6.67L294.89 7.40Q294.59 7.48 294.31 7.51Q294.04 7.55 293.77 7.55ZM300.46 7.47L299.51 7.47L299.51 3.51L300.29 3.51L300.37 4.03L300.41 4.03Q300.60 3.74 300.88 3.61Q301.17 3.47 301.50 3.47L301.50 3.47Q301.59 3.47 301.67 3.48Q301.75 3.48 301.82 3.49L301.82 3.49L301.82 4.36Q301.73 4.35 301.64 4.34Q301.54 4.33 301.44 4.33L301.44 4.33Q301.27 4.33 301.08 4.38Q300.90 4.43 300.73 4.53Q300.57 4.63 300.46 4.78L300.46 4.78L300.46 7.47Z" transform="translate(0, 0)"></path></g></svg></g> <g transform="rotate(0 334.35507822158615 280.6516948924292)"><svg y="268.9916950450171" viewBox="0.699999988079071 5.739999771118164 301.28997802734375 23.31999969482422" x="183.7100892079143" height="23.31999969482422" width="301.28997802734375" style="overflow: visible;"><g fill="#ffffff" fill-opacity="1" style=""><path d="M4.95 6.90L11.43 6.90Q14.81 6.90 17.16 8.00Q19.52 9.10 20.75 11.20Q21.99 13.30 21.99 16.31L21.99 16.31Q21.99 19.97 20.44 22.76L20.44 22.76Q18.89 25.55 15.94 27.15Q12.99 28.75 9.32 28.75L9.32 28.75L0.70 28.75L4.95 6.90ZM8.36 10.05L5.33 25.60L9.18 25.60Q11.85 25.60 13.89 24.48L13.89 24.48Q15.94 23.38 17.04 21.30Q18.14 19.21 18.14 16.44L18.14 16.44Q18.14 13.35 16.40 11.70Q14.65 10.05 11.43 10.05L11.43 10.05L8.36 10.05ZM36.95 28.90L36.95 28.90Q35.43 28.90 34.66 28.27Q33.88 27.63 33.88 26.53L33.88 26.53Q33.88 26.25 33.90 26.00Q33.93 25.75 33.96 25.54L33.96 25.54L33.86 25.54Q32.56 27.54 31.25 28.30Q29.94 29.06 28.08 29.06L28.08 29.06Q25.91 29.06 24.59 27.76Q23.27 26.47 23.27 24.44L23.27 24.44Q23.27 21.57 25.27 20.10Q27.27 18.64 31.74 18.56L31.74 18.56L34.90 18.51Q35.23 17.04 35.23 16.50L35.23 16.50Q35.23 15.37 34.62 14.82Q34.02 14.27 32.87 14.27L32.87 14.27Q31.29 14.27 30.50 14.86Q29.71 15.46 29.40 16.62L29.40 16.62L25.75 16.14Q26.34 13.89 28.15 12.78Q29.96 11.66 32.98 11.66L32.98 11.66Q36.00 11.66 37.52 12.83Q39.03 14.00 39.03 16.23L39.03 16.23Q39.03 16.96 38.69 18.67L38.69 18.67L37.57 24.27Q37.43 25.03 37.43 25.48L37.43 25.48Q37.43 26.08 37.83 26.30Q38.22 26.51 38.66 26.51L38.66 26.51Q39.15 26.51 39.62 26.41L39.62 26.41L39.40 28.59Q38.80 28.79 38.18 28.85Q37.57 28.90 36.95 28.90ZM27.23 23.91L27.23 23.91Q27.23 25.03 27.89 25.68Q28.55 26.33 29.63 26.33L29.63 26.33Q30.96 26.33 32.05 25.49L32.05 25.49Q32.81 24.95 33.34 24.14Q33.86 23.34 34.10 22.37L34.10 22.37L34.47 20.78L31.76 20.79Q30.53 20.82 29.70 21.05Q28.87 21.27 28.33 21.66L28.33 21.66Q27.80 22.03 27.51 22.60Q27.23 23.17 27.23 23.91ZM45.90 29.01L45.90 29.01Q44.18 29.01 43.22 28.14Q42.27 27.27 42.27 25.72L42.27 25.72Q42.27 24.68 42.52 23.43L42.52 23.43L44.22 14.61L42.05 14.61L42.56 11.97L44.89 11.97L46.86 8.09L49.29 8.09L48.55 11.97L51.68 11.97L51.18 14.61L48.02 14.61L46.30 23.48Q46.13 24.39 46.13 24.89L46.13 24.89Q46.13 25.58 46.49 25.93Q46.84 26.28 47.49 26.28L47.49 26.28Q48.05 26.28 49.12 26.08L49.12 26.08L48.70 28.64Q47.35 29.01 45.90 29.01ZM64.60 28.90L64.60 28.90Q63.08 28.90 62.30 28.27Q61.53 27.63 61.53 26.53L61.53 26.53Q61.53 26.25 61.55 26.00Q61.57 25.75 61.60 25.54L61.60 25.54L61.51 25.54Q60.21 27.54 58.90 28.30Q57.59 29.06 55.73 29.06L55.73 29.06Q53.56 29.06 52.24 27.76Q50.92 26.47 50.92 24.44L50.92 24.44Q50.92 21.57 52.92 20.10Q54.92 18.64 59.39 18.56L59.39 18.56L62.55 18.51Q62.88 17.04 62.88 16.50L62.88 16.50Q62.88 15.37 62.27 14.82Q61.67 14.27 60.52 14.27L60.52 14.27Q58.94 14.27 58.15 14.86Q57.36 15.46 57.05 16.62L57.05 16.62L53.40 16.14Q53.99 13.89 55.80 12.78Q57.60 11.66 60.63 11.66L60.63 11.66Q63.65 11.66 65.16 12.83Q66.67 14.00 66.67 16.23L66.67 16.23Q66.67 16.96 66.33 18.67L66.33 18.67L65.22 24.27Q65.08 25.03 65.08 25.48L65.08 25.48Q65.08 26.08 65.47 26.30Q65.87 26.51 66.30 26.51L66.30 26.51Q66.80 26.51 67.26 26.41L67.26 26.41L67.05 28.59Q66.44 28.79 65.83 28.85Q65.22 28.90 64.60 28.90ZM54.87 23.91L54.87 23.91Q54.87 25.03 55.53 25.68Q56.19 26.33 57.28 26.33L57.28 26.33Q58.61 26.33 59.70 25.49L59.70 25.49Q60.46 24.95 60.98 24.14Q61.51 23.34 61.74 22.37L61.74 22.37L62.12 20.78L59.40 20.79Q58.18 20.82 57.35 21.05Q56.52 21.27 55.98 21.66L55.98 21.66Q55.45 22.03 55.16 22.60Q54.87 23.17 54.87 23.91ZM81.99 6.90L90.26 6.90Q94.00 6.90 96.10 8.60Q98.21 10.30 98.21 13.27L98.21 13.27Q98.21 15.58 97.13 17.27Q96.06 18.96 94.09 19.87Q92.12 20.78 89.44 20.78L89.44 20.78L83.34 20.78L81.79 28.75L77.76 28.75L81.99 6.90ZM85.42 10.06L83.95 17.66L88.94 17.66Q91.53 17.66 92.82 16.65Q94.12 15.65 94.12 13.49L94.12 13.49Q94.12 11.82 93.05 10.94Q91.98 10.06 89.93 10.06L89.93 10.06L85.42 10.06ZM116.04 18.16L116.04 18.16Q116.04 19.89 115.63 21.58Q115.22 23.26 114.42 24.59L114.42 24.59Q113.18 26.75 111.07 27.90Q108.97 29.06 106.31 29.06L106.31 29.06Q103.05 29.06 101.14 27.24Q99.24 25.41 99.24 22.25L99.24 22.25Q99.27 19.10 100.45 16.70L100.45 16.70Q101.64 14.28 103.79 12.98Q105.95 11.68 108.83 11.68L108.83 11.68Q112.35 11.68 114.20 13.37Q116.04 15.07 116.04 18.16ZM112.04 18.37L112.04 18.37Q112.04 14.34 108.62 14.34L108.62 14.34Q106.74 14.34 105.62 15.32L105.62 15.32Q104.88 15.97 104.35 17.10Q103.81 18.23 103.53 19.57Q103.25 20.90 103.25 22.14L103.25 22.14Q103.25 24.25 104.12 25.32Q104.99 26.39 106.69 26.39L106.69 26.39Q107.80 26.39 108.58 26.06Q109.36 25.72 109.95 25.06L109.95 25.06Q110.87 24.10 111.41 22.32Q111.95 20.54 112.04 18.37ZM122.06 5.74L125.91 5.74L125.30 8.76L121.47 8.76L122.06 5.74ZM120.85 11.97L124.70 11.97L121.42 28.75L117.59 28.75L120.85 11.97ZM131.52 19.35L131.52 19.35L129.69 28.75L125.84 28.75L128.42 15.55Q128.54 14.90 128.69 14.00Q128.84 13.10 129.01 11.97L129.01 11.97L132.65 11.97Q132.65 12.06 132.58 12.64Q132.51 13.23 132.42 13.87Q132.32 14.51 132.26 14.84L132.26 14.84L132.31 14.84Q133.52 13.16 134.88 12.42Q136.25 11.68 138.05 11.68L138.05 11.68Q140.39 11.68 141.57 12.81Q142.74 13.94 142.74 16.08L142.74 16.08Q142.74 16.50 142.65 17.27Q142.56 18.05 142.42 18.62L142.42 18.62L140.45 28.75L136.64 28.75L138.51 19.26Q138.87 17.49 138.87 16.78L138.87 16.78Q138.87 14.59 136.37 14.59L136.37 14.59Q135.24 14.59 134.22 15.20Q133.21 15.82 132.50 16.89Q131.78 17.96 131.52 19.35ZM149.43 29.01L149.43 29.01Q147.71 29.01 146.75 28.14Q145.80 27.27 145.80 25.72L145.80 25.72Q145.80 24.68 146.05 23.43L146.05 23.43L147.75 14.61L145.58 14.61L146.09 11.97L148.42 11.97L150.39 8.09L152.82 8.09L152.08 11.97L155.21 11.97L154.72 14.61L151.55 14.61L149.83 23.48Q149.66 24.39 149.66 24.89L149.66 24.89Q149.66 25.58 150.02 25.93Q150.37 26.28 151.02 26.28L151.02 26.28Q151.58 26.28 152.65 26.08L152.65 26.08L152.23 28.64Q150.89 29.01 149.43 29.01ZM172.31 29.06L172.31 29.06Q168.27 29.06 166.11 27.62Q163.96 26.19 163.49 23.23L163.49 23.23L167.40 22.53Q167.76 24.34 168.98 25.17Q170.21 26.00 172.59 26.00L172.59 26.00Q175.52 26.00 176.93 25.15Q178.35 24.30 178.35 22.56L178.35 22.56Q178.35 21.80 178.04 21.27Q177.73 20.73 177.06 20.31L177.06 20.31Q176.56 20.00 175.64 19.66Q174.72 19.32 173.35 18.96L173.35 18.96Q170.59 18.22 169.23 17.41L169.23 17.41Q167.88 16.61 167.17 15.45Q166.45 14.30 166.45 12.65L166.45 12.65Q166.45 10.79 167.55 9.43Q168.65 8.06 170.65 7.32Q172.64 6.57 175.32 6.57L175.32 6.57Q178.92 6.57 181.09 7.86Q183.26 9.15 183.79 11.61L183.79 11.61L179.91 12.58Q179.51 11.10 178.31 10.29Q177.11 9.47 175.15 9.47L175.15 9.47Q172.89 9.47 171.67 10.26Q170.45 11.06 170.45 12.50L170.45 12.50Q170.45 13.29 170.86 13.82Q171.26 14.36 172.08 14.76L172.08 14.76Q172.48 14.96 173.30 15.23Q174.11 15.51 175.32 15.83L175.32 15.83Q177.48 16.42 178.62 16.96Q179.77 17.49 180.47 18.11L180.47 18.11Q181.37 18.87 181.85 19.88Q182.33 20.89 182.33 22.27L182.33 22.27Q182.33 25.57 179.82 27.31Q177.31 29.06 172.31 29.06ZM201.91 18.16L201.91 18.16Q201.91 19.89 201.50 21.58Q201.09 23.26 200.29 24.59L200.29 24.59Q199.05 26.75 196.94 27.90Q194.84 29.06 192.18 29.06L192.18 29.06Q188.92 29.06 187.01 27.24Q185.11 25.41 185.11 22.25L185.11 22.25Q185.14 19.10 186.32 16.70L186.32 16.70Q187.51 14.28 189.66 12.98Q191.82 11.68 194.70 11.68L194.70 11.68Q198.22 11.68 200.07 13.37Q201.91 15.07 201.91 18.16ZM197.91 18.37L197.91 18.37Q197.91 14.34 194.49 14.34L194.49 14.34Q192.61 14.34 191.49 15.32L191.49 15.32Q190.75 15.97 190.22 17.10Q189.68 18.23 189.40 19.57Q189.12 20.90 189.12 22.14L189.12 22.14Q189.12 24.25 189.99 25.32Q190.86 26.39 192.56 26.39L192.56 26.39Q193.67 26.39 194.45 26.06Q195.23 25.72 195.82 25.06L195.82 25.06Q196.74 24.10 197.28 22.32Q197.82 20.54 197.91 18.37ZM207.93 5.74L211.78 5.74L207.29 28.75L203.46 28.75L207.93 5.74ZM222.99 25.88L222.94 25.88Q221.71 27.58 220.35 28.31Q218.99 29.04 217.19 29.04L217.19 29.04Q214.86 29.04 213.68 27.91Q212.49 26.78 212.49 24.64L212.49 24.64Q212.49 24.34 212.54 23.89Q212.60 23.44 212.67 22.95Q212.74 22.45 212.81 22.10L212.81 22.10L214.78 11.97L218.61 11.97L216.74 21.46Q216.38 23.20 216.38 23.94L216.38 23.94Q216.38 26.13 218.88 26.13L218.88 26.13Q220.01 26.13 221.02 25.52Q222.02 24.92 222.75 23.84Q223.47 22.76 223.73 21.37L223.73 21.37L225.56 11.97L229.41 11.97L226.83 25.17Q226.69 25.82 226.54 26.72Q226.40 27.62 226.24 28.75L226.24 28.75L222.58 28.75Q222.58 28.64 222.66 28.07Q222.74 27.49 222.83 26.84Q222.92 26.19 222.99 25.88L222.99 25.88ZM235.30 29.01L235.30 29.01Q233.58 29.01 232.62 28.14Q231.67 27.27 231.67 25.72L231.67 25.72Q231.67 24.68 231.92 23.43L231.92 23.43L233.62 14.61L231.45 14.61L231.96 11.97L234.29 11.97L236.26 8.09L238.69 8.09L237.95 11.97L241.08 11.97L240.59 14.61L237.42 14.61L235.70 23.48Q235.53 24.39 235.53 24.89L235.53 24.89Q235.53 25.58 235.89 25.93Q236.24 26.28 236.89 26.28L236.89 26.28Q237.45 26.28 238.52 26.08L238.52 26.08L238.10 28.64Q236.76 29.01 235.30 29.01ZM244.97 5.74L248.82 5.74L248.21 8.76L244.38 8.76L244.97 5.74ZM243.76 11.97L247.61 11.97L244.34 28.75L240.51 28.75L243.76 11.97ZM266.01 18.16L266.01 18.16Q266.01 19.89 265.60 21.58Q265.19 23.26 264.39 24.59L264.39 24.59Q263.15 26.75 261.04 27.90Q258.94 29.06 256.28 29.06L256.28 29.06Q253.02 29.06 251.11 27.24Q249.21 25.41 249.21 22.25L249.21 22.25Q249.24 19.10 250.42 16.70L250.42 16.70Q251.61 14.28 253.76 12.98Q255.92 11.68 258.80 11.68L258.80 11.68Q262.32 11.68 264.17 13.37Q266.01 15.07 266.01 18.16ZM262.01 18.37L262.01 18.37Q262.01 14.34 258.59 14.34L258.59 14.34Q256.71 14.34 255.59 15.32L255.59 15.32Q254.85 15.97 254.32 17.10Q253.78 18.23 253.50 19.57Q253.22 20.90 253.22 22.14L253.22 22.14Q253.22 24.25 254.09 25.32Q254.96 26.39 256.66 26.39L256.66 26.39Q257.77 26.39 258.55 26.06Q259.33 25.72 259.92 25.06L259.92 25.06Q260.84 24.10 261.38 22.32Q261.92 20.54 262.01 18.37ZM273.26 19.35L273.26 19.35L271.43 28.75L267.58 28.75L270.15 15.55Q270.28 14.90 270.43 14.00Q270.57 13.10 270.74 11.97L270.74 11.97L274.39 11.97Q274.39 12.06 274.32 12.64Q274.25 13.23 274.15 13.87Q274.06 14.51 274.00 14.84L274.00 14.84L274.05 14.84Q275.26 13.16 276.62 12.42Q277.98 11.68 279.78 11.68L279.78 11.68Q282.12 11.68 283.30 12.81Q284.48 13.94 284.48 16.08L284.48 16.08Q284.48 16.50 284.39 17.27Q284.30 18.05 284.16 18.62L284.16 18.62L282.19 28.75L278.37 28.75L280.25 19.26Q280.61 17.49 280.61 16.78L280.61 16.78Q280.61 14.59 278.11 14.59L278.11 14.59Q276.98 14.59 275.96 15.20Q274.95 15.82 274.23 16.89Q273.52 17.96 273.26 19.35ZM300.89 23.66L300.89 23.66Q300.89 26.30 298.92 27.68Q296.95 29.06 293.20 29.06L293.20 29.06Q290.22 29.06 288.49 28.02Q286.76 26.98 286.13 24.79L286.13 24.79L289.47 24.13Q289.86 25.37 290.80 25.91Q291.74 26.45 293.49 26.45L293.49 26.45Q297.29 26.45 297.29 24.06L297.29 24.06Q297.29 23.23 296.59 22.70L296.59 22.70Q295.89 22.22 293.58 21.65L293.58 21.65Q291.68 21.13 290.56 20.53L290.56 20.53Q289.32 19.85 288.75 18.90Q288.17 17.96 288.17 16.68L288.17 16.68Q288.17 14.28 290.07 12.99Q291.97 11.71 295.46 11.71L295.46 11.71Q298.51 11.71 300.07 12.76Q301.63 13.82 301.99 16.00L301.99 16.00L298.55 16.44Q298.27 15.30 297.44 14.81Q296.62 14.31 295.21 14.31L295.21 14.31Q293.51 14.31 292.63 14.82Q291.75 15.34 291.75 16.33L291.75 16.33Q291.75 16.89 292.07 17.26Q292.39 17.63 292.98 17.92L292.98 17.92Q293.55 18.20 295.75 18.78L295.75 18.78Q297.83 19.30 298.95 20.03L298.95 20.03Q299.94 20.68 300.41 21.58Q300.89 22.47 300.89 23.66Z" transform="translate(0, 0)"></path></g></svg></g></svg>