<?xml version="1.0" encoding="UTF-8"?>
<svg id="Layer_1" data-name="Layer 1" xmlns="http://www.w3.org/2000/svg" version="1.1" viewBox="0 0 535 217.7">
  <defs>
    <style>
      .cls-1 {
        fill: #0de809;
      }

      .cls-1, .cls-2, .cls-3, .cls-4 {
        stroke-width: 0px;
      }

      .cls-2 {
        fill: #03c200;
      }

      .cls-3 {
        fill: #196917;
      }

      .cls-4 {
        fill: #404040;
      }
    </style>
  </defs>
  <g>
    <path class="cls-3" d="M112.6,70.2h-1.7c1,0,1.8,0,2.3,0-.2,0-.4,0-.6,0Z"/>
    <path class="cls-3" d="M117.1,70.8h0c0,0-.1,0-.2,0-1.7-.3-2.3-.4-3.6-.6,1.3.2,2.8.4,4,.6,0,0,0,0-.1,0Z"/>
    <path class="cls-3" d="M145.8,95.9v-.4c-.1,0-.2,0-.2-.1h0c0,.2.1.3.2.5Z"/>
    <path class="cls-3" d="M135.3,80.1h-.1c0-.2-.1-.2-.2-.3.1.1.2.2.4.3,0,0,0,0,0,0Z"/>
    <path class="cls-3" d="M133.4,79.2c0-.2-.8-1-1.3-1.4-1.1-.9-2.4-1.7-2.9-1.8,0,0,0,0,0,0,0,.3,3.9,3.4,4.3,3.2Z"/>
    <path class="cls-3" d="M123.4,73.2c0-.1-.6-.5-1.3-.7h0c.6,0,1.1.1,1.5.3l-1.2-.4c-.4-.1-.8-.2-1.3-.3,0,0,0,0,0,0-1.1-.4-2.1-.7-2.5-.7h0c.2.2,4.6,2,4.8,1.8ZM122,72.4s0,0,0,0h0s0,0,0,0Z"/>
    <path class="cls-3" d="M91.4,75.4c.1.4,1.1-.2,1.5-1,.9-.4,1.9-.8,2.9-1.2.1,0,.1-.1.1-.2,0,0-.2-.6-.3-.7h-.2q0,.3,0,.8c-.9.3-1.7.7-2.5,1h0c0-.2,0-.3-.2-.3h0c.3-.3.6-.6,1-.8h-.2c-.4.3-.8.5-1.1.9h0c-.3.2-.8.5-1,.9,0,0,0,0,0-.1-2.4,1.1-5,2.3-7,3.9l-1.2,1c.7-.6,2.6-2.1,7.9-4.4,0,.1,0,.2,0,.3Z"/>
    <path class="cls-3" d="M143.3,107.8h0Z"/>
    <path class="cls-3" d="M89.7,131.9s0,0,0,0c-2.5,1.6-4.4,3.1-5.4,4.4-.9,1.2-.9,2-.2,2.6l1,.8c-.7-.6-.7-1.4.2-2.6.9-1.3,2.8-2.7,5.3-4.3-.1,0-.4-.4-.8-.8Z"/>
    <path class="cls-3" d="M137.5,104.8c-.8.2-1.1,1.3-1.1,2.4-1.5.3-3.2.6-5,1-2.1-2.3-5.4-5.5-5.8-5.4-2,.5-4,1.1-6.1,1.8,0,0,0,0,0,.1-.5-1.1-1.6-1.9-2.8-1.6-2.1.8-1.6,4.2.3,5.3,1.6.9,3.2-.5,2.9-2.6,2.1-.6,4.1-1.2,5.9-1.7,1.1,1,2.5,2.2,3.5,3.3q2,2.1,2.2,2.1c1.8-.4,3.5-.8,5.1-1.1.1.7.4,1.4.8,1.8.9.9,1.9-.4,1.8-2.4,0-1.5-.7-3-1.7-2.9Z"/>
    <path class="cls-3" d="M143.1,100.9c.6.3.9-.7.6-2.2,0,0,0,0,0,.1,2,.2,3.2.7,3.5,1.7l-.3-1.3h0c0,0-.5-1.7-.5-1.7l-.2-.6c.2.7.4,1.4.6,2.1-.4-.8-1.5-1.3-3.4-1.4,0,0,0,0,0,.1-.4-1.2-1-2.2-1.6-2.3,0,0,0,0,0,0-1,.3.1,4.9,1.3,5.5Z"/>
    <path class="cls-3" d="M146.3,120.5c0,.1,0,.2,0,.4l.4-1.2c0-.1,0-.3,0-.4h0c0,.1-.3,1-.3,1.2h0Z"/>
    <path class="cls-3" d="M148.1,108.5h0c0-1.4-1.8-2-4.9-2,0,0,0,.1,0,.2,0-1.3-.6-2.6-1.3-2.6-.3,0-.4.3-.6.6-2.6-4.4-4-6.4-8.6-10.9-.1,0-.1-.1-.2-.1-.9.1-1.8.3-2.7.5-.7-1.8-1.5-3.4-2.3-5,5.1-1,9.1-1.5,11.7-1.2,0,0,0,0,0,0h0c-1.2-4.5-3.1-6.5-4.8-8.2h0c0,0,.2.1.3.2-1-.9-2.7-2.2-3.8-2.9.8.6,1.9,1.4,2.8,2.2,2.6,2.6,3.5,3.9,4.7,7.8-2.6-.2-6.6.2-11.5,1.2-.6-1-1.2-2-1.8-3,0,0,0,0,0,0h0c.6-.4.5-1.2.1-1.9,0,0,0,0,0,0,1.5-.3,3-.5,4.3-.7,0,0,.1,0,0-.1-.4-2.2-.6-2.6-1.5-4.4,1.1,0,2,0,2.8,0-.3-.3-.6-.5-.9-.7-.8,0-1.7,0-2.8,0,0,0,0,0,0,0,0,0,0,0,0,0,.9,1.8,1,2.2,1.5,4.3-1.3.2-2.6.4-4.1.7,0,0,0,0,0,0-.7-.8-1.8-1.4-2.7-1.3-.1,0-.3,0-.4.2-1,.8.8,3.6,2.8,3.9,0,0,0-.1,0-.2s0-.2.1-.2c0,0-.3.1,0,.6.6,1,1.2,2,1.7,3-.9.2-1.8.4-2.8.6,0,0,0,0,0,.1-.6-.9-1.7-1.7-2.8-1.5,0,0-.2,0-.3,0-.2.1-.4.3-.5.5-3.2-1.9-3.7-2.1-7-3.8-.2,0-.2,0-.4,0-.7.2-1.4.4-2.2.7-1.2.4-2.4.7-3.5,1.1,0,0,0,.1.1.2-.6-.9-1.7-1.3-2.6-1,.1,0,.3,0,.4,0-.4-.9-.8-1.7-1.2-2.5,1.5-.5,3.1-1,4.6-1.5,3.4-1,6.5-1.9,9.3-2.5,0,0,0,0,.1,0-.1-2.2-.1-2.3-.5-3.4,5.1-1,8.8-1.1,10.2-.3l-1.1-.6c-1.5-.7-5-.6-10,.4,0,0,0,0,0,0,.5,1.8.5,1.9.6,3.2-2.7.6-5.7,1.5-9,2.5-1.5.5-3,1-4.5,1.5-.8-1.6-1.6-3.1-2.3-4.3,0,0,0,0,0,0,.6-.3.8-.9.5-1.5-.3-.5-1.1-1.1-2.1-.8,0,0-.2,0-.2.1-1,.6-.6,2,.6,2.3.2,0,.5,0,.7,0,.7,1.3,1.4,2.7,2.1,4.3-1.5.5-3,1.1-4.5,1.6-3.4-1.8-4.1-2.3-6-3.5,0-.2.1-.5.1-.8,0-.7-.4-1.3-1.2-1,0,0,.1,0,.2,0,0-.8.2-1.5.3-2,1.8-.7,4.6-1.9,8.6-3.2,0,0-.2-.1-.3-.2.4.3,1.2.6,1.8.5h0c.9.7,1.9,1.8,2.9,3h0s0,0-.1,0c-1,.8,0,2.5,1.6,2.7,1.4.2,2.3-.8,1.5-1.9-.2-.3-.6-.6-1-.8,0,0,0,0,0,0,.3-1.8.3-2,.2-3.1,2.7-.7,5.1-1.3,7.2-1.6l1.5.3c.9.6,3.5,1.6,4.1,1.4.4-.1-.1-.6-1-1-1.1-.5-2.5-.9-3.2-.9,0,0-.1,0-.1,0,0,0,0,0,0,.1l-1.7-.4c-.1,0-.1,0-.2,0-2,.3-4.4.8-7.1,1.6q-.1,0,0,1.2c0,.6-.1,1.4-.3,2,0,0,0,0,.1,0-.3,0-.6,0-.8,0,0,0,0,0,.1,0-1-1.2-2.1-2.2-3.1-2.9h0c.4-.2.4-.5,0-.8,0,0,0,0,0,0,3.7-1,5.9-1.6,9.1-2,2.1.3,4.6.6,7.7,1.4-.2,0-.4-.1-.5-.2,0,0-3.3-1-7.9-1.3h-.2c-2.2.2-5.2.8-8.7,1.9,0,0,0,0,0,0-.5-.2-1.1-.2-1.5-.1h0c-1-.4-1.9-.5-2.8-.3h-.2s0,0,0,0c.8-.2,1.7-.1,2.6.3h0c0,0-.1,0-.2.1,0,.1,0,.3.1.5t0,0c-2.8.9-5.6,1.9-8.2,3,0-.1,0-.2.1-.3h0c-.1.1-.2.1-.3.2,0,.1,0,.2-.1.3-4.8,2.1-8.8,4.3-10.4,5.9l-.9,1c2-1.9,5.7-4.1,11.2-6.4-.2.6-.3,1.3-.4,2.1,0,0,0,0,0,0-.9.6-1.5,2.2-.9,2.8s1.2.2,1.7-.4h0c1.9,1.3,2.6,1.8,6.1,3.7.1,0,.2,0,.3,0,1.6-.6,3.1-1.2,4.7-1.7.4.8.7,1.6,1.1,2.5h0c-.7.4-.9,1.2-.8,2-5.1,1.8-10.1,3.7-14.5,5.8-.4-2.5-.6-4.8-.7-6.9,0,0,0,0-.1,0,.6-.4,1.2-1.3,1.2-2.3,0-.7-.3-1.7-1.2-1.3-.7.4-1.3,1.4-1.4,2.2,0,0,0-.1,0-.2-4.8,2.2-8.8,4.5-11.2,6.5.5-1.2,1-2.3,1.6-3.4,2.6-2.1,7.3-4.7,12.9-7.2,0-.1,0-.3,0-.6-5.5,2.4-10.1,4.9-12.5,7h0s0,0,0,0c0,.1-.1.2-.2.2.1-.1.1-.2.2-.2h0c-.6.5-1.1,1-1.4,1.4,0,.1-.1.2-.2.3l-.7,1.1c0-.1.2-.3.3-.4.3-.4.8-.9,1.3-1.4-.6,1.1-1.1,2.2-1.6,3.4-.6.5-1.1,1-1.5,1.5-.2.3-.4.5-.5.8l-.5,1.2c.1-.3.4-.6.5-.9.4-.5.9-1,1.5-1.6-1.1,3.1-1.8,6.4-2,9.9-.8.7-1.4,1.3-1.8,1.9-.2.3-.4.6-.5.9v1.1c0-.1,0-.2,0-.3q.1-2.3.1-2.3h0c0-.5.1-1,.2-1.4.2-.9.4-1.8.6-2.7.3-1.2.6-2.1.6-2.4l-.3.8c-.4,1.3-.8,3.1-1,4.4h0c0,.5-.2,1-.2,1.5h0c0,.1,0,.4,0,.5-.1,1.1-.2,2.6-.3,3.7,0,.7,0,1.1,0,1.2h0c0,4.2.8,8.4,2.3,12.6.9,2.3,1.9,4.5,3.2,6.6,0,.4,0,.7.1,1l.7,1.1c-.2-.6-.5-1.2.6-2.6.4-.5.8-1,1.4-1.5.5.6,1,1.1,1.5,1.2,0,0,.1,0,.2,0t0,0c.3.4.6.8.9,1.2-.4,1,1.8,4,3.3,4.2,1,.1.6-1.2-.4-2.6-.9-1.1-2-2.1-2.6-1.9,0,0,0,0,.1,0-.3-.4-.6-.8-.9-1.3,0,0,0,.1,0,.1.3-.3.1-1.3-.3-2.3,1.1-.9,2.4-1.8,3.9-2.7,1.5,2.6,3.2,5.1,5.1,7.4-.7,1,1.5,3.7,3.3,3.9,1.3.1,1.1-1.2,0-2.5-.8-1-2.1-1.9-2.9-1.7,0,0,0,0,0,0-1.8-2.3-3.5-4.8-5-7.5,3.4-2.1,7.7-4.3,12.5-6.4.3.5.8.9,1.3,1.1.3.1.6.2.9.1.5,1.1,1,2.2,1.6,3.3-1.6.7-3.1,1.4-4.5,2.1-.2.2-.6,4.1.3,9.8h0c-.3,0-.7,0-.9,0,0,0,0,0-.1,0-1.1.9,1.2,3.5,3.2,3.7.1,0,.3,0,.4,0h0c1.1,1,2.2,1.9,3.3,2.7-3.2,1.8-5.4,3.3-6.8,4.9-.7,1-.7,1.6,0,2.1-2.1-.7-4.1-1.7-6-2.8-.8-.5-.8-1.3,0-2.5,1.1-1.5,3.7-3.4,7.2-5.4-.1-.1-.5-.4-.8-.7,0,0,0,0,0,0-3.6,2-6.2,4-7.4,5.5-.9,1.2-.9,2,0,2.5l-.7-.5c.2.1.5.3.7.5,0,0,0,0,0,0l1.1.6.9.5c1.6.9,3.4,1.6,5.1,2.3.1,0,.2.1.4.1l1.2.4c-1.1-.4-1.4-1.1-.5-2.2,1-1.3,3.3-3,6.5-4.8.2.1.4.3.7.5h0c-.3.4.5,1.1,1.5,1.6-.2-.1-.4-.2-.6-.3-2.6,1.5-4.4,2.8-5.3,3.9-.9,1.1-.5,1.8.8,2.1l1.3.3c-1.3-.3-1.7-.9-.9-2,.8-1,2.6-2.4,5-3.8.8.4,1.6.6,2.2.5h0c2.9,1.5,5.9,2.5,8.8,2.9.4,0,.4,0,.5,0,0,0,0,0-.4-.1-2.8-.4-5.7-1.5-8.6-3h0s0,0,0,0c.2-.2-.2-.7-.9-1.2,1-.5,2-1,3.1-1.5,2.7,2.3,5.3,4.1,7.8,5,.2,0,.3,0,.4,0q0,0-.2-.2c-2.5-1-5.2-2.9-7.9-5.5-.2-.2-.4-.3-.6-.2-1.2.6-2.4,1.2-3.5,1.7h0c-.9-.5-1.7-.7-2.2-.6t0,0c-.2-.1-.4-.3-.7-.5,2.7-1.5,5.9-3,9.4-4.4.3.4.7.7,1.2.9.2,0,.4.1.6,0h0c2,3.4,3.8,6.1,5.4,7.8.1.1.2.1.2.1s0,0,0,0c0,0,0,0-.1-.2-1.5-1.7-3.2-4.5-5.1-7.9h0s0,0,0,0c.4-.3.5-1.1.3-1.9,0,0,0,0,0,0,2.8-1.1,5.7-2.1,8.7-3,1.9-.6,3.8-1.1,5.5-1.6q.1,0,.2-.2s2.2-3.8,4.1-7.3c.7,1,1.8-.3,2.1-2h0c1.6-.2,3.1-.4,4.4-.5,0,.8,0,1.5.1,1.9,0,0,0,0,.1.1h0c0,.3-.1.6-.2.9,0,0,0,0,0,0-.5.3-1,1.4-1.4,2.5,0-.1,0-.3.1-.4,0,0,0,0,0,0-.8,0-1.6.1-2.5.3q-.1,0-1.6,2.5s-1.8,2.8-4.3,6.4c0,0,0,0,0,0,0-.2-.2-.3-.4-.3-.5.2-1,1-1.4,1.8-1.4.3-3,.8-4.6,1.3-1.5.5-3,1-4.4,1.5,0,0-.2.1-.1.4.7,2,1.3,3.8,1.7,5,0,.2.1.2.2.2,0,0,0-.1,0-.3-.3-1.2-.8-2.8-1.4-4.7,1.3-.5,2.6-.9,3.9-1.3,1.6-.5,3-.9,4.4-1.2-.1.5-.2,1-.1,1.2,0,0,0,.1.1.1h0c-.8,1.8-1.7,3.3-2.8,4.7-.2.2-.2.3-.2.3,0,0,0,0,.4-.3,1.1-1.4,2.1-3,2.9-4.7h0c.4-.3,1-1,1.4-1.9.2-.5.4-.9.4-1.3h0c2.7-3.8,3.4-4.8,5.7-8.3.9-.1,1.6-.2,2.3-.3-.2.8-.3,1.5-.2,1.8,0,0,0,0,0,.1,0,0,0,0,0,0-2.3,5.6-5.8,10.6-10.4,14.3-.2.2-.3.2-.4.3.1,0,.1,0,.5-.3,4.6-3.7,8.2-8.7,10.6-14.3,0,0,0,0,0,0,.4-.2.9-1,1.4-2,0,0,0,0,0,0,1.3,0,2.3.1,2.9.5-.4.9-.7,1.7-.6,1.9h0c-3.1,5.5-7.5,10.4-13,14-.3.2-.3.2-.5.3q.2,0,.5-.3c5.6-3.6,10-8.5,13.1-14h0c.2,0,.6-.7,1.1-1.6,0,0,0,0,0,0,.1.2.2.3.1.6h0s0,0,0-.1c0,0,0,.1,0,.1h0c0,.3,0,.5-.2.7l.6-1.1c.1-.3.2-.5.2-.7h0c0-.2,0-.4-.1-.6,0,0,0,.1,0,.2.6-1.3.9-2.4.8-2.6,0,0,0,0,0,.1,0-.2.2-.5.3-.7h0c.2,0,.6-.9.9-1.9,0,0,0,0,0,.1.1.2.2.4.2.6h0c0-.3.3-1,.3-1.2,0-.2,0-.4-.2-.6,0,0,0,0,0,0,.3-1.2.4-2.2.3-2.4h0c-.1,0-.5.8-.8,1.9-.7-.4-1.9-.6-3.5-.6h0c.1-1.1,0-1.9-.4-2.1,0,0,0,0,0,0,0-.3.1-.6.1-.9,3.3-.1,5.1.5,5.1,1.8h0c0-.1,0-.2,0-.4,0,.2,0,.3,0,.4h0c0,.2,0,.2,0,.3l.2-1v-.2c0,0,0-.1,0-.2h0c0-1.3-1.9-1.9-5.2-1.8.1-1.2.2-2.5.2-3.7-.1,0-.2,0-.4,0,.5.1,1-.7,1.1-2h0c3.1,0,4.9.7,4.8,2v-.2.2-.2h0v-.5h0c0-.3,0-.4,0-.5ZM124.7,84.6c0,0,.1,0,.2,0,0,0-.1,0-.2,0ZM77.4,87s0,.1-.1.2c0,0,0-.1.1-.2ZM77.2,87.3s0,.1-.1.2c0,0,0-.1.1-.2ZM70.7,102.1c0,0,0,.1,0,.1,0,0,0-.1,0-.1ZM108.2,141.9s0,0,0,0c0,0,0,0,0,0ZM104.3,139.4c0,0-.1,0-.2,0,0,0,.1,0,.2,0ZM138.8,126.7s.1,0,.1,0c0,0-.1,0-.1,0ZM91.6,92.2h0s0,0,0,0h0ZM91.5,92.1c0,0-.2,0-.3,0,.1,0,.2,0,.3,0ZM91.2,92.2c0,0-.1.1-.2.3,0-.1,0-.2.2-.3ZM76.4,126.7h0c-.4.5-.6.9-.7,1.3-1.3-2.1-2.3-4.3-3.2-6.6-1.5-4.2-2.3-8.4-2.3-12.6h0c0-.3,0-1.1.2-2.6.1-.3.3-.6.5-.9.4-.6,1.1-1.2,1.9-1.9-.1,4.7.7,9.6,2.5,14.6.6,1.6,1.3,3.1,2,4.6-.3.5,0,1.6.5,2.6-.6.5-1.1,1-1.4,1.5ZM79.4,123.9s0,0,0,0c-.7-1-1.5-1.8-2-1.5h0c-.6-1.6-1.3-3.1-1.9-4.7-1.8-4.9-2.6-9.8-2.5-14.5,1.2-.9,2.6-2,4.3-3,.1,4.5,1.1,9.4,2.9,14.3.9,2.3,1.9,4.6,3,6.7-1.5.9-2.8,1.8-3.9,2.7ZM77.4,99.6h0v.3-.3ZM77.8,98.9c0,0,.1.2.1.4,0-.1,0-.3-.1-.4ZM83.9,120.9c-1.2-2.2-2.2-4.4-3-6.7-1.8-4.9-2.8-9.7-2.9-14.3.6-.4,1.3-.8,2-1.2,0-.1,0-.5,0-1h0c-.8.4-1.6.8-2.3,1.2,0,0,.1,0,.1,0,0,0-.1,0-.2,0-.1.2-.1.3-.2.5,0-.3.1-.4.2-.5,0,0,0,0,0,0-1.8,1.1-3.3,2.2-4.5,3.1.2-3.4.8-6.7,1.9-9.8,2.4-2,6.5-4.4,11.5-6.7,0,.3.1.6.3.8.2.2.4.3.7.2,0,2.1.2,4.4.6,6.9-2,.9-3.9,1.8-5.6,2.8,0,.1,0,.3,0,.5-.1-1.1-.7-1.9-1.5-1.5,0,0,.2,0,.3-.1v-1.3c.5-.5,1-1.5,1.1-2.6,0-.9-.1-2.1-1-1.7-1.2.7-1.9,3.5-1.2,4.4.1.2.3.3.5.2,0,.4,0,.8,0,1.3h0c-1.1,1-1.4,3.8-.3,4.6.2.2.4.2.7.2.4,3.8,1.4,7.9,2.9,12.1.9,2.3,1.9,4.6,3,6.8-1.1.7-2.2,1.3-3.2,1.9ZM87.8,118.7c-1.1-2.2-2.1-4.4-3-6.8-1.5-4.2-2.5-8.2-3-12.1h0c.5-.5.9-1.5.9-2.6,1.8-.9,3.7-1.9,5.7-2.8.7,4.2,2,8.9,3.8,13.8.9,2.3,1.8,4.6,2.8,6.9-2.6,1.2-5,2.4-7.2,3.6ZM96.8,115.2c-.1-.3-.3-.5-.3-.8-.2.1-.5.2-.7.3-1-2.2-1.9-4.5-2.8-6.9-1.8-4.9-3.1-9.6-3.9-13.8.6-.3,1.3-.6,2-.9.9,4.2,2.2,8.8,4,13.7.6,1.6,1.2,3.2,1.9,4.7,0,0,.1-.1.2-.2-1.1.6-1.1,2.4-.3,3.7ZM97.4,111.4c.1,0,.3,0,.4-.1-.6-1.6-1.3-3.1-1.9-4.7-1.8-4.9-3.2-9.5-4.1-13.7,3.7-1.6,7.7-3.2,11.9-4.7.3.5.8.9,1.4,1.2,1.6.6,2.9-.9,2.5-2.5,1.2-.4,2.3-.8,3.5-1.1.7-.2,1.3-.4,2-.6,3.1,1.6,3.9,2,6.8,3.7,0,0,0-.1,0-.3-.1,1.3.9,3,2.3,3.5,1.5.5,2.4-.7,1.9-2.3,1-.2,1.9-.4,2.8-.6.8,1.6,1.6,3.3,2.2,5-3.8.8-8.1,1.9-12.8,3.4-1.8.6-3.7,1.2-5.4,1.8,0,0,0,.1,0,.2-.6-1.1-1.7-1.9-2.9-1.6-1.9.8-1.6,3.5-.2,4.8-1,3.4-1.4,4.6-2.2,7.7-1.9.7-3.7,1.5-5.5,2.2,0,0,0,.1.1.2-.7-1.3-1.9-2-2.9-1.6ZM140.7,117.7c-1.3.1-2.8.3-4.4.6h0c0-1-.4-1.9-1.2-1.9-1.3.4-1.7,2.9-1.3,4.3,0,0,0,0,0-.1-1.4,2.7-2,3.8-3.9,7.3-1.7.4-3.6,1-5.6,1.6-3.1.9-6.1,2-9,3.2,0,0,0,0,0,0-.5-.7-1.2-1.2-1.8-1.1h0c-1-2-2-4.1-3.1-6.3h0c0,0-.1.1-.2.1.3-.1.5-.4.6-.7,2.8,1.7,3.3,2.1,5.4,3.5.1,0,.2,0,.3,0,2.4-.9,4.9-1.7,7.4-2.5,1.2-.4,2.3-.7,3.4-1,.1,0,.1,0,.2-.2l.8-1.7c1,.8,2.2-.7,2.2-2.5,0-1.2-.4-2.7-1.7-2.5-1.6.5-1.7,3.3-.9,4.5,0,0,0-.1-.1-.2-.2.5-.5,1.1-.7,1.5-1.1.3-2.2.6-3.4,1-2.5.8-5,1.6-7.4,2.5-2.7-1.9-2.9-2-5.3-3.5,0-.4,0-.8-.2-1.2-.4-1-1.5-2.4-2.9-1.9-1.8.9-.9,3.9,1,4.7.3.1.6.2.8.1h0c1.1,2.2,2.2,4.3,3.2,6.3-.4.4-.5,1.2-.2,1.9-3.7,1.5-7,3.1-9.8,4.6-1.1-.9-2.2-1.8-3.2-2.7.3-.4,0-1.3-.7-2.1-.4-.4-.8-.8-1.3-1.1,0,0,0,0,0,0-.5-3.2-.7-4.4-.5-9.2,1.4-.7,2.8-1.3,4.4-2,1.2,2.2,2.4,4.4,3.6,6.4-1,.9.1,3.4,2,4,1.5.5,2-1,1.3-2.5-.7-1.3-2-2.1-2.9-1.8.1,0,.2,0,.3,0-1.2-2-2.4-4.2-3.5-6.4,4.7-2,9.9-4,15.2-5.8,2.9,2.2,3.2,2.4,4.8,3.8,0,0,.1,0,.2,0,.1,0,.2,0,.2,0,8.2-2.5,14.9-3.9,19.3-4.2,0,.3,0,.6-.1.9h0c-.4.3-.8,1.1-1,2.1ZM142.2,118.7s0,0,0,0c1.6,0,2.7.2,3.4.6-.3,1-.4,1.8-.4,2.2,0,.2-.2.5-.3.7,0,0,0,0,0,0-.1,0-.7.9-1.2,2-.6-.3-1.6-.5-3-.5,0,0,0,0,0,0,.3-1.2.3-2.1,0-2.1,0,0,.1,0,.1,0,0-.3.2-.6.2-.9,0,0,0,0,0,0,.4-.2.9-1.1,1.2-2.2ZM142.1,109.7c0,1.3,0,2.5-.1,3.7-4.4.2-11.3,1.6-19.5,4.2-2.8-2.3-2.9-2.3-4.9-3.8,0,0-.1,0-.2,0-5.5,1.8-10.8,3.9-15.7,6-.5-1.1-1-2.2-1.6-3.3.5-.5.8-1.4.6-2.4,1.9-.8,3.8-1.6,5.7-2.3.1,0,.2-.1.2-.3.8-2.6,1.5-5.3,2.3-7.9h0c1.6.6,2.9-.9,2.5-2.8,1.8-.6,3.6-1.2,5.4-1.8,4.7-1.5,9.1-2.6,12.8-3.4.5,1.2.9,2.5,1.3,3.8,0,0,0,0,0,0-1.3.7-.9,4,.7,5.2,1.3.9,2.4-.5,2.1-2.6-.3-1.6-1.4-2.9-2.4-2.8.1,0,.2,0,.4,0-.4-1.3-.8-2.5-1.2-3.8.9-.2,1.7-.3,2.5-.5,4.1,4.2,5.7,6.1,8.3,10.8-.2,1.4.1,3.3.8,3.9s.1.1.2.1c0,0,0,0,0,0ZM143.3,107.7c0,0,0-.2,0-.3,0,.1,0,.2,0,.3ZM143.3,107.3v-.3.3Z"/>
    <path class="cls-3" d="M130,141.9l.4-.2c-.1.1-.3.2-.4.3,0,0,0,0,0,0Z"/>
    <path class="cls-1" d="M113.8,76.2c1.1.5,2,.7,2.5.6h0c.2.1.4.2.6.3,0,0,0,0,0,0-.1.3.4.9,1.1,1.5,0,0,0,0,0,0-1.6,1-3.6,2-5.7,3.1.3.2.5.5.7.7,2.2-1.1,4.2-2.2,5.9-3.2,0,0,0,0,0,0,1.6.9,2.8,1,2.7.3-.1-1.2-3.3-2.7-4.4-2.5h0c-.2-.1-.4-.2-.6-.3h0s0-.1,0-.2c-.4-.9-3.5-2-4.5-1.8-5.4-2-10.9-2.6-16.2-1.5h0c5.2-1,10.7-.3,15.9,1.7,0,0,0,0,0,0-.1.3.8.9,1.5,1.3-.2-.1-.3-.2-.5-.3-1.3.8-2.9,1.6-4.6,2.5,0,0,0,0,0,0,.4.3.6.5.7.6,1.8-.9,3.4-1.8,4.8-2.6,0,0,0,0,0,0Z"/>
    <path class="cls-1" d="M91.3,78c-.1.2-.1.3-.1.3h0c.9-.2,1.9-.5,2.9-.8.9-.3,1.7-.6,2.6-.9h0c.3.9,1,1,1.2.6,0,0,0,0,0-.1h0c2.2,1.8,5.7,3.6,6.1,3.8.1,0,.2,0,.2,0,1-.4,1.9-.8,2.8-1.2h0c.7.6,1.5.8,1.9.8l.5.5c.1-.1.3-.2.5-.2-.2-.2-.4-.4-.6-.5,0,0,.1-.2.1-.4,0-1.1-2.3-2.5-3.3-2.3h0c-3.7-2.8-7.3-4.5-10.5-4.5h0c3.1,0,6.6,1.8,10.2,4.7,0,0,0,0,0,0-.3.3,0,.9.5,1.4,0,0,0,0,0,0-.8.4-1.7.7-2.5,1.1-3.5-1.9-4.1-2.2-6-3.6,0,.1,0,.2,0,.3,0-.7-.7-1.8-1.2-1.8-.4-.9-.7-1.6-1-2h0c.2.5.5,1.2.8,2.1,0,0,0,0,0,0-.2,0-.3.6-.1,1.1,0,0,0,0,0,0-.7.3-1.5.5-2.3.8-.9.3-1.8.5-2.5.7,1.2-1.9,2.5-3.4,4.1-4.5h0s0,0,0,0c-1.8,1.3-3.2,2.9-4.5,5Z"/>
    <path class="cls-1" d="M85.7,81c-.5,0-.9,0-1.2,0-.1.1-.5.5-.8.9.4,0,.9,0,1.4,0,0,0,.2-.2.5-.4,2.9-3.5,6.3-6.3,10.3-8.4h0s0,0,0,0c-3.9,2-7.3,4.7-10.2,8Z"/>
    <path class="cls-1" d="M70.7,102.2c0-.4.2-.8.3-1.3-.1.6-.2.9-.3,1.3Z"/>
    <path class="cls-1" d="M72,96.9s0,0,0,0l-.3.8c-.2.9-.5,2.1-.8,3.1.2-.7.4-1.8,1-4,0,0,0,0,0,0Z"/>
    <path class="cls-1" d="M95.8,107.8c.4-.6.5-1.5.3-2.3,0,.1,0,.3,0,.3.3,0,.6-.1.9-.2,1.7-.5,3.5-1.1,5.2-1.7.1,0,.4-.2,2.5-7.6,1.9-.7,3.8-1.5,5.6-2.2,0,0,0,0,0,0,1,1.5,2.9,1.8,3.4.4.6-1.7-1.4-4.4-3.2-3.8-1.1.6-.9,2.1-.4,3,0-.2-.2-.3-.2-.6-1.8.7-3.7,1.5-5.7,2.2q-.2.1-1,2.9c-.4,1.4-1,3.2-1.5,4.6-1.6.6-3.3,1.1-4.9,1.6-.3,0-.6.2-.9.3-.4-1-1.2-1.8-2.3-1.5-1.4.5-1.6,2.3-1.2,3.5.6,2,2.5,2.6,3.4,1.1Z"/>
    <path class="cls-1" d="M133.2,88.4s0,0,0,0c-.6.5,0,1.9.5,2.8,0-.1-.1-.2-.2-.4-2.3,1.5-5.2,3.2-8.5,4.9,0,0,0,0,0,0,.3.5.5.9.6,1,3.4-1.7,6.3-3.4,8.6-4.9,0,0,0,0-.1-.1.4.5,1.3,1.4,2.1,1.4,1.7,2.7,3.1,5.6,4.2,8.7.2.5.4,1,.5,1.5,0,0,0,0,0-.1-.6.6-.5,2.3,0,3.7.5,1.7,1.5,2.3,1.9,1.3.8-1.6-.3-5.3-1.5-5.2-.2-.5-.3-1-.5-1.5-1.1-3.1-2.6-6-4.2-8.7.3-.7,0-1.5-.4-2.3,0,0,.2-.1.3-.2,0,0,0,0,0,0s0,0-.1,0c0,0,.1,0,.2,0,0,0,.2-.1.2-.2,1.2-.9,2-1.8,2.6-2.6.6-.7.8-1.4.8-1.9.9,1.1,1.1,1.3,1.2,1.4h0c2.5,3.8,3.2,5.1,5.1,10.4l-.7-2c-.3-.9-.9-2.1-1.3-3-.9-2-2-3.8-3.2-5.5-.4-.8-2.9-4-3.4-4.3h0c0,.2.3.6,1.5,2,0,.5-.2,1.2-.8,1.9-.6.8-1.6,1.7-2.9,2.7-.1,0-.2.1-.3.2-.7-.8-1.6-1.3-2.2-1.1ZM134.8,91c0-.2,0-.4,0-.4-.1,0-.1.2,0,.4ZM134.8,90.6h0c0,0,.1,0,.2.1-.1,0-.2,0-.3-.1ZM141.1,103.1s0,0-.1.1c0,0,0,0,.1-.1ZM135.4,91s0,0,0-.1c0,0,0,0,0,.1Z"/>
    <path class="cls-1" d="M80.2,82.8l-.3.4c.3-.3.5-.6.8-.9,0,0,.1-.1.2-.2l-.7.7Z"/>
    <path class="cls-1" d="M97.7,71.7h-.2s0,0,0,0c-.6.2-1.2.6-1.7,1.3h0c.6-.7,1.2-1.1,1.9-1.3Z"/>
    <path class="cls-1" d="M96.9,72.2c-.4.2-.7.5-1.1.8.5-.3.8-.6,1.1-.8Z"/>
    <path class="cls-1" d="M99.5,71.2c-.4,0-.8.2-1.2.3.2,0,.5-.2.9-.3h.3Z"/>
    <path class="cls-1" d="M95.8,73s0,0,0,0c0,0,0,0,0,0h0Z"/>
    <path class="cls-1" d="M98.4,71.5c-.6.2-.9.4-1.5.7.5-.3.9-.6,1.5-.7Z"/>
    <path class="cls-1" d="M110.9,70h0,.1,0Z"/>
    <path class="cls-1" d="M102.2,70.6c-.2,0-.4,0-.6.1.2,0,.4,0,.6-.1Z"/>
    <path class="cls-1" d="M109.8,70c.4,0,.7,0,1,0-.3,0-.7,0-1,0Z"/>
    <path class="cls-1" d="M110.9,70.1h1.2c-.4,0-.8,0-1.2,0Z"/>
    <path class="cls-1" d="M116,70.6c-1.1-.1-2-.3-2.7-.4,1,.1,2.1.3,3.1.5-.1,0-.2,0-.4,0Z"/>
    <path class="cls-1" d="M112.6,70.2h-.4c.3,0,.7,0,1.1,0-.2,0-.4,0-.6,0Z"/>
    <path class="cls-1" d="M95.6,72.4h-.2c0,0,0,0,.4.6h0c-.2-.5-.2-.5-.2-.6Z"/>
    <path class="cls-1" d="M93.8,73.1h-.2c.6-.2,1.3-.2,2.2,0h0c-.8-.2-1.4-.2-2,0Z"/>
    <path class="cls-1" d="M114.6,72.6h0c0,.1.9.5,1.6.7-.3.3-.6.6-1,.9-.3.3-.7.5-1.1.8,0,0,0,0,0,0,.5.2.9.3,1,.4.4-.3.8-.6,1.2-.8,0,0,0,0,.1-.1.3-.3.6-.5.9-.8t0,0c1.3.4,2.2.5,2.5.4h0c.2,0,.5.2.7.3,0,0,0,0,0-.1-.1.3,1.1,1,1.7,1.3,0,0-.1,0-.2,0-.3.3-.8.7-1.2,1-.4.3-.9.6-1.4,1,.4.2.7.4,1,.6.5-.3,1-.7,1.4-1,0,0,0,0,0,0h0s0,0,.1,0c0,0,.1,0,.2-.1.4-.3.8-.6,1.1-1,0,0,0,0,0,0,1.5.7,2.6.9,2.4.4-.1-.3-.8-.8-1.6-1.2h0c.6-.8.7-1.4.4-1.9,0,0-.5-.2-1.1-.4.3.4.2,1-.4,1.8,0,0,0,0,0,0-.9-.4-1.8-.6-2.2-.5-.2,0-.4-.2-.7-.3-.2-.4-1.6-.9-3-1.3.5.1.9.2,1.1.3h0c.5-.7.6-1.2.3-1.5-.3,0-.9-.2-1.2-.3.2.3.1.8-.3,1.4h0c-.9-.2-1.7-.3-2-.2-6.2-1.4-12.6-1.3-18.9.6h0c6.2-1.8,12.7-1.8,18.8-.4ZM120.8,76.6c0,.1.2.2.3.3-.2-.1-.4-.2-.3-.3ZM114.7,72.5s0,0,0,0h0Z"/>
    <path class="cls-1" d="M105.1,70.2c.4,0,.8-.1,1.1-.1,1.5,0,2.5-.1,3.5-.1-1,0-2.3,0-3.4.1.3,0,.6,0,.7,0-.7,0-1.5.1-2.3.2-.3,0-.7,0-1.1.1-.7.1-.9.1-1.6.3.5,0,1-.1,1.5-.2-.8.1-1.4.3-1.4.3h0c-2.1.5-4.3,1.3-6.4,2.3h0c2.2-1,4.3-1.8,6.5-2.3,1-.1,1.9-.3,2.8-.5Z"/>
    <path class="cls-1" d="M148.1,108.5s0,0,0,0h0s0,0,0,0h0c0,.5-.3,1.1-.8,1.8-.9,1.2-2.6,2.6-4.8,4.1,0,.3,0,.6,0,.7,0-1.3-.5-2.5-1.2-2.4,0,0-.1,0-.2,0-.3.2-.5.6-.6,1h0c-4.2-4.8-8.9-8.1-9.2-8-.9.4-1.8.9-2.7,1.3-1-2.6-2.2-5.2-3.4-7.7,1.6-1.4-.4-4.8-2.3-4.9-.3,0-.4,0-.6.1-1.2.7-.7,2.5-.1,3.4.3.5,1,1.5,2.3,1.6,1.3,2.5,2.4,5.1,3.5,7.8-4.1,2-8.7,4-13.6,5.9-.7-1.8-1.3-3.6-2-5.3,1.1-.4,2.2-.8,3.2-1.3.1,0,.2-.1.2-.3,1.4-6.1,1.8-8.6,2.3-13.7-.3-.1-.4-.2-.7-.4,1.1.7,2.3.6,2.5-.5.3-1.6-1.8-3.8-3.3-3.6h0c-.7-.9-1.4-1.8-2.1-2.7,4.6-2.2,8.4-4.4,10.9-6.3,0,0,.1-.1.2-.1.9-.7,1.6-1.4,2.1-2,.7-1,.8-1.7.3-2.2,1.1.6,2.1,1.2,3.1,1.9.5.4,1.1.9,1.7,1.3.4.5.2,1.3-.5,2.2-.6.7-1.4,1.6-2.6,2.4-2.5,2-6.4,4.2-11.1,6.5,0,0,0,0,0,0,.4.4.6.7.7.9,4.7-2.3,8.6-4.6,11.2-6.6,0,0,.1-.1.2-.2,1-.8,1.9-1.6,2.4-2.3.7-1,.9-1.7.5-2.3.5.4,1,.9,1.6,1.3h-.1c-1.2-1.1-2.8-2.3-4-3.2-.1,0-.1,0-.2-.1-1-.7-2-1.3-3.1-1.9,0,0-.2-.1-.3-.2l-1.1-.6c.1,0,.2.1.3.2-.3-.1-.5-.3-.8-.4-.3-.2-1.2-.6-2.2-1,0,0-.1,0-.3-.1l-1.2-.4c.1,0,.2.1.3.1-.8-.3-1.5-.5-1.7-.5h0c-.3,0-.6-.2-.8-.2-.3-.1-1.2-.4-2.2-.6-.2-.1-.4-.2-.8-.3-.3,0-.6-.1-.8-.1.1,0,.3.1.4.2-.9-.1-1.6-.3-1.9-.2h0c-6.2-.8-12.7-.1-19,2.4h0c6.3-2.5,12.9-3.1,19.1-2.3h0c.2,0,.7.2,2.8.6,2.3.5,2.3.5,2.4.5h0c.3,0,.6.2.9.3,0,0,0,0-.1,0,0,0,.1,0,2.8,1.1,2,.8,2.2.9,2.2.8h0c.3.1.6.3.8.4.5.5.4,1.2-.3,2.2-.5.6-1.2,1.4-2.2,2.1-2.4,1.8-6.1,4-10.6,6.1-.2-.2-.4-.4-.5-.6h0c.1-.1.2-.3.2-.4.1-1.5-2.5-3.3-3.6-2.8-.6.3-.4,1.1.1,1.9,0,0,0,0,0,0-1.6.7-3.2,1.4-5,2.1-.6-.7-1.3-1.2-2-1-.3.2-.5.5-.6.9,0,0,0-.2,0-.3-2.4-1.6-3.5-2.5-3.5-2.5q-1.4-1.2-1.5-1.2c-1.2.4-2.3.8-3.5,1.2-2.4.7-4.6,1.3-6.5,1.8.3-.7.4-1.4.2-1.5h0c2.1-3.9,4.9-7,8.3-9.1h0s0,0,0,0c-3.5,2.1-6.4,5.3-8.6,9.2,0,0,0,0,0,0t0,0c-.4.2-1,.9-1.5,1.7,0,0,0,0,0,0-2,.3-3.5.4-4.5.2.2-.2.4-.5.6-.7t0,0h0c.4,0,3.6-3.6,3.9-3.9h0c2.9-2.6,6.3-4.8,10.1-6.4h0c-3.8,1.6-7.2,3.8-10.1,6.4,0,0,0,0,0,0h0c-.2,0-1,.7-1.9,1.5,0,0,0,0,0,0-.6-.2-.8-.6-.3-1.3.4-.4.4-.4,1-1l-1.2,1c-.3.3-.4.3-.7.8-.5.7-.4,1.2.3,1.4h0c-.7.7-1.2,1.4-1.2,1.6h0c-.2.2-.4.4-.6.7-1-.2-1.3-.8-.6-1.7-.3.3-.5.6-.8.9-.7,1-.4,1.6.6,1.8-.9,1.2-1.8,2.5-2.6,3.8t0,0c-.3.1-.9.9-1.4,1.8,0,0,0,0,0,0-1-.3-1.3-1-.7-2l-.7,1.1c-.6,1-.3,1.6.8,1.9,0,0,0,0,0-.1-.6,1.3-.8,2.3-.4,2.2.6-.2,2.6-4.2,2.5-4.8h0c.8-1.3,1.7-2.6,2.6-3.9,1,.2,2.6.1,4.7-.2,0,0,0,0,0,0-.4,1-.4,1.6-.1,1.7,0,0,0,0,0,0-.9,2.2-1.6,4.5-2.1,6.9.1,0,.2,0,.3-.1-.7.1-1.5,1.6-1.6,3-.2,1.6.4,2.6,1.3,2,.9-.7,1.3-2.8,1.1-4h0c1.2-2.1,1.7-2.8,3.2-5.4,2-.5,4.2-1.1,6.5-1.8.6-.2,1.2-.4,1.8-.6l.9.9c0,.5,0,1,0,1.5.4,1.6,2,2.1,2.7.8.7-1.4-.3-4-1.8-3.6-.3.1-.5.3-.6.6h0q-1.1-1.1-1.2-1c-.6.2-1.2.4-1.9.6-2.3.7-4.4,1.3-6.4,1.8q-.1,0-.2.2c-1.5,2.5-1.6,2.6-3.4,5.6,0-.1-.2-.2-.3-.3,0,0,0,0,0,0,.5-2.4,1.2-4.7,2-6.9.4-.3.9-1,1.3-1.8,2-.4,4.3-1,6.9-1.8,1.2-.4,2.5-.8,3.7-1.2,1.5,1.4,3.3,2.6,4.8,3.7h0c0,.4.1.9.4,1.3.9,1.6,2.5,1.8,2.9.6.1-.4.1-1,0-1.5,1.8-.7,3.5-1.5,5.1-2.2h0c.7.7,1.5,1,2.1.9.2.2.3.4.5.6-5.5,2.6-12.1,5.2-18.7,7.2-.4.1-.8.3-1.3.4,0,0,0,.1-.1.2-.3.6-1.5,3.4-2.6,5.6-4.4,1.2-8.2,2-11.2,2.4.3-2.5.8-4.9,1.4-7.2h0c1.1-.6,2.5-4.7,1.6-4.8h0c-.6.1-1.5,1.5-1.9,2.7-.4,1.1-.4,2,0,2.2-.7,2.3-1.2,4.7-1.5,7.2-1,.1-1.8.2-2.6.2-.5-4.1-.3-5.3.3-8.4-.2.4-.3.5-.5.8-.4,2.3-.8,4.7-.2,8.7,0,.1,0,.1.1.2.8,0,1.7,0,2.8-.2-.1,1.2-.2,2.4-.2,3.6,0,0,.1,0,.2,0-.5.2-.9,1.1-1,2.2h0c-1.7.1-3.2.1-4.3,0h0c0,.7,0,1.1,0,1.3.9.1,2.1.1,3.4,0,.1,5,1,10.1,2.8,15,.9,2.3,1.9,4.5,3.1,6.6-1.4,0-2.6,0-3.6,0,.3.5.5.8.6,1,1,.1,2.2.1,3.6,0,1.5,2.5,3.3,4.7,5.3,6.6h0c-.4.1-.2.7.5,1.5t0,0c-2.1,0-3.6-.1-4.5-.6-2.7-2.3-5.2-5-7.2-8.1.2.1.5.2.9.3h0c.9,1.2,1.8,2.1,1.9,1.7.1-.6-2.2-4.4-3.1-4.7,0,0,0,0,.2,0-.8-1.5-1.4-3-2-4.6-1.6-4.2-2.4-8.6-2.5-12.9h0s0,0,.1,0c.6-.6.8-5.2,0-5.5-.4,0-.7,1-.8,2.2,0,0,0,0,0-.1-.2,0-.3-.1-.5-.1h0c0,.6,0,1.1,0,1.2.1,0,.3.1.4.1h0c0,1,.2,1.9.5,2.2h0c.1,4.3.9,8.7,2.5,12.9.6,1.6,1.3,3.1,2,4.6,0,0,0,0,0,0h0c-.3,0,0,1,.6,2.1,0,0,0-.1-.1-.2-.3,0-.6-.2-.9-.3-1.2-2-2.3-4.2-3.2-6.6-1.5-4.2-2.3-8.5-2.4-12.7h0s0,0,0,0c.4-.4.6-5.2.2-5.6,0,0,0,0,0,.1.3-2.3.8-4.6,1.4-6.8h0c.3-.1.8-1.3,1.2-2.4.3-.7.9-2.5.7-2.7-.2,0-.7.8-1.2,1.8,0,0,0,0,0,0-.4-.3-.5-.8-.2-1.4l-.5,1.2c-.2.6-.1,1,.2,1.4,0,0,0,0,0-.1-.4,1.1-.6,2-.5,2.3h0c-.7,2.2-1.2,4.4-1.5,6.7,0,0,0,0,0,0,0,0,0,0,0,0-.3,0-.5,1.3-.6,2.6,0-.3,0-.6,0-.8-.3-.2-.4-.5-.4-.8,0-.7.1-1.3.2-1.9,0,.4-.1,1-.2,1.7h0c0,.4,0,.8,0,1.2h0c0,.3,0,.5,0,.8,0-.2,0-.4,0-.6,0,.3.2.6.4.9h0c0,1.2,0,2.2.3,2.5h0c0,4.3.7,8.5,2.2,12.7.9,2.3,1.9,4.5,3.2,6.6-.2-.1-.4-.3-.6-.5l.7,1.1c.1.2.3.4.5.5,2,3.1,4.5,5.8,7.2,8.1,0,0-.1,0-.2-.1l1,.8s0,0,.1.1c.9.7,1.8,1.3,2.7,1.9l.8.5,1.1.6.9.5c-.3-.1-.6-.3-.8-.4,1.1.6,3.2.7,6.2.3,0,0,0,0,0,0,1.4.8,2.9,1.2,2.9.6,0-.7-2.8-2.6-4.1-2.5-.6.1-.3.7.5,1.3,0,0,0,0,0,0-3.1.4-5.3.3-6.4-.3-1.2-.7-2.3-1.5-3.4-2.3.9.4,2.3.6,4.4.6,0,0,0,0,0,0,1.3,1,2.8,1.6,2.8,1s-2.5-2.9-3.7-3.1h0c-1.9-2-3.6-4.2-5.1-6.7,3.2-.3,7.3-1,12.2-2.2.7.9,1.6,1.3,2.4,1.3h-.2c.5,1,1.1,1.9,1.6,2.8-1.6.4-3.1.8-4.6,1.1-.1,0-.1,0-.1.2-.1,3.5,0,4.3.7,6.7,0,0,0,0,.1,0,.4.1.7.3.8.4-.8-2.6-.8-3.6-.7-6.4,1.4-.3,2.8-.7,4.4-1,1.2,1.9,2.4,3.5,3.7,5,.1,0,.2-.1.3-.1-.9.3-.9,1.2,0,2.1,1.3,1.1,3.4,1.3,3.4,0,0-1-1.8-2.3-3.1-2.2h.1c-1.2-1.5-2.5-3.2-3.6-5,2-.5,4-1.1,6.2-1.8,3.1-1,6.3-2,9.3-3.2q4.9,2.7,5.1,2.7c7.7-3.1,14.7-6.4,19.4-9.4,0,.3,0,.5-.1.8h0c-.5.5-.9,1.4-1.1,2.3,0,0,0,0,0,0-1.4.9-3,1.7-4.7,2.6,0,.3,0,.6,0,1,1.7-.9,3.2-1.7,4.6-2.5h0c0,.7,0,1.3.3,1.2h0c0,.3-.1.5-.2.7,0,0,.1-.1.2-.2-.5.3-1.1,1.3-1.5,2.3,0,0,0,0,0,0-.8.5-1.7,1-2.6,1.5,0,0-.1,0-.2.2-2.1,3.2-3.6,5.1-5.5,7.4h0c-.1-.1-.3,0-.4,0-.6.3-1.1,1-1.4,1.5,0,0,0,0,0-.1-2.7,1.2-5.7,2.4-8.8,3.5-.1,0-.1.1,0,.2.8.8,1.4,1.2,1.9,1.1.1,0,.1,0,.2,0-.4,0-.9-.3-1.6-1,2.9-1,5.6-2.1,8.1-3.2h0c-.1.2-.2.6,0,.5h0c-.7.9-1.5,1.6-2.5,2.1,0,0,0,0,0,0h.2c0,0,0-.1,0-.1,1-.5,1.9-1.2,2.6-2.2.6-.4,1.6-1.5,1.7-2,2.5-2.9,3.2-3.8,5.5-7.1.9-.5,1.7-1,2.5-1.4t0,0c-.2.6-.3,1.2,0,1.2h0c-1.9,3.9-4.7,7.1-8.2,9.3l.4-.2c3.5-2.3,6.2-5.4,8.1-9.2.4-.4,1-1.2,1.4-2,1.5-1,2.6-1.9,3.3-2.7-.2.4-.4.8-.6,1.2-.3.6-.7,1.2-1.1,1.7l.2-.2c.3-.5.6-1,.9-1.5.3-.3,1.1-1.9,1.7-3.1h0c0,0,0,0,0,0,.4-.8.7-1.5.7-1.6h0c0-.2.2-.4.3-.6.2-.4.6-1.3.9-2.3,0-.1.1-.3.2-.4l.4-1.2c0,.1-.1.3-.2.5.2-.7.3-1.4.3-1.6,0,0,0,0,0,0,0,.1-.3.4-.9,2.5-.8,1-2.2,2.1-3.9,3.2.1-.7,0-1.3-.3-1.3h0,0c0-.3,0-.5.1-.8,2.4-1.6,4.2-3,5.2-4.3.4-.5.6-.9.7-1.3l.2-1v-.2c0,.4-.3.9-.7,1.4-1,1.3-2.8,2.7-5.3,4.3,0-1.1.1-2.2.1-3.4.5-.6.7-1.4.7-2.2,2.2-1.5,3.9-2.9,4.8-4.1.5-.7.8-1.3.8-1.8h0v-.3c0-.4,0-.7,0-1ZM123.3,97.4c0-.1,0-.2.1-.3,0,0-.1.1-.1.3ZM123.5,97.1s.1,0,.1,0c0,0-.1,0-.1,0ZM123.7,97h0s0,0,0,0c0,0,0,0-.1,0ZM124,97.3c0,0,0,.1.1.1,0,0,0-.1-.1-.1ZM129.8,83.1c.1.1.2.2.2.2,0,0,0,0,.1.1-.1,0-.3-.2-.4-.3ZM133.4,78.6s0,0,0,0c0,0,0,0,0,0h0ZM131,76.8s0,0,0,0c0,0,0,0,0,0ZM120.2,71.8s0,0,0,0t0,0h0ZM121,72h0ZM124.8,79.2s.1,0,.2,0c-.1,0-.3-.2-.4-.3.1.1.3.2.3.2ZM104.5,139.2c0,0-.2,0-.3,0,0,0,.1,0,.3,0ZM76.6,108.5c0,0,0-.2,0-.3,0,0,0,.2,0,.3ZM76.6,108.2c0-.1,0-.2.1-.3t0,0c0,.1-.1.2-.1.3ZM76.8,107.9s0,0,0,0h0ZM76.9,107.9s.1,0,.1.2c0,0,0-.1-.1-.2ZM77,108.3c0,0,0,.1,0,.2,0,0,0-.1,0-.2ZM83,130.5c-1.2-2-2.2-4.2-3.1-6.6-1.8-4.9-2.7-10-2.9-15,.1,0,.3,0,.4,0h0c.1,1.1.6,2,1,2.2.4,4.2,1.3,8.6,2.8,12.7.9,2.3,1.9,4.5,3,6.6-.5,0-1,.1-1.5.1ZM96.1,125.8c-1.1.4-1.2,1.5-.9,2.6,0,0,0,0,0,0-3.9,1-7.3,1.6-10.2,2-1.1-2-2.2-4.2-3-6.6-1.5-4.2-2.5-8.5-2.9-12.7,0,0,.1-.1.2-.2.4-.5.6-1.4.7-2.3h0c1.2-.1,2.6-.4,4-.7,1.8,2.4,2,2.6,4.7,5.4,0-.4.2-.7.4-1-2.4-2.5-2.5-2.6-4.7-5.5-.1-.1-.2-.1-.3-.1-1.5.3-2.9.6-4.1.7,0,0,0,0,0,0,0,.5,0,.9,0,1.1,0-1.4-.4-2.8-1-3,0-1.2,0-2.4.2-3.5,3.1-.4,7.1-1.2,11.7-2.5,0,0,0-.1.1-.2.9-1.9,1.7-3.8,2.5-5.7.4-.1.7-.2,1.1-.3,6.8-2.1,13.6-4.8,19.3-7.4.7.9,1.4,1.8,2,2.7,0,0,.2-.1.3-.2-.9.5-.7,1.9,0,3,.3.4.7.8,1,1,0,0,0,0-.1-.1h-.1c-.4,4.9-.9,7.7-2.2,13.3-1,.4-2,.8-3,1.2-.5-1.2-.9-2.4-1.4-3.6.2-.2.4-.4.5-.7.8-1.9-1-4.8-3-4.2-1.3.6-1.3,2.4-.8,3.5.6,1.3,1.8,2,2.8,1.7-.1,0-.2,0-.3,0h0c.5,1.2.9,2.4,1.4,3.6-3.9,1.5-8,2.9-12.1,4.2-2.3.7-4.5,1.3-6.6,1.9h0c-.4-1-1.3-1.9-2.3-1.7-1.2.4-1.5,2.1-1,3.5.7,2.1,2.6,2.8,3.4,1.3.4-.8.4-1.9,0-2.8.1.3.2.6.2.9,2.1-.6,4.3-1.2,6.6-1.9,4.1-1.3,8.3-2.7,12.2-4.2.7,1.8,1.3,3.5,2,5.3-1.1.4-2.2.8-3.3,1.2,0,0,0,0,0,0-.6-1.1-1.6-1.8-2.8-1.5-1.6.7-1.5,2.6-1,3.7.2.5.5.9.8,1.2-.7,2-.8,2.5-2.4,7.3-.2,0-.4.1-.6.2-1.8.6-3.5,1-5.1,1.6-.6-1-1.7-1.8-2.9-1.6ZM121.5,131c-4.8-2.8-5-2.8-5.2-2.8-3.2,1.2-6.4,2.3-9.6,3.3-2.2.7-4.3,1.3-6.3,1.8-.6-.9-1.1-1.9-1.6-2.8.3-.2.5-.4.6-.8.1-.4.1-.8,0-1.2,1.6-.4,3.4-1,5.1-1.5.3,0,.5-.2.8-.3.2,0,.2-.1.3-.3q1.4-4.4,2.4-7.4c.9.3,1.9,0,2.4-1,.2-.6.3-1.2.1-1.8h0c1.1-.4,2.2-.8,3.3-1.2.4,1.2.9,2.4,1.3,3.5,0,0,0,.1,0,.2h0c-.9.7-1,2.2-.5,3.3.9,2,3.2,2.1,3.9.3.2-.5.2-1,.1-1.6,2-.7,3.9-1.5,5.7-2.3,2.5,1.7,3.3,2.2,5.4,3.9,0,0,.1,0,.2,0,1.9-.9,3.7-1.8,5.3-2.6,0,0,0,0,0,0,.4,1.4,1.3,1.8,2.1.8,1.2-1.7.7-4.9-.8-4.7,0,0-.2,0-.3.1-1,.6-1.2,2.1-1.1,3.2,0-.1,0-.3,0-.4-1.6.8-3.3,1.7-5.1,2.5-2.5-1.8-2.7-2-5.5-3.9-.1,0-.2,0-.3,0-1.9.8-3.9,1.7-5.9,2.5-.5-.9-1.4-1.5-2.3-1.3h0c0,0,0,0,0-.1-.4-1.2-.9-2.3-1.3-3.5,4.9-1.9,9.5-3.9,13.6-5.9.5,1.2.9,2.5,1.3,3.7,0,0,.1,0,.1-.1-.9.7-1.1,2.3-.6,3.6.7,1.9,2.3,2.2,3.1.6.9-1.9-.3-4.7-1.8-4.5-.4-1.2-.8-2.5-1.3-3.7l2.5-1.3c4.9,3.7,6.2,5,8.6,7.8,0,.5,0,1.1,0,1.6.1,1.2.6,1.8,1.1,1.7h0c0,1.1,0,2.2-.1,3.3-4.8,3-11.8,6.4-19.6,9.5ZM144.9,124.3s0,0,0,0h0ZM145,123.8s0,0,0,0c0,0,0,0,0,0ZM141.6,125.4c1.7-1.2,3-2.2,3.8-3.2h0c-.4,1.3-.4,1.4-.4,1.5,0,0,0,0,0,0h0c0,.2-.2.4-.3.7,0,0,0,0,0,0,0,.2-.3.6-1.4,2.8h0c0-.1.1-.3.2-.5-.7.9-1.9,1.8-3.4,2.8.2-.6.3-1.1,0-1.2,0,0,0,0-.1,0h0c0-.2.1-.5.2-.7.5-.5.9-1.3,1.2-2.2Z"/>
    <path class="cls-1" d="M114.8,144.2c.2-.1.4-.3.3-.7,0-.1,0-.3-.1-.4h0c4.9-1.5,9.7-3.4,14-5.3,0,0,.1,0,.2-.2,2-2.9,2.5-3.9,3.8-6.3,0,0,0,0-.1-.1.3.4.8.3,1.3-.2,1.3-1.3,1.4-4.1.2-4-.1,0-.3,0-.4.1-1,.6-1.4,2.2-1.4,3s0,.6.1.8h0c-1.5,2.7-2.7,4.6-3.8,6.3-4.4,2-9.4,3.9-14.3,5.5,0,0,0,0,0,0-.5-.4-1.3-.7-2-.6,0,0,0,0,0,0-1.1-1.2-2.2-2.6-3.2-4.3.2-.1.3-.2.4-.4,3.2,1.3,5.6,2.2,5.6,2.2.1,0,.2,0,.3,0,3.6-1.2,7.2-2.6,10.6-4,0,0,.1-.1.1-.2.2-.4.5-1,.8-1.4,0,0,0,0-.1,0,.6.3,1.3,0,1.8-.8.9-1.5.4-3.4-.9-3.2-.1,0-.2,0-.3.1-1.2.6-1.4,2-1.3,2.8,0,.3.2.6.3.8h0l-.7,1.3c-3.3,1.4-6.9,2.8-10.5,4q-2.4-1-5.5-2.3s0,0,0,.1c.1-1.4-1.5-2.9-3.2-2.5-1.4.5-1.1,1.8-.5,2.6.6.8,1.6,1.2,2.4,1.2,1.1,1.6,2.3,3.1,3.4,4.2,0,0,.1,0,.1,0-.6.3-.7.8-.3,1.3h0c-3.8,1.1-7.1,1.8-9.8,2.2-1.1-.5-2.3-1.1-3.4-1.8-.1,0-.2,0-.4,0h0c1.1.7,2.2,1.3,3.4,1.8-2.6.3-4.5.3-5.6,0l1.2.4c1,.3,2.9.3,5.3,0,.2,0,.5.2.7.3,0,0,0,0,.1,0-.3,0-.1.2,0,.3.2.1.5.3.9.4t0,0c-1.7.2-3,.2-3.9,0l1.3.3c.8.1,2,.1,3.6,0,0,0-.1,0-.2,0,.9.2,1.9.3,2.4.3h0c2,.3,4,.4,6,.3h.3c-1.1,0-2.6.1-3.8,0-.7,0-1.6-.3-2.3-.3h0s0,0,0,0c0-.1-.4-.3-.9-.4.9-.1,1.9-.3,3-.6,2.4.9,4.8,1.1,7.1.8h.3c-2.4.3-4.9,0-7.4-1-.3-.1-.4,0-.6,0-1.2.3-2.3.5-3.4.7-1-.3-2-.4-2.4-.4,0,0,.1,0,.2,0-.2,0-.4-.2-.7-.3,2.6-.4,5.8-1.1,9.4-2.2,0,0,0,0,0,0,.7.4,1.7.6,2.3.3-.1,0-.3.1-.4.1,2.1,1.7,4.1,2.5,5.9,2,0,0,0,0,0,0h0c0,0,.1,0,.2,0,0,0,0,0-.1,0-1.6.5-3.5-.3-5.5-2ZM132.7,131.1s0,0,0,0h0s0,0,0,0Z"/>
    <path class="cls-1" d="M146.1,101.4c-.7.9-1.8,2-3.3,3.1,0,0,0,0,0,0,.2.5.3,1,.3,1.2,1.5-1.1,2.6-2.2,3.3-3.1.5-.7.8-1.2.8-1.7h0c0-.2,0-.4-.1-.7,0,.2.1.5.1.6,0-.1,0-.2,0-.3l-.3-1.3v.4c0,.6-.2,1.2-.7,1.9ZM147,99.8c0-.1,0-.2,0-.2,0,0,0,.1,0,.2Z"/>
    <path class="cls-1" d="M80,133.1c0,0-.1,0-.3,0,.3.4.6.8.9,1.2,0,0,0,0,.1,0-.3,0,0,.7.7,1.4.2.2.4.5.6.7,1.1,1.2,2.4,2.1,2.4,1.8,0-.4-2.5-3.4-3.5-3.9h0c-.3-.4-.6-.8-.9-1.2Z"/>
  </g>
  <path class="cls-2" d="M164.7,125.7h-1v-5.4h1v5.4ZM170.3,125.7h-1v-4h.8v.4h.1c.2-.2.3-.3.5-.4.2,0,.4-.1.7-.1h0c.3,0,.5,0,.7.1.2.1.4.3.5.5.1.2.2.5.2.9h0v2.5h-1v-2.5c0-.3,0-.5-.2-.6-.1-.1-.3-.2-.5-.2h0c-.1,0-.2,0-.3,0-.1,0-.2,0-.3.1,0,0-.2.1-.3.2h0v2.8ZM178.4,125.7h-1v-4h.8v.4h.1c.1-.2.3-.3.5-.4.2,0,.4-.1.7-.1h0c.3,0,.5,0,.7.1.2.1.4.3.5.5.1.2.2.5.2.9h0v2.5h-.9v-2.5c0-.3,0-.5-.2-.6-.1-.1-.3-.2-.5-.2h0c0,0-.2,0-.3,0,0,0-.2,0-.3.1,0,0-.2.1-.2.2h0v2.8ZM187.1,125.8h0c-.4,0-.7,0-1-.2-.3-.1-.5-.4-.6-.7-.1-.3-.2-.7-.2-1.2h0c0-.5,0-.8.2-1.2.1-.3.4-.5.6-.7.3-.1.6-.2,1-.2h0c.4,0,.7,0,1,.2.3.2.5.4.6.7.1.3.2.7.2,1.2h0c0,.5,0,.8-.2,1.2-.2.3-.4.5-.6.7-.3.2-.6.2-1,.2ZM187.1,125h0c.2,0,.3,0,.5-.1.1,0,.2-.2.3-.4,0-.2.1-.5.1-.8h0c0-.3,0-.6-.1-.8,0-.2-.2-.3-.3-.4-.1,0-.3-.1-.5-.1h0c-.2,0-.3,0-.5.1s-.2.2-.3.4c0,.2-.1.4-.1.8h0c0,.3,0,.6.1.8,0,.2.2.3.3.4s.3.1.5.1ZM195.5,125.7h-1.2l-1.4-4h1l1.1,3.2h0l1.1-3.2h.9l-1.4,4ZM202,125.8h0c-.4,0-.7-.1-.9-.3-.2-.2-.3-.5-.3-.8h0c0-.4.1-.6.4-.8.2-.2.6-.3,1.2-.4h.9c0,0,0,.5,0,.5h-.9c-.3.1-.4.2-.5.3-.1.1-.2.2-.2.4h0c0,.2,0,.3.2.4.1,0,.2.1.5.1h0c.1,0,.3,0,.4,0,.1,0,.3-.1.4-.3h0v-1.6c0-.2,0-.4,0-.5,0-.1-.2-.2-.3-.2-.1,0-.3,0-.5,0h0c-.1,0-.3,0-.5,0s-.4,0-.6.1h0v-.7c.2,0,.4,0,.6-.1.2,0,.4,0,.6,0h0c.4,0,.7,0,1,.1.3.1.4.3.6.5.1.2.2.5.2.9h0v2.4h-.8v-.4h-.1c-.1.2-.3.3-.5.4-.2,0-.4.1-.6.1ZM210.2,125.8h0c-.5,0-.8-.1-1.1-.4-.2-.2-.4-.6-.4-1.1h0v-2.6l.2-1.4h.8v3.9c0,.3,0,.5.2.6.1.1.3.2.5.2h0c0,0,.1,0,.2,0,0,0,.2,0,.2,0h0v.8c-.1,0-.2,0-.3,0-.1,0-.2,0-.3,0ZM210.9,122.5h-2.7v-.8h2.7v.8ZM216.2,125.7h-1v-4h1v4ZM215.7,121.1h0c-.2,0-.3,0-.5-.1,0,0-.2-.2-.2-.4h0c0-.2,0-.3.2-.4.1,0,.3-.1.5-.1h0c.2,0,.4,0,.5.1.1,0,.2.2.2.4h0c0,.2,0,.3-.2.4,0,0-.3.1-.5.1ZM223,125.7h-1.2l-1.4-4h1l1.1,3.2h0l1.1-3.2h.9l-1.4,4ZM230.5,125.8h0c-.5,0-.9,0-1.2-.2-.3-.1-.5-.4-.7-.7-.2-.3-.2-.7-.2-1.2h0c0-.4,0-.8.2-1.1.1-.3.3-.5.6-.7.3-.2.6-.2.9-.2h0c.4,0,.7,0,.9.2.2.2.4.4.6.7.1.3.2.7.2,1.2h0v.3h-2.9v-.6h2.1-.2c0-.2,0-.5,0-.6,0-.2-.1-.3-.3-.4-.1,0-.3-.1-.4-.1h0c-.2,0-.3,0-.4.1-.1,0-.2.2-.3.4,0,.2,0,.4,0,.7h0v.4c0,.3,0,.5.1.7,0,.2.2.3.4.4.2,0,.4.1.7.1h0c.2,0,.3,0,.5,0,.2,0,.3,0,.5-.1h0v.7c-.2,0-.4,0-.6.1-.2,0-.4,0-.6,0ZM243,125.8h0c-.2,0-.5,0-.7,0-.2,0-.5,0-.7-.2h0v-.8c.2,0,.3,0,.5.1.2,0,.3,0,.5,0,.2,0,.3,0,.5,0h0c.4,0,.7,0,.8-.2.2-.1.3-.3.3-.6h0c0-.2,0-.4-.2-.5-.1-.1-.4-.2-.7-.3h-.4c-.5-.2-.8-.4-1.1-.6-.2-.2-.4-.6-.4-1h0c0-.5.2-.9.5-1.2.4-.3.9-.4,1.6-.4h0c.2,0,.5,0,.7,0,.2,0,.4,0,.6.1h0v.8c-.2,0-.4,0-.6-.1-.2,0-.4,0-.6,0h0c-.3,0-.5,0-.7,0-.2,0-.3.1-.4.2,0,.1-.1.2-.1.4h0c0,.2,0,.3.2.5.1.1.3.2.6.3h.4c.3.2.6.3.8.4.2.1.4.3.5.5.1.2.2.4.2.7h0c0,.3,0,.6-.2.9-.2.2-.4.4-.7.5-.3.1-.7.2-1.1.2ZM251.2,125.8h0c-.4,0-.7,0-1-.2-.3-.1-.5-.4-.6-.7-.1-.3-.2-.7-.2-1.2h0c0-.5,0-.8.2-1.2.1-.3.4-.5.6-.7.3-.1.6-.2,1-.2h0c.4,0,.7,0,1,.2.3.2.5.4.6.7s.2.7.2,1.2h0c0,.5,0,.8-.2,1.2-.1.3-.4.5-.6.7-.3.2-.6.2-1,.2ZM251.2,125h0c.2,0,.3,0,.5-.1.1,0,.2-.2.3-.4,0-.2.1-.5.1-.8h0c0-.3,0-.6-.1-.8,0-.2-.2-.3-.3-.4s-.3-.1-.5-.1h0c-.2,0-.3,0-.5.1-.1,0-.2.2-.3.4,0,.2,0,.4,0,.8h0c0,.3,0,.6,0,.8,0,.2.2.3.3.4.1,0,.3.1.5.1ZM258.5,125.7h-.9v-5.9h.9v5.9ZM264.4,125.8h0c-.3,0-.5,0-.7-.2-.2-.1-.3-.3-.5-.5-.1-.2-.2-.5-.2-.9h0v-2.5h1v2.5c0,.3,0,.5.2.6.1.1.3.2.5.2h0c0,0,.2,0,.3,0,0,0,.2,0,.3-.1,0,0,.2-.1.2-.2h0v-2.8h1v4h-.8v-.4h0c-.2.2-.3.3-.5.4-.2,0-.4.1-.6.1ZM272.8,125.8h0c-.5,0-.8-.1-1-.4-.2-.2-.4-.6-.4-1.1h0v-2.6l.2-1.4h.8v3.9c0,.3,0,.5.2.6s.3.2.5.2h0c0,0,.1,0,.2,0,0,0,.2,0,.2,0h0v.8c-.1,0-.2,0-.3,0-.1,0-.2,0-.4,0ZM273.5,122.5h-2.7v-.8h2.7v.8ZM278.8,125.7h-.9v-4h.9v4ZM278.3,121.1h0c-.2,0-.4,0-.5-.1,0,0-.2-.2-.2-.4h0c0-.2,0-.3.2-.4,0,0,.3-.1.5-.1h0c.2,0,.4,0,.5.1,0,0,.1.2.1.4h0c0,.2,0,.3-.1.4,0,0-.2.1-.5.1ZM285.1,125.8h0c-.4,0-.7,0-1-.2-.3-.1-.5-.4-.6-.7-.2-.3-.2-.7-.2-1.2h0c0-.5,0-.8.2-1.2s.4-.5.6-.7c.3-.1.6-.2,1-.2h0c.4,0,.7,0,1,.2.3.2.5.4.6.7s.2.7.2,1.2h0c0,.5,0,.8-.2,1.2-.2.3-.4.5-.6.7-.3.2-.6.2-1,.2ZM285.1,125h0c.2,0,.3,0,.5-.1.1,0,.2-.2.3-.4,0-.2,0-.5,0-.8h0c0-.3,0-.6,0-.8,0-.2-.2-.3-.3-.4-.1,0-.3-.1-.5-.1h0c-.2,0-.3,0-.5.1-.1,0-.2.2-.3.4,0,.2-.1.4-.1.8h0c0,.3,0,.6.1.8,0,.2.2.3.3.4.1,0,.3.1.5.1ZM292.3,125.7h-.9v-4h.8v.4h.1c.2-.2.3-.3.5-.4.2,0,.4-.1.7-.1h0c.3,0,.5,0,.7.1.2.1.4.3.5.5.1.2.2.5.2.9h0v2.5h-.9v-2.5c0-.3,0-.5-.2-.6-.1-.1-.3-.2-.5-.2h0c0,0-.2,0-.3,0-.1,0-.2,0-.3.1-.1,0-.2.1-.3.2h0v2.8ZM300.5,125.8h0c-.2,0-.4,0-.6,0-.2,0-.4,0-.6-.1h0v-.7c.2,0,.4.1.6.1.2,0,.4,0,.6,0h0c.3,0,.5,0,.6-.1.1,0,.2-.2.2-.4h0c0-.1,0-.2-.1-.3s-.2-.1-.3-.2h-.6c-.4-.2-.6-.3-.8-.5-.2-.2-.2-.4-.2-.7h0c0-.4.1-.7.4-.9.3-.2.7-.3,1.3-.3h0c.2,0,.4,0,.5,0,.2,0,.3,0,.5,0h0v.7c-.2,0-.3,0-.5,0-.2,0-.3,0-.5,0h0c-.2,0-.4,0-.6,0-.1,0-.2,0-.3.2,0,0,0,.2,0,.2h0c0,.1,0,.2.1.3,0,0,.2.1.3.2h.6c.4.2.6.3.8.5.2.2.3.4.3.8h0c0,.4-.1.7-.4.9-.3.2-.7.3-1.2.3ZM313,125.7h-.9v-4h.9v4ZM312.5,121.1h0c-.2,0-.4,0-.5-.1,0,0-.1-.2-.1-.4h0c0-.2,0-.3.1-.4.1,0,.3-.1.5-.1h0c.2,0,.4,0,.4.1,0,0,.1.2.1.4h0c0,.2,0,.3-.1.4,0,0-.2.1-.4.1ZM318.6,125.7h-.9v-4h.8v.4h.1c.2-.2.3-.3.5-.4.2,0,.4-.1.7-.1h0c.3,0,.5,0,.7.1.2.1.4.3.5.5.1.2.2.5.2.9h0v2.5h-.9v-2.5c0-.3,0-.5-.2-.6-.1-.1-.3-.2-.5-.2h0c-.1,0-.2,0-.3,0-.1,0-.2,0-.3.1-.1,0-.2.1-.3.2h0v2.8ZM332.8,125.8h0c-.4,0-.8-.1-1-.4-.2-.2-.4-.6-.4-1.1h0v-2.6l.2-1.4h.8v3.9c0,.3,0,.5.2.6.1.1.3.2.5.2h0c0,0,.1,0,.2,0,0,0,.1,0,.2,0h0v.8c0,0-.2,0-.3,0-.1,0-.2,0-.4,0ZM333.5,122.5h-2.7v-.8h2.7v.8ZM338.8,125.7h-1v-5.9h1v2.3h0c.1-.2.3-.3.5-.4.2,0,.4-.1.6-.1h0c.2,0,.5,0,.6.1.2.1.3.3.5.5.1.2.2.5.2.9h0v2.5h-1v-2.5c0-.3,0-.5-.2-.6-.1-.1-.3-.2-.5-.2h0c-.1,0-.2,0-.3,0-.1,0-.2,0-.3.1-.1,0-.2.1-.2.2h0v2.8ZM347.7,125.8h0c-.5,0-.8,0-1.1-.2-.3-.1-.5-.4-.7-.7-.1-.3-.2-.7-.2-1.2h0c0-.4,0-.8.2-1.1.1-.3.3-.5.6-.7.3-.2.6-.2.9-.2h0c.4,0,.7,0,.9.2.2.2.4.4.6.7.1.3.2.7.2,1.2h0v.3h-2.9v-.6h2.1-.2c0-.2,0-.5,0-.6,0-.2-.1-.3-.3-.4-.1,0-.3-.1-.4-.1h0c-.2,0-.3,0-.4.1-.1,0-.2.2-.3.4,0,.2,0,.4,0,.7h0v.4c0,.3,0,.5.1.7,0,.2.2.3.4.4.2,0,.4.1.7.1h0c.2,0,.3,0,.5,0,.2,0,.3,0,.5-.1h0v.7c-.2,0-.4,0-.6.1-.2,0-.4,0-.6,0ZM360.4,125.8h0c-.1,0-.3,0-.4,0-.2,0-.3,0-.5,0-.2,0-.3,0-.5,0h0v-5.2c.2,0,.3,0,.5,0,.2,0,.4,0,.5,0,.2,0,.4,0,.6,0h0c.9,0,1.6.2,2.1.7.5.4.7,1.1.7,2.1h0c0,.6-.1,1.2-.3,1.6-.2.4-.6.7-1,.9-.5.2-1,.3-1.7.3ZM360.7,125h0c.4,0,.7,0,1-.2.3-.1.5-.3.6-.6.1-.3.2-.7.2-1.1h0c0-.5,0-.8-.2-1.1-.1-.3-.3-.5-.6-.6-.3-.1-.6-.2-1-.2h0c-.1,0-.2,0-.3,0-.1,0-.2,0-.3,0h0v3.8c.1,0,.2,0,.3,0,.1,0,.2,0,.4,0ZM368.9,125.7h-.9v-4h.9v4ZM368.5,121.1h0c-.2,0-.4,0-.5-.1-.1,0-.2-.2-.2-.4h0c0-.2,0-.3.2-.4,0,0,.3-.1.5-.1h0c.2,0,.4,0,.5.1.1,0,.1.2.1.4h0c0,.2,0,.3-.1.4-.1,0-.3.1-.5.1ZM374.9,127.4h0c-.2,0-.4,0-.6,0-.2,0-.4,0-.6-.1h0v-.8c.2,0,.4.1.6.1.2,0,.4,0,.6,0h0c.4,0,.7,0,.9-.2.2-.2.3-.4.3-.8h0v-.3h0c-.1.1-.3.3-.4.3-.2,0-.4.1-.6.1h0c-.3,0-.5,0-.8-.2-.2-.1-.4-.3-.6-.6-.1-.3-.2-.6-.2-1.1h0c0-.7.2-1.2.5-1.6.4-.4.9-.5,1.6-.5h0c.2,0,.3,0,.5,0,.2,0,.3,0,.5,0,.2,0,.3,0,.4.1h0v3.5c0,.7-.2,1.2-.5,1.5-.3.3-.9.5-1.5.5ZM375.3,125h0c.1,0,.3,0,.4,0,.1,0,.2-.1.3-.2h0v-2.2c0,0-.1,0-.2,0,0,0-.2,0-.3,0h0c-.4,0-.6,0-.8.3-.2.2-.3.5-.3,1h0c0,.3,0,.6.1.8,0,.2.2.3.3.4.1,0,.3.1.5.1ZM382.6,125.7h-.9v-4h.9v4ZM382.1,121.1h0c-.2,0-.4,0-.5-.1-.1,0-.2-.2-.2-.4h0c0-.2,0-.3.2-.4,0,0,.3-.1.5-.1h0c.2,0,.4,0,.4.1.1,0,.2.2.2.4h0c0,.2,0,.3-.2.4,0,0-.2.1-.4.1ZM388.9,125.8h0c-.5,0-.8-.1-1.1-.4-.2-.2-.4-.6-.4-1.1h0v-2.6l.2-1.4h.8v3.9c0,.3,0,.5.2.6.1.1.3.2.5.2h0c0,0,.1,0,.2,0,0,0,.1,0,.2,0h0v.8c0,0-.2,0-.3,0-.1,0-.2,0-.4,0ZM389.5,122.5h-2.7v-.8h2.7v.8ZM394.9,125.8h0c-.4,0-.7-.1-.9-.3-.2-.2-.3-.5-.3-.8h0c0-.4.1-.6.4-.8.2-.2.6-.3,1.2-.4h.9c0,0,0,.5,0,.5h-.9c-.3.1-.4.2-.6.3-.1.1-.2.2-.2.4h0c0,.2,0,.3.2.4,0,0,.2.1.4.1h0c.1,0,.3,0,.4,0,.1,0,.2-.1.4-.3h0v-1.6c0-.2,0-.4-.1-.5,0-.1-.2-.2-.3-.2-.1,0-.3,0-.6,0h0c-.1,0-.3,0-.5,0-.2,0-.4,0-.6.1h0v-.7c.2,0,.4,0,.6-.1.2,0,.4,0,.6,0h0c.4,0,.7,0,1,.1.3.1.4.3.6.5.1.2.2.5.2.9h0v2.4h-.8v-.4h-.1c-.1.2-.3.3-.5.4-.2,0-.4.1-.6.1ZM402.5,125.7h-.9v-5.9h.9v5.9ZM413.6,125.7h-1v-5.4h3.6v.8h-2.6v4.6ZM415.9,123.5h-2.6v-.8h2.6v.8ZM421.3,125.7h-1v-4h.8v.5h.1c.1-.2.3-.3.5-.4.2,0,.4-.1.6-.1h0c0,0,.1,0,.2,0,0,0,.1,0,.1,0h0v.9c0,0-.1,0-.2,0,0,0-.1,0-.2,0h0c-.1,0-.2,0-.4,0-.1,0-.2,0-.4.2-.1,0-.2.2-.3.2h0v2.7ZM428.5,125.8h0c-.4,0-.7,0-1-.2-.3-.1-.5-.4-.6-.7s-.2-.7-.2-1.2h0c0-.5,0-.8.2-1.2s.4-.5.6-.7c.3-.1.6-.2,1-.2h0c.4,0,.7,0,1,.2.3.2.5.4.6.7s.2.7.2,1.2h0c0,.5,0,.8-.2,1.2-.2.3-.4.5-.6.7-.3.2-.6.2-1,.2ZM428.5,125h0c.2,0,.3,0,.5-.1.1,0,.2-.2.3-.4,0-.2.1-.5.1-.8h0c0-.3,0-.6-.1-.8,0-.2-.2-.3-.3-.4-.1,0-.3-.1-.5-.1h0c-.2,0-.3,0-.5.1-.1,0-.2.2-.3.4,0,.2-.1.4-.1.8h0c0,.3,0,.6.1.8,0,.2.2.3.3.4.1,0,.3.1.5.1ZM435.7,125.7h-.9v-4h.8v.4h.1c.2-.2.3-.3.5-.4.2,0,.4-.1.7-.1h0c.3,0,.5,0,.7.1.2.1.3.3.5.5.1.2.2.5.2.9h0v2.5h-1v-2.5c0-.3,0-.5-.2-.6-.1-.1-.3-.2-.5-.2h0c0,0-.2,0-.3,0-.1,0-.2,0-.3.1-.1,0-.2.1-.3.2h0v2.8ZM444.5,125.8h0c-.5,0-.8-.1-1-.4-.2-.2-.4-.6-.4-1.1h0v-2.6l.2-1.4h.8v3.9c0,.3,0,.5.2.6.1.1.3.2.5.2h0c0,0,.1,0,.2,0,0,0,.1,0,.2,0h0v.8c-.1,0-.2,0-.3,0-.1,0-.2,0-.4,0ZM445.1,122.5h-2.8v-.8h2.8v.8ZM450.4,125.7h-.9v-4h.9v4ZM449.9,121.1h0c-.2,0-.4,0-.5-.1-.1,0-.1-.2-.1-.4h0c0-.2,0-.3.1-.4.1,0,.2-.1.5-.1h0c.2,0,.4,0,.5.1,0,0,.1.2.1.4h0c0,.2,0,.3-.1.4-.1,0-.3.1-.5.1ZM457,125.8h0c-.5,0-.9,0-1.2-.2-.3-.1-.5-.4-.7-.7-.1-.3-.2-.7-.2-1.2h0c0-.4,0-.8.2-1.1.1-.3.3-.5.6-.7.3-.2.6-.2.9-.2h0c.4,0,.7,0,.9.2.2.2.4.4.6.7.1.3.2.7.2,1.2h0v.3h-2.9v-.6h2.1-.2c0-.2,0-.5,0-.6,0-.2-.1-.3-.3-.4-.1,0-.3-.1-.4-.1h0c-.2,0-.3,0-.4.1-.1,0-.2.2-.3.4,0,.2,0,.4,0,.7h0v.4c0,.3,0,.5.1.7,0,.2.2.3.4.4.2,0,.4.1.7.1h0c.1,0,.3,0,.5,0,.2,0,.3,0,.5-.1h0v.7c-.2,0-.4,0-.6.1-.2,0-.4,0-.5,0ZM463.6,125.7h-.9v-4h.8v.5h.1c.1-.2.3-.3.5-.4.2,0,.4-.1.6-.1h0c0,0,.1,0,.2,0,0,0,.1,0,.1,0h0v.9c0,0-.1,0-.2,0,0,0-.1,0-.2,0h0c-.1,0-.2,0-.4,0-.1,0-.2,0-.3.2-.1,0-.2.2-.3.2h0v2.7Z"/>
  <path class="cls-4" d="M168,91.5h6.5c2.3,0,4.2.4,5.7,1.1,1.6.7,2.8,1.8,3.6,3.2.8,1.4,1.2,3.1,1.2,5.1h0c0,2.4-.5,4.6-1.5,6.5h0c-1,1.9-2.5,3.3-4.5,4.4-2,1.1-4.2,1.6-6.6,1.6h-8.6l4.2-21.8ZM171.4,94.7l-3,15.6h3.9c1.8,0,3.3-.4,4.7-1.1h0c1.4-.7,2.4-1.8,3.2-3.2.7-1.4,1.1-3,1.1-4.9h0c0-2.1-.6-3.6-1.7-4.7-1.2-1.1-2.8-1.6-5-1.6h-3.1ZM200,113.5h0c-1,0-1.8-.2-2.3-.6-.5-.4-.8-1-.8-1.7h0c0-.2,0-.4,0-.5,0-.2,0-.3,0-.5h0c-.9,1.3-1.7,2.3-2.6,2.8-.9.5-1.9.8-3.2.8h0c-1.4,0-2.6-.4-3.5-1.3-.9-.9-1.3-2-1.3-3.3h0c0-1.9.7-3.4,2-4.3,1.3-1,3.5-1.5,6.5-1.5h3.2c.2-1,.3-1.7.3-2.1h0c0-.8-.2-1.3-.6-1.7-.4-.4-1-.5-1.8-.5h0c-1.1,0-1.8.2-2.4.6-.5.4-.9,1-1.1,1.8h0l-3.6-.5c.4-1.5,1.2-2.6,2.4-3.4,1.2-.7,2.8-1.1,4.8-1.1h0c2,0,3.5.4,4.5,1.2,1,.8,1.5,1.9,1.5,3.4h0c0,.5-.1,1.3-.3,2.4h0l-1.1,5.6c0,.5-.1.9-.1,1.2h0c0,.4.1.7.4.8.3.1.5.2.8.2h0c.3,0,.6,0,1-.1h0l-.2,2.2c-.4.1-.8.2-1.2.3-.4,0-.8,0-1.2,0ZM190.2,108.5h0c0,.7.2,1.3.7,1.8s1,.6,1.7.6h0c.9,0,1.7-.3,2.4-.8h0c.5-.4.9-.8,1.3-1.4.3-.5.6-1.1.8-1.8h0l.4-1.6h-2.7c-.8,0-1.5.1-2.1.3-.6.1-1,.4-1.4.6h0c-.4.2-.6.6-.8.9-.2.4-.3.8-.3,1.3ZM208.9,113.6h0c-1.1,0-2-.3-2.7-.9-.6-.6-1-1.4-1-2.4h0c0-.7,0-1.5.2-2.3h0l1.7-8.8h-2.2l.5-2.6h2.3l2-3.9h2.4l-.7,3.9h3.1l-.5,2.6h-3.2l-1.7,8.9c-.1.6-.2,1.1-.2,1.4h0c0,.5.1.8.4,1,.2.2.6.4,1,.4h0c.4,0,.9,0,1.6-.2h0l-.4,2.6c-.9.2-1.8.4-2.8.4ZM227.6,113.5h0c-1,0-1.8-.2-2.3-.6-.5-.4-.8-1-.8-1.7h0c0-.2,0-.4,0-.5,0-.2,0-.3,0-.5h0c-.9,1.3-1.7,2.3-2.6,2.8-.9.5-1.9.8-3.2.8h0c-1.4,0-2.6-.4-3.5-1.3-.9-.9-1.3-2-1.3-3.3h0c0-1.9.7-3.4,2-4.3,1.3-1,3.5-1.5,6.5-1.5h3.2c.2-1,.3-1.7.3-2.1h0c0-.8-.2-1.3-.6-1.7-.4-.4-1-.5-1.8-.5h0c-1.1,0-1.8.2-2.4.6-.5.4-.9,1-1.1,1.8h0l-3.6-.5c.4-1.5,1.2-2.6,2.4-3.4,1.2-.7,2.8-1.1,4.8-1.1h0c2,0,3.5.4,4.5,1.2,1,.8,1.5,1.9,1.5,3.4h0c0,.5-.1,1.3-.3,2.4h0l-1.1,5.6c0,.5-.1.9-.1,1.2h0c0,.4.1.7.4.8.3.1.5.2.8.2h0c.3,0,.7,0,1-.1h0l-.2,2.2c-.4.1-.8.2-1.2.3-.4,0-.8,0-1.2,0ZM217.9,108.5h0c0,.7.2,1.3.7,1.8s1,.6,1.8.6h0c.9,0,1.7-.3,2.4-.8h0c.5-.4.9-.8,1.3-1.4.4-.5.6-1.1.8-1.8h0l.4-1.6h-2.7c-.8,0-1.5.1-2.1.3-.6.1-1,.4-1.4.6h0c-.4.2-.6.6-.8.9-.2.4-.3.8-.3,1.3ZM245,91.5h8.3c2.5,0,4.4.6,5.8,1.7,1.4,1.1,2.1,2.7,2.1,4.7h0c0,1.5-.4,2.9-1.1,4-.7,1.1-1.7,2-3,2.6-1.3.6-2.9.9-4.6.9h-6.1l-1.5,8h-4l4.2-21.8ZM248.4,94.7l-1.5,7.6h5c1.7,0,3-.3,3.9-1,.9-.7,1.3-1.7,1.3-3.2h0c0-1.1-.4-2-1.1-2.6s-1.8-.9-3.1-.9h-4.5ZM279.1,102.8h0c0,1.2-.1,2.3-.4,3.4-.3,1.1-.7,2.1-1.2,3h0c-.8,1.4-1.9,2.5-3.3,3.3-1.4.8-3,1.2-4.8,1.2h0c-2.2,0-3.9-.6-5.2-1.8-1.3-1.2-1.9-2.9-1.9-5h0c0-2.1.4-3.9,1.2-5.5h0c.8-1.6,1.9-2.9,3.3-3.7,1.4-.9,3.1-1.3,5-1.3h0c2.3,0,4.1.6,5.4,1.7,1.2,1.1,1.8,2.7,1.8,4.8ZM275.1,103h0c0-2.7-1.1-4-3.4-4h0c-1.3,0-2.3.3-3,1h0c-.5.4-.9,1-1.3,1.8-.4.8-.6,1.6-.8,2.5-.2.9-.3,1.7-.3,2.6h0c0,1.4.3,2.5.9,3.2s1.4,1.1,2.6,1.1h0c.7,0,1.4-.1,1.9-.3.5-.2,1-.6,1.4-1h0c.6-.6,1.1-1.6,1.5-2.7.4-1.2.6-2.5.6-3.9ZM285.1,90.4h3.9l-.6,3h-3.8l.6-3ZM283.9,96.6h3.8l-3.3,16.8h-3.8l3.3-16.8ZM294.5,104h0l-1.8,9.4h-3.9l2.6-13.2c0-.4.2-1,.3-1.6,0-.6.2-1.3.3-2h3.6c0,0,0,.3,0,.7,0,.4-.1.8-.2,1.2,0,.4-.1.8-.2,1h0c.8-1.1,1.7-1.9,2.6-2.4.9-.5,2-.7,3.2-.7h0c1.6,0,2.7.4,3.5,1.1.8.8,1.2,1.8,1.2,3.3h0c0,.3,0,.7,0,1.2,0,.5-.1,1-.2,1.4h0l-2,10.1h-3.8l1.9-9.5c.2-1.2.4-2,.4-2.5h0c0-1.5-.8-2.2-2.5-2.2h0c-.8,0-1.5.2-2.1.6-.7.4-1.2,1-1.7,1.7-.5.7-.8,1.5-1,2.5ZM312.4,113.6h0c-1.1,0-2-.3-2.7-.9-.6-.6-.9-1.4-.9-2.4h0c0-.7,0-1.5.2-2.3h0l1.7-8.8h-2.2l.5-2.6h2.3l2-3.9h2.4l-.7,3.9h3.1l-.5,2.6h-3.2l-1.7,8.9c-.1.6-.2,1.1-.2,1.4h0c0,.5.1.8.4,1,.2.2.6.4,1,.4h0c.4,0,.9,0,1.6-.2h0l-.4,2.6c-.9.2-1.8.4-2.8.4ZM335.3,113.7h0c-2.7,0-4.8-.5-6.2-1.4-1.4-1-2.3-2.4-2.6-4.4h0l3.9-.7c.2,1.2.8,2.1,1.6,2.6.8.6,2,.8,3.6.8h0c2,0,3.4-.3,4.3-.9.9-.6,1.4-1.4,1.4-2.6h0c0-.5-.1-.9-.3-1.3-.2-.4-.5-.7-1-1h0c-.3-.2-.8-.4-1.4-.6-.6-.2-1.4-.5-2.3-.7h0c-1.8-.5-3.2-1-4.1-1.5h0c-.9-.5-1.6-1.2-2.1-2-.5-.8-.7-1.7-.7-2.8h0c0-1.2.4-2.3,1.1-3.2.7-.9,1.8-1.6,3.1-2.1,1.3-.5,2.9-.8,4.7-.8h0c2.4,0,4.3.4,5.8,1.3s2.3,2.1,2.7,3.7h0l-3.9,1c-.3-1-.8-1.7-1.6-2.3-.8-.5-1.9-.8-3.2-.8h0c-1.5,0-2.7.3-3.5.8-.8.5-1.2,1.3-1.2,2.2h0c0,.5.1,1,.4,1.3.3.4.7.7,1.2.9h0c.3.1.7.3,1.2.5.5.2,1.2.4,2,.6h0c1.4.4,2.5.8,3.3,1.1.8.4,1.4.7,1.9,1.2h0c.6.5,1.1,1.1,1.4,1.8.3.7.5,1.5.5,2.4h0c0,2.2-.8,3.9-2.5,5-1.7,1.2-4.2,1.8-7.5,1.8ZM364.9,102.8h0c0,1.2-.1,2.3-.4,3.4-.3,1.1-.7,2.1-1.2,3h0c-.8,1.4-1.9,2.5-3.3,3.3-1.4.8-3,1.2-4.8,1.2h0c-2.2,0-3.9-.6-5.2-1.8-1.3-1.2-1.9-2.9-1.9-5h0c0-2.1.4-3.9,1.2-5.5h0c.8-1.6,1.9-2.9,3.3-3.7,1.4-.9,3.1-1.3,5-1.3h0c2.3,0,4.1.6,5.4,1.7,1.2,1.1,1.8,2.7,1.8,4.8ZM360.9,103h0c0-2.7-1.1-4-3.4-4h0c-1.3,0-2.3.3-3,1h0c-.5.4-.9,1-1.3,1.8-.4.8-.6,1.6-.8,2.5-.2.9-.3,1.7-.3,2.6h0c0,1.4.3,2.5.9,3.2.6.7,1.4,1.1,2.6,1.1h0c.7,0,1.4-.1,1.9-.3.5-.2,1-.6,1.4-1h0c.6-.6,1.1-1.6,1.5-2.7.4-1.2.6-2.5.6-3.9ZM370.9,90.4h3.9l-4.5,23h-3.8l4.5-23ZM386,110.5h0c-.8,1.1-1.7,1.9-2.6,2.4-.9.5-2,.7-3.2.7h0c-1.6,0-2.7-.4-3.5-1.1-.8-.8-1.2-1.8-1.2-3.3h0c0-.2,0-.4,0-.8,0-.3,0-.6.1-.9,0-.3,0-.6.1-.9h0l2-10.1h3.8l-1.9,9.5c-.2,1.2-.4,2-.4,2.5h0c0,1.5.8,2.2,2.5,2.2h0c.8,0,1.5-.2,2.1-.6.7-.4,1.2-1,1.7-1.7.5-.7.8-1.5,1-2.5h0l1.8-9.4h3.9l-2.6,13.2c0,.4-.2,1-.3,1.5,0,.6-.2,1.3-.3,2h-3.7c0,0,0-.3,0-.7,0-.4.1-.8.2-1.2s.1-.8.2-1h0ZM398.3,113.6h0c-1.1,0-2-.3-2.7-.9-.6-.6-.9-1.4-.9-2.4h0c0-.7,0-1.5.2-2.3h0l1.7-8.8h-2.2l.5-2.6h2.3l2-3.9h2.4l-.7,3.9h3.1l-.5,2.6h-3.2l-1.7,8.9c-.1.6-.2,1.1-.2,1.4h0c0,.5.1.8.4,1,.2.2.6.4,1,.4h0c.4,0,.9,0,1.6-.2h0l-.4,2.6c-.9.2-1.8.4-2.8.4ZM408,90.4h3.9l-.6,3h-3.8l.6-3ZM406.8,96.6h3.9l-3.3,16.8h-3.8l3.2-16.8ZM429,102.8h0c0,1.2-.1,2.3-.4,3.4-.3,1.1-.7,2.1-1.2,3h0c-.8,1.4-1.9,2.5-3.4,3.3-1.4.8-3,1.2-4.8,1.2h0c-2.2,0-3.9-.6-5.2-1.8-1.3-1.2-1.9-2.9-1.9-5h0c0-2.1.4-3.9,1.2-5.5h0c.8-1.6,1.9-2.9,3.3-3.7,1.4-.9,3.1-1.3,5-1.3h0c2.3,0,4.1.6,5.4,1.7,1.2,1.1,1.8,2.7,1.8,4.8ZM425,103h0c0-2.7-1.1-4-3.4-4h0c-1.3,0-2.3.3-3,1h0c-.5.4-.9,1-1.3,1.8-.4.8-.6,1.6-.8,2.5-.2.9-.3,1.7-.3,2.6h0c0,1.4.3,2.5.9,3.2.6.7,1.4,1.1,2.6,1.1h0c.7,0,1.4-.1,1.9-.3.5-.2,1-.6,1.4-1h0c.6-.6,1.1-1.6,1.5-2.7.4-1.2.6-2.5.6-3.9ZM436.3,104h0l-1.8,9.4h-3.9l2.6-13.2c0-.4.2-1,.3-1.6,0-.6.2-1.3.3-2h3.7c0,0,0,.3,0,.7,0,.4-.1.8-.2,1.2,0,.4-.1.8-.1,1h0c.8-1.1,1.7-1.9,2.6-2.4.9-.5,2-.7,3.2-.7h0c1.6,0,2.7.4,3.5,1.1.8.8,1.2,1.8,1.2,3.3h0c0,.3,0,.7,0,1.2,0,.5-.1,1-.2,1.4h0l-2,10.1h-3.8l1.9-9.5c.2-1.2.4-2,.4-2.5h0c0-1.5-.8-2.2-2.5-2.2h0c-.8,0-1.5.2-2.1.6-.7.4-1.2,1-1.7,1.7-.5.7-.8,1.5-1,2.5ZM463.9,108.3h0c0,1.8-.7,3.1-2,4-1.3.9-3.2,1.4-5.7,1.4h0c-2,0-3.6-.3-4.7-1-1.2-.7-1.9-1.8-2.4-3.2h0l3.3-.7c.3.8.7,1.4,1.3,1.8s1.5.5,2.7.5h0c2.5,0,3.8-.8,3.8-2.4h0c0-.6-.2-1-.7-1.4h0c-.5-.3-1.5-.7-3-1.1h0c-1.3-.3-2.3-.7-3-1.1h0c-.8-.5-1.4-1-1.8-1.6-.4-.6-.6-1.4-.6-2.2h0c0-1.6.6-2.8,1.9-3.7,1.3-.9,3.1-1.3,5.4-1.3h0c2,0,3.6.4,4.6,1.1,1,.7,1.7,1.8,1.9,3.2h0l-3.4.4c-.2-.8-.6-1.3-1.1-1.6-.5-.3-1.3-.5-2.2-.5h0c-1.1,0-2,.2-2.6.5-.6.3-.9.9-.9,1.5h0c0,.4.1.7.3.9s.5.5.9.7h0c.4.2,1.3.5,2.8.9h0c1.4.3,2.5.8,3.2,1.2h0c.7.4,1.1,1,1.5,1.5.3.6.5,1.3.5,2.1Z"/>
</svg>