<?xml version="1.0" encoding="UTF-8" standalone="no"?>
<!DOCTYPE svg PUBLIC "-//W3C//DTD SVG 1.1//EN" "http://www.w3.org/Graphics/SVG/1.1/DTD/svg11.dtd">
<svg width="100%" height="100%" viewBox="0 0 618 539" version="1.1" xmlns="http://www.w3.org/2000/svg" xmlns:xlink="http://www.w3.org/1999/xlink" xml:space="preserve" xmlns:serif="http://www.serif.com/" style="fill-rule:evenodd;clip-rule:evenodd;stroke-linejoin:round;stroke-miterlimit:2;">
    <g transform="matrix(5.55556,0,0,5.55556,-1177.5,-335.556)">
        <g transform="matrix(1,0,0,1,142.75,-9.6)">
            <path d="M113.2,70.2L110.9,70.2L113.2,70.2Z" style="fill:#196917;fill-rule:nonzero;"/>
            <path d="M117.3,70.8L116.9,70.8C115.2,70.5 114.6,70.4 113.3,70.2C114.6,70.4 116.1,70.6 117.3,70.8Z" style="fill:#196917;fill-rule:nonzero;"/>
            <path d="M145.8,95.9L145.8,95.5C145.7,95.5 145.6,95.5 145.6,95.4C145.6,95.6 145.7,95.7 145.8,95.9Z" style="fill:#196917;fill-rule:nonzero;"/>
            <path d="M135.4,80.1L135.2,80.1C135.2,79.9 135.1,79.9 135,79.8C135.1,79.9 135.2,80 135.4,80.1Z" style="fill:#196917;fill-rule:nonzero;"/>
            <path d="M133.4,79.2C133.4,79 132.6,78.2 132.1,77.8C131,76.9 129.7,76.1 129.2,76C129.2,76.3 133.1,79.4 133.5,79.2L133.4,79.2Z" style="fill:#196917;fill-rule:nonzero;"/>
            <path d="M123.4,73.2C123.4,73.1 122.8,72.7 122.1,72.5C122.7,72.5 123.2,72.6 123.6,72.8L122.4,72.4C122,72.3 121.6,72.2 121.1,72.1C120,71.7 119,71.4 118.6,71.4C118.8,71.6 123.2,73.4 123.4,73.2ZM122,72.4L122,72.4Z" style="fill:#196917;fill-rule:nonzero;"/>
            <path d="M91.4,75.4C91.5,75.8 92.5,75.2 92.9,74.4C93.8,74 94.8,73.6 95.8,73.2C95.9,73.2 95.9,73.1 95.9,73C95.9,73 95.7,72.4 95.6,72.3L95.4,72.3L95.4,73.1C94.5,73.4 93.7,73.8 92.9,74.1C92.9,73.9 92.9,73.8 92.7,73.8C93,73.5 93.3,73.2 93.7,73L93.5,73C93.1,73.3 92.7,73.5 92.4,73.9C92.1,74.1 91.6,74.4 91.4,74.8L91.4,74.7C89,75.8 86.4,77 84.4,78.6L83.2,79.6C83.9,79 85.8,77.5 91.1,75.2L91.1,75.5L91.4,75.4Z" style="fill:#196917;fill-rule:nonzero;"/>
            <path d="M89.7,131.9C87.2,133.5 85.3,135 84.3,136.3C83.4,137.5 83.4,138.3 84.1,138.9L85.1,139.7C84.4,139.1 84.4,138.3 85.3,137.1C86.2,135.8 88.1,134.4 90.6,132.8C90.5,132.8 90.2,132.4 89.8,132L89.7,131.9Z" style="fill:#196917;fill-rule:nonzero;"/>
            <path d="M137.5,104.8C136.7,105 136.4,106.1 136.4,107.2C134.9,107.5 133.2,107.8 131.4,108.2C129.3,105.9 126,102.7 125.6,102.8C123.6,103.3 121.6,103.9 119.5,104.6L119.5,104.7C119,103.6 117.9,102.8 116.7,103.1C114.6,103.9 115.1,107.3 117,108.4C118.6,109.3 120.2,107.9 119.9,105.8C122,105.2 124,104.6 125.8,104.1C126.9,105.1 128.3,106.3 129.3,107.4C130.633,108.8 131.367,109.5 131.5,109.5C133.3,109.1 135,108.7 136.6,108.4C136.7,109.1 137,109.8 137.4,110.2C138.3,111.1 139.3,109.8 139.2,107.8C139.2,106.3 138.5,104.8 137.5,104.9L137.5,104.8Z" style="fill:#196917;fill-rule:nonzero;"/>
            <path d="M143.1,100.9C143.7,101.2 144,100.2 143.7,98.7L143.7,98.8C145.7,99 146.9,99.5 147.2,100.5L146.9,99.2L146.4,97.5L146.2,96.9C146.4,97.6 146.6,98.3 146.8,99C146.4,98.2 145.3,97.7 143.4,97.6L143.4,97.7C143,96.5 142.4,95.5 141.8,95.4C140.8,95.7 141.9,100.3 143.1,100.9Z" style="fill:#196917;fill-rule:nonzero;"/>
            <path d="M146.3,120.5L146.3,120.9L146.7,119.7L146.7,119.3C146.7,119.4 146.4,120.3 146.4,120.5L146.3,120.5Z" style="fill:#196917;fill-rule:nonzero;"/>
            <path d="M148.1,108.5C148.1,107.1 146.3,106.5 143.2,106.5L143.2,106.7C143.2,105.4 142.6,104.1 141.9,104.1C141.6,104.1 141.5,104.4 141.3,104.7C138.7,100.3 137.3,98.3 132.7,93.8C132.6,93.8 132.6,93.7 132.5,93.7C131.6,93.8 130.7,94 129.8,94.2C129.1,92.4 128.3,90.8 127.5,89.2C132.6,88.2 136.6,87.7 139.2,88C138,83.5 136.1,81.5 134.4,79.8C134.4,79.8 134.6,79.9 134.7,80C133.7,79.1 132,77.8 130.9,77.1C131.7,77.7 132.8,78.5 133.7,79.3C136.3,81.9 137.2,83.2 138.4,87.1C135.8,86.9 131.8,87.3 126.9,88.3C126.3,87.3 125.7,86.3 125.1,85.3C125.7,84.9 125.6,84.1 125.2,83.4C126.7,83.1 128.2,82.9 129.5,82.7C129.5,82.7 129.6,82.7 129.5,82.6C129.1,80.4 128.9,80 128,78.2L130.8,78.2C130.5,77.9 130.2,77.7 129.9,77.5L127.1,77.5C128,79.3 128.1,79.7 128.6,81.8C127.3,82 126,82.2 124.5,82.5C123.8,81.7 122.7,81.1 121.8,81.2C121.7,81.2 121.5,81.2 121.4,81.4C120.4,82.2 122.2,85 124.2,85.3L124.2,85.1C124.2,85 124.2,84.9 124.3,84.9C124.3,84.9 124,85 124.3,85.5C124.9,86.5 125.5,87.5 126,88.5C125.1,88.7 124.2,88.9 123.2,89.1L123.2,89.2C122.6,88.3 121.5,87.5 120.4,87.7L120.1,87.7C119.9,87.8 119.7,88 119.6,88.2C116.4,86.3 115.9,86.1 112.6,84.4L112.2,84.4C111.5,84.6 110.8,84.8 110,85.1C108.8,85.5 107.6,85.8 106.5,86.2C106.5,86.2 106.5,86.3 106.6,86.4C106,85.5 104.9,85.1 104,85.4L104.4,85.4C104,84.5 103.6,83.7 103.2,82.9C104.7,82.4 106.3,81.9 107.8,81.4C111.2,80.4 114.3,79.5 117.1,78.9L117.2,78.9C117.1,76.7 117.1,76.6 116.7,75.5C121.8,74.5 125.5,74.4 126.9,75.2L125.8,74.6C124.3,73.9 120.8,74 115.8,75C116.3,76.8 116.3,76.9 116.4,78.2C113.7,78.8 110.7,79.7 107.4,80.7C105.9,81.2 104.4,81.7 102.9,82.2C102.1,80.6 101.3,79.1 100.6,77.9C101.2,77.6 101.4,77 101.1,76.4C100.8,75.9 100,75.3 99,75.6C99,75.6 98.8,75.6 98.8,75.7C97.8,76.3 98.2,77.7 99.4,78L100.1,78C100.8,79.3 101.5,80.7 102.2,82.3C100.7,82.8 99.2,83.4 97.7,83.9C94.3,82.1 93.6,81.6 91.7,80.4C91.7,80.2 91.8,79.9 91.8,79.6C91.8,78.9 91.4,78.3 90.6,78.6L90.8,78.6C90.8,77.8 91,77.1 91.1,76.6C92.9,75.9 95.7,74.7 99.7,73.4C99.7,73.4 99.5,73.3 99.4,73.2C99.8,73.5 100.6,73.8 101.2,73.7C102.1,74.4 103.1,75.5 104.1,76.7C105.1,77.9 104.1,76.7 104,76.7C103,77.5 104,79.2 105.6,79.4C107,79.6 107.9,78.6 107.1,77.5C106.9,77.2 106.5,76.9 106.1,76.7C106.4,74.9 106.4,74.7 106.3,73.6C109,72.9 111.4,72.3 113.5,72L115,72.3C115.9,72.9 118.5,73.9 119.1,73.7C119.5,73.6 119,73.1 118.1,72.7C117,72.2 115.6,71.8 114.9,71.8L114.8,71.8L114.8,71.9L113.1,71.5L112.9,71.5C110.9,71.8 108.5,72.3 105.8,73.1C105.733,73.1 105.733,73.5 105.8,74.3C105.8,74.9 105.7,75.7 105.5,76.3L105.6,76.3L104.8,76.3L104.9,76.3C103.9,75.1 102.8,74.1 101.8,73.4C102.2,73.2 102.2,72.9 101.8,72.6C105.5,71.6 107.7,71 110.9,70.6C113,70.9 115.5,71.2 118.6,72C118.4,72 118.2,71.9 118.1,71.8C118.1,71.8 114.8,70.8 110.2,70.5L110,70.5C107.8,70.7 104.8,71.3 101.3,72.4C100.8,72.2 100.2,72.2 99.8,72.3C98.8,71.9 97.9,71.8 97,72L96.8,72C97.6,71.8 98.5,71.9 99.4,72.3C99.4,72.3 99.3,72.3 99.2,72.4C99.2,72.5 99.2,72.7 99.3,72.9C95.033,72.767 95.033,72.767 99.3,72.9C96.5,73.8 93.7,74.8 91.1,75.9C91.1,75.8 91.1,75.7 91.2,75.6C91.1,75.7 91,75.7 90.9,75.8C90.9,75.9 90.9,76 90.8,76.1C86,78.2 82,80.4 80.4,82L79.5,83C81.5,81.1 85.2,78.9 90.7,76.6C90.5,77.2 90.4,77.9 90.3,78.7C89.4,79.3 88.8,80.9 89.4,81.5C90,82.1 90.6,81.7 91.1,81.1C93,82.4 93.7,82.9 97.2,84.8L97.5,84.8C99.1,84.2 100.6,83.6 102.2,83.1C102.6,83.9 102.9,84.7 103.3,85.6C102.6,86 102.4,86.8 102.5,87.6C97.4,89.4 92.4,91.3 88,93.4C87.6,90.9 87.4,88.6 87.3,86.5L87.2,86.5C87.8,86.1 88.4,85.2 88.4,84.2C88.4,83.5 88.1,82.5 87.2,82.9C86.5,83.3 85.9,84.3 85.8,85.1L85.8,84.9C81,87.1 77,89.4 74.6,91.4C75.1,90.2 75.6,89.1 76.2,88C78.8,85.9 83.5,83.3 89.1,80.8L89.1,80.2C83.6,82.6 79,85.1 76.6,87.2C74.2,89.3 76.6,87.2 76.6,87.2C76.6,87.3 76.5,87.4 76.4,87.4C76.5,87.3 76.5,87.2 76.6,87.2C76,87.7 75.5,88.2 75.2,88.6C75.2,88.7 75.1,88.8 75,88.9L74.3,90C74.3,89.9 74.5,89.7 74.6,89.6C74.9,89.2 75.4,88.7 75.9,88.2C75.3,89.3 74.8,90.4 74.3,91.6C73.7,92.1 73.2,92.6 72.8,93.1C72.6,93.4 72.4,93.6 72.3,93.9L71.8,95.1C71.9,94.8 72.2,94.5 72.3,94.2C72.7,93.7 73.2,93.2 73.8,92.6C72.7,95.7 72,99 71.8,102.5C71,103.2 70.4,103.8 70,104.4C69.8,104.7 69.6,105 69.5,105.3L69.5,106.4L69.5,106.1C69.567,104.567 69.6,103.8 69.6,103.8C69.6,103.3 69.7,102.8 69.8,102.4C70,101.5 70.2,100.6 70.4,99.7C70.7,98.5 71,97.6 71,97.3L70.7,98.1C70.3,99.4 69.9,101.2 69.7,102.5C69.7,103 69.5,103.5 69.5,104L69.5,104.5C69.4,105.6 69.3,107.1 69.2,108.2L69.2,109.4C69.2,113.6 70,117.8 71.5,122C72.4,124.3 73.4,126.5 74.7,128.6C74.7,129 74.7,129.3 74.8,129.6L75.5,130.7C75.3,130.1 75,129.5 76.1,128.1C76.5,127.6 76.9,127.1 77.5,126.6C78,127.2 78.5,127.7 79,127.8C79,127.8 85.6,143.8 79.2,127.8C79.5,128.2 79.8,128.6 80.1,129C79.7,130 81.9,133 83.4,133.2C84.4,133.3 84,132 83,130.6C82.1,129.5 81,128.5 80.4,128.7L80.5,128.7C80.2,128.3 79.9,127.9 79.6,127.4L79.6,127.5C79.9,127.2 79.7,126.2 79.3,125.2C80.4,124.3 81.7,123.4 83.2,122.5C84.7,125.1 86.4,127.6 88.3,129.9C87.6,130.9 89.8,133.6 91.6,133.8C92.9,133.9 92.7,132.6 91.6,131.3C90.8,130.3 89.5,129.4 88.7,129.6C86.9,127.3 85.2,124.8 83.7,122.1C87.1,120 91.4,117.8 96.2,115.7C96.5,116.2 97,116.6 97.5,116.8C97.8,116.9 98.1,117 98.4,116.9C98.9,118 99.4,119.1 100,120.2C98.4,120.9 96.9,121.6 95.5,122.3C95.3,122.5 94.9,126.4 95.8,132.1L94.8,132.1C93.7,133 96,135.6 98,135.8L98.4,135.8C99.5,136.8 100.6,137.7 101.7,138.5C98.5,140.3 96.3,141.8 94.9,143.4C94.2,144.4 94.2,145 94.9,145.5C92.8,144.8 90.8,143.8 88.9,142.7C88.1,142.2 88.1,141.4 88.9,140.2C90,138.7 92.6,136.8 96.1,134.8C96,134.7 95.6,134.4 95.3,134.1C91.7,136.1 89.1,138.1 87.9,139.6C87,140.8 87,141.6 87.9,142.1L87.2,141.6C87.4,141.7 87.7,141.9 87.9,142.1L89,142.7L89.9,143.2C91.5,144.1 93.3,144.8 95,145.5C95.1,145.5 95.2,145.6 95.4,145.6L96.6,146C95.5,145.6 95.2,144.9 96.1,143.8C97.1,142.5 99.4,140.8 102.6,139C102.8,139.1 103,139.3 103.3,139.5C103,139.9 103.8,140.6 104.8,141.1C104.6,141 104.4,140.9 104.2,140.8C101.6,142.3 99.8,143.6 98.9,144.7C98,145.8 98.4,146.5 99.7,146.8L101,147.1C99.7,146.8 99.3,146.2 100.1,145.1C100.9,144.1 102.7,142.7 105.1,141.3C105.9,141.7 106.7,141.9 107.3,141.8C110.2,143.3 113.2,144.3 116.1,144.7L116.6,144.7L116.2,144.6C113.4,144.2 110.5,143.1 107.6,141.6C104.7,140.1 107.6,141.6 107.6,141.6C107.8,141.4 107.4,140.9 106.7,140.4C107.7,139.9 108.7,139.4 109.8,138.9C112.5,141.2 115.1,143 117.6,143.9L118,143.9C118,143.9 117.933,143.833 117.8,143.7C115.3,142.7 112.6,140.8 109.9,138.2C109.7,138 109.5,137.9 109.3,138C108.1,138.6 106.9,139.2 105.8,139.7C104.9,139.2 104.1,139 103.6,139.1C94,135.9 94,135.9 103.6,139.1C103.4,139 103.2,138.8 102.9,138.6C105.6,137.1 108.8,135.6 112.3,134.2C112.6,134.6 113,134.9 113.5,135.1C113.7,135.1 113.9,135.2 114.1,135.1C116.1,138.5 117.9,141.2 119.5,142.9C119.6,143 119.7,143 119.7,143L119.6,142.8C118.1,141.1 116.4,138.3 114.5,134.9C112.6,131.5 114.5,134.9 114.5,134.9C114.9,134.6 115,133.8 114.8,133C117.6,131.9 120.5,130.9 123.5,130C125.4,129.4 127.3,128.9 129,128.4C129.067,128.4 129.133,128.333 129.2,128.2C129.267,128.067 131.4,124.4 133.3,120.9C134,121.9 135.1,120.6 135.4,118.9C137,118.7 138.5,118.5 139.8,118.4C139.8,119.2 139.8,119.9 139.9,120.3L140,120.4C140,120.7 139.9,121 139.8,121.3C139.3,121.6 138.8,122.7 138.4,123.8C138.4,123.7 138.4,123.5 138.5,123.4C137.7,123.4 136.9,123.5 136,123.7C135.933,123.7 135.4,124.533 134.4,126.2C133.4,127.867 132.6,129 130.1,132.6C130.1,132.4 129.9,132.3 129.7,132.3C129.2,132.5 128.7,133.3 128.3,134.1C126.9,134.4 125.3,134.9 123.7,135.4C122.2,135.9 120.7,136.4 119.3,136.9C119.3,136.9 119.1,137 119.2,137.3C119.9,139.3 120.5,141.1 120.9,142.3C120.9,142.5 121,142.5 121.1,142.5L121.1,142.2C120.8,141 120.3,139.4 119.7,137.5C121,137 122.3,136.6 123.6,136.2C125.2,135.7 126.6,135.3 128,135C127.9,135.5 127.8,136 127.9,136.2C127.9,136.2 127.9,136.3 128,136.3C127.2,138.1 126.3,139.6 125.2,141C125,141.2 125,141.3 125,141.3L125.4,141C126.5,139.6 127.5,138 128.3,136.3C128.7,136 129.3,135.3 129.7,134.4C129.9,133.9 130.1,133.5 130.1,133.1C132.8,129.3 133.5,128.3 135.8,124.8C136.7,124.7 137.4,124.6 138.1,124.5C137.9,125.3 137.8,126 137.9,126.3L137.9,126.4C135.6,132 132.1,137 127.5,140.7C127.3,140.9 127.2,140.9 127.1,141C127.2,141 127.2,141 127.6,140.7C132.2,137 135.8,132 138.2,126.4C138.6,126.2 139.1,125.4 139.6,124.4C140.9,124.4 141.9,124.5 142.5,124.9C142.1,125.8 141.8,126.6 141.9,126.8C138.8,132.3 134.4,137.2 128.9,140.8C128.6,141 128.6,141 128.4,141.1C128.533,141.1 128.7,141 128.9,140.8C134.5,137.2 138.9,132.3 142,126.8C142.2,126.8 142.6,126.1 143.1,125.2C143.2,125.4 143.3,125.5 143.2,125.8C143.1,126.1 143.2,125.8 143.2,125.7L143.2,125.8C143.2,126.1 143.2,126.3 143,126.5L143.6,125.4C143.7,125.1 143.8,124.9 143.8,124.7C143.8,124.5 143.8,124.3 143.7,124.1L143.7,124.3C144.3,123 144.6,121.9 144.5,121.7L144.5,121.8C144.5,121.6 144.7,121.3 144.8,121.1C145,121.1 145.4,120.2 145.7,119.2L145.7,119.3C145.8,119.5 145.9,119.7 145.9,119.9C145.9,119.6 146.2,118.9 146.2,118.7C146.2,118.5 146.2,118.3 146,118.1C146.3,116.9 146.4,115.9 146.3,115.7C146.2,115.7 145.8,116.5 145.5,117.6C144.8,117.2 143.6,117 142,117C142.1,115.9 142,115.1 141.6,114.9C141.6,114.6 141.7,114.3 141.7,114C145,113.9 146.8,114.5 146.8,115.8L146.8,115.4L146.8,116.1L147,115.1L147,114.7C147,113.4 145.1,112.8 141.8,112.9C141.9,111.7 142,110.4 142,109.2L141.6,109.2C142.1,109.3 142.6,108.5 142.7,107.2C145.8,107.2 147.6,107.9 147.5,109.2L147.5,109L147.5,109.2L147.5,108L148.1,108.5ZM124.7,84.6L124.9,84.6L124.7,84.6ZM77.4,87C77.4,87 77.4,87.1 77.3,87.2C77.3,87.2 77.3,87.1 77.4,87ZM77.2,87.3C77.2,87.3 77.2,87.4 77.1,87.5C77.1,87.5 77.1,87.4 77.2,87.3ZM70.7,102.1L70.7,102.2L70.7,102.1ZM108.2,141.9L108.2,141.9ZM104.3,139.4L104.1,139.4L104.3,139.4ZM138.8,126.7L138.9,126.7L138.8,126.7ZM91.6,92.2L91.6,92.2ZM91.5,92.1L91.2,92.1L91.5,92.1ZM91.2,92.2C91.2,92.2 91.1,92.3 91,92.5C91,92.4 91,92.3 91.2,92.2ZM76.4,126.7C76,127.2 75.8,127.6 75.7,128C74.4,125.9 73.4,123.7 72.5,121.4C71,117.2 70.2,113 70.2,108.8C70.2,108.5 70.2,107.7 70.4,106.2C70.5,105.9 70.7,105.6 70.9,105.3C71.3,104.7 72,104.1 72.8,103.4C72.7,108.1 73.5,113 75.3,118C75.9,119.6 76.6,121.1 77.3,122.6C77,123.1 77.3,124.2 77.8,125.2C77.2,125.7 76.7,126.2 76.4,126.7ZM79.4,123.9C78.7,122.9 77.9,122.1 77.4,122.4C76.8,120.8 76.1,119.3 75.5,117.7C73.7,112.8 72.9,107.9 73,103.2C74.2,102.3 75.6,101.2 77.3,100.2C77.4,104.7 78.4,109.6 80.2,114.5C81.1,116.8 82.1,119.1 83.2,121.2C81.7,122.1 80.4,123 79.3,123.9L79.4,123.9ZM77.4,99.6L77.4,99.9L77.4,99.6ZM77.8,98.9C77.8,98.9 77.9,99.1 77.9,99.3C77.9,99.2 77.9,99 77.8,98.9ZM83.9,120.9C82.7,118.7 81.7,116.5 80.9,114.2C79.1,109.3 78.1,104.5 78,99.9C78.6,99.5 79.3,99.1 80,98.7L80,97.7C79.2,98.1 78.4,98.5 77.7,98.9L77.8,98.9L77.6,98.9C77.5,99.1 77.5,99.2 77.4,99.4C77.4,99.1 77.5,99 77.6,98.9C75.8,100 74.3,101.1 73.1,102C73.3,98.6 73.9,95.3 75,92.2C77.4,90.2 81.5,87.8 86.5,85.5C86.5,85.8 86.6,86.1 86.8,86.3C87,86.5 87.2,86.6 87.5,86.5C87.5,88.6 87.7,90.9 88.1,93.4C86.1,94.3 84.2,95.2 82.5,96.2L82.5,96.7C82.4,95.6 81.8,94.8 81,95.2C81,95.2 81.2,95.2 81.3,95.1L81.3,93.8C81.8,93.3 82.3,92.3 82.4,91.2C82.4,90.3 82.3,89.1 81.4,89.5C80.2,90.2 79.5,93 80.2,93.9C80.3,94.1 80.5,94.2 80.7,94.1L80.7,95.4C79.6,96.4 79.3,99.2 80.4,100C80.6,100.2 80.8,100.2 81.1,100.2C81.5,104 82.5,108.1 84,112.3C84.9,114.6 85.9,116.9 87,119.1C85.9,119.8 84.8,120.4 83.8,121L83.9,120.9ZM87.8,118.7C86.7,116.5 85.7,114.3 84.8,111.9C83.3,107.7 82.3,103.7 81.8,99.8C82.3,99.3 82.7,98.3 82.7,97.2C84.5,96.3 86.4,95.3 88.4,94.4C89.1,98.6 90.4,103.3 92.2,108.2C93.1,110.5 94,112.8 95,115.1C92.4,116.3 90,117.5 87.8,118.7ZM96.8,115.2C96.7,114.9 96.5,114.7 96.5,114.4C96.3,114.5 96,114.6 95.8,114.7C94.8,112.5 93.9,110.2 93,107.8C91.2,102.9 89.9,98.2 89.1,94C89.7,93.7 90.4,93.4 91.1,93.1C92,97.3 93.3,101.9 95.1,106.8C95.7,108.4 96.3,110 97,111.5C97,111.5 97.1,111.4 97.2,111.3C96.1,111.9 96.1,113.7 96.9,115L96.8,115.2ZM97.4,111.4C97.5,111.4 97.7,111.4 97.8,111.3C97.2,109.7 96.5,108.2 95.9,106.6C94.1,101.7 92.7,97.1 91.8,92.9C95.5,91.3 99.5,89.7 103.7,88.2C104,88.7 104.5,89.1 105.1,89.4C106.7,90 108,88.5 107.6,86.9C108.8,86.5 109.9,86.1 111.1,85.8C111.8,85.6 112.4,85.4 113.1,85.2C116.2,86.8 117,87.2 119.9,88.9L119.9,88.6C119.8,89.9 120.8,91.6 122.2,92.1C123.7,92.6 124.6,91.4 124.1,89.8C125.1,89.6 126,89.4 126.9,89.2C127.7,90.8 128.5,92.5 129.1,94.2C125.3,95 121,96.1 116.3,97.6C114.5,98.2 112.6,98.8 110.9,99.4L110.9,99.6C110.3,98.5 109.2,97.7 108,98C106.1,98.8 106.4,101.5 107.8,102.8C106.8,106.2 106.4,107.4 105.6,110.5C103.7,111.2 101.9,112 100.1,112.7C100.1,112.7 100.1,112.8 100.2,112.9C99.5,111.6 98.3,110.9 97.3,111.3L97.4,111.4ZM140.7,117.7C139.4,117.8 137.9,118 136.3,118.3C136.3,117.3 135.9,116.4 135.1,116.4C133.8,116.8 133.4,119.3 133.8,120.7L133.8,120.6C132.4,123.3 131.8,124.4 129.9,127.9C128.2,128.3 126.3,128.9 124.3,129.5C121.2,130.4 118.2,131.5 115.3,132.7C114.8,132 114.1,131.5 113.5,131.6C112.5,129.6 111.5,127.5 110.4,125.3C110.4,125.3 110.3,125.4 110.2,125.4C110.5,125.3 110.7,125 110.8,124.7C113.6,126.4 114.1,126.8 116.2,128.2L116.5,128.2C118.9,127.3 121.4,126.5 123.9,125.7C125.1,125.3 126.2,125 127.3,124.7C127.4,124.7 127.4,124.7 127.5,124.5L128.3,122.8C129.3,123.6 130.5,122.1 130.5,120.3C130.5,119.1 130.1,117.6 128.8,117.8C127.2,118.3 127.1,121.1 127.9,122.3C127.9,122.3 127.9,122.2 127.8,122.1C127.6,122.6 127.3,123.2 127.1,123.6C126,123.9 124.9,124.2 123.7,124.6C121.2,125.4 118.7,126.2 116.3,127.1C113.6,125.2 113.4,125.1 111,123.6C111,123.2 111,122.8 110.8,122.4C110.4,121.4 109.3,120 107.9,120.5C106.1,121.4 107,124.4 108.9,125.2C109.2,125.3 109.5,125.4 109.7,125.3C110.8,127.5 111.9,129.6 112.9,131.6C112.5,132 112.4,132.8 112.7,133.5C109,135 105.7,136.6 102.9,138.1C101.8,137.2 100.7,136.3 99.7,135.4C100,135 99.7,134.1 99,133.3C98.6,132.9 98.2,132.5 97.7,132.2C97.2,129 97,127.8 97.2,123C98.6,122.3 100,121.7 101.6,121C102.8,123.2 104,125.4 105.2,127.4C104.2,128.3 105.3,130.8 107.2,131.4C108.7,131.9 109.2,130.4 108.5,128.9C107.8,127.6 106.5,126.8 105.6,127.1L105.9,127.1C104.7,125.1 103.5,122.9 102.4,120.7C107.1,118.7 112.3,116.7 117.6,114.9C120.5,117.1 120.8,117.3 122.4,118.7L122.8,118.7C131,116.2 137.7,114.8 142.1,114.5C142.1,114.8 142.1,115.1 142,115.4C141.6,115.7 141.2,116.5 141,117.5L140.7,117.7ZM142.2,118.7C143.8,118.7 144.9,118.9 145.6,119.3C145.3,120.3 145.2,121.1 145.2,121.5C145.2,121.7 145,122 144.9,122.2C144.8,122.2 144.2,123.1 143.7,124.2C143.1,123.9 142.1,123.7 140.7,123.7C141,122.5 141,121.6 140.7,121.6L140.8,121.6C140.8,121.3 141,121 141,120.7C141.4,120.5 141.9,119.6 142.2,118.5L142.2,118.7ZM142.1,109.7C142.1,111 142.1,112.2 142,113.4C137.6,113.6 130.7,115 122.5,117.6C119.7,115.3 119.6,115.3 117.6,113.8L117.4,113.8C111.9,115.6 106.6,117.7 101.7,119.8C101.2,118.7 100.7,117.6 100.1,116.5C100.6,116 100.9,115.1 100.7,114.1C102.6,113.3 104.5,112.5 106.4,111.8C106.5,111.8 106.6,111.7 106.6,111.5C107.4,108.9 108.1,106.2 108.9,103.6C110.5,104.2 111.8,102.7 111.4,100.8C113.2,100.2 115,99.6 116.8,99C121.5,97.5 125.9,96.4 129.6,95.6C130.1,96.8 130.5,98.1 130.9,99.4C129.6,100.1 130,103.4 131.6,104.6C132.9,105.5 134,104.1 133.7,102C133.4,100.4 132.3,99.1 131.3,99.2L131.7,99.2C131.3,97.9 130.9,96.7 130.5,95.4C131.4,95.2 132.2,95.1 133,94.9C137.1,99.1 138.7,101 141.3,105.7C141.1,107.1 141.4,109 142.1,109.6C142.8,110.2 142.2,109.7 142.3,109.7L142.1,109.7ZM143.3,107.7L143.3,107.4L143.3,107.7ZM143.3,107.3L143.3,107L143.3,107.3Z" style="fill:#196917;fill-rule:nonzero;"/>
            <path d="M130,141.9L130.4,141.7C130.3,141.8 130.1,141.9 130,142L130,141.9Z" style="fill:#196917;fill-rule:nonzero;"/>
            <path d="M113.8,76.2C114.9,76.7 115.8,76.9 116.3,76.8C116.5,76.9 116.7,77 116.9,77.1C116.8,77.4 117.3,78 118,78.6C116.4,79.6 114.4,80.6 112.3,81.7C112.6,81.9 112.8,82.2 113,82.4C115.2,81.3 117.2,80.2 118.9,79.2C120.5,80.1 121.7,80.2 121.6,79.5C121.5,78.3 118.3,76.8 117.2,77C117,76.9 116.8,76.8 116.6,76.7C116.4,76.6 116.6,76.6 116.6,76.5C116.2,75.6 113.1,74.5 112.1,74.7C106.7,72.7 101.2,72.1 95.9,73.2C101.1,72.2 106.6,72.9 111.8,74.9C111.7,75.2 112.6,75.8 113.3,76.2C113.1,76.1 113,76 112.8,75.9C111.5,76.7 109.9,77.5 108.2,78.4C108.6,78.7 108.8,78.9 108.9,79C110.7,78.1 112.3,77.2 113.7,76.4L113.8,76.2Z" style="fill:#0de809;fill-rule:nonzero;"/>
            <path d="M91.3,78C91.2,78.2 91.2,78.3 91.2,78.3C92.1,78.1 93.1,77.8 94.1,77.5C95,77.2 95.8,76.9 96.7,76.6C97,77.5 97.7,77.6 97.9,77.2L97.9,77.1C100.1,78.9 103.6,80.7 104,80.9L104.2,80.9C105.2,80.5 106.1,80.1 107,79.7C107.7,80.3 108.5,80.5 108.9,80.5L109.4,81C109.5,80.9 109.7,80.8 109.9,80.8C109.7,80.6 109.5,80.4 109.3,80.3C109.3,80.3 109.4,80.1 109.4,79.9C109.4,78.8 107.1,77.4 106.1,77.6C102.4,74.8 98.8,73.1 95.6,73.1C98.7,73.1 102.2,74.9 105.8,77.8C105.5,78.1 105.8,78.7 106.3,79.2C105.5,79.6 104.6,79.9 103.8,80.3C100.3,78.4 99.7,78.1 97.8,76.7L97.8,77C97.8,76.3 97.1,75.2 96.6,75.2C96.2,74.3 95.9,73.6 95.6,73.2C95.8,73.7 96.1,74.4 96.4,75.3C96.2,75.3 96.1,75.9 96.3,76.4C95.6,76.7 94.8,76.9 94,77.2C93.1,77.5 92.2,77.7 91.5,77.9C92.7,76 94,74.5 95.6,73.4C97.2,72.3 95.6,73.4 95.6,73.4C93.8,74.7 92.4,76.3 91.1,78.4L91.3,78Z" style="fill:#0de809;fill-rule:nonzero;"/>
            <path d="M85.7,81L84.5,81C84.4,81.1 84,81.5 83.7,81.9L85.1,81.9C85.1,81.9 85.3,81.7 85.6,81.5C88.5,78 91.9,75.2 95.9,73.1C99.9,71 95.9,73.1 95.9,73.1C92,75.1 88.6,77.8 85.7,81.1L85.7,81Z" style="fill:#0de809;fill-rule:nonzero;"/>
            <path d="M70.7,102.2C70.7,101.8 70.9,101.4 71,100.9C70.9,101.5 70.8,101.8 70.7,102.2Z" style="fill:#0de809;fill-rule:nonzero;"/>
            <path d="M72,96.9L71.7,97.7C71.5,98.6 71.2,99.8 70.9,100.8C71.1,100.1 71.3,99 71.9,96.8L72,96.9Z" style="fill:#0de809;fill-rule:nonzero;"/>
            <path d="M95.8,107.8C96.2,107.2 96.3,106.3 96.1,105.5L96.1,105.8C96.4,105.8 96.7,105.7 97,105.6C98.7,105.1 100.5,104.5 102.2,103.9C102.3,103.9 102.6,103.7 104.7,96.3C106.6,95.6 108.5,94.8 110.3,94.1C111.3,95.6 113.2,95.9 113.7,94.5C114.3,92.8 112.3,90.1 110.5,90.7C109.4,91.3 109.6,92.8 110.1,93.7C110.1,93.5 109.9,93.4 109.9,93.1C108.1,93.8 106.2,94.6 104.2,95.3C104.067,95.367 103.733,96.333 103.2,98.2C102.8,99.6 102.2,101.4 101.7,102.8C100.1,103.4 98.4,103.9 96.8,104.4C96.5,104.4 96.2,104.6 95.9,104.7C95.5,103.7 94.7,102.9 93.6,103.2C92.2,103.7 92,105.5 92.4,106.7C93,108.7 94.9,109.3 95.8,107.8Z" style="fill:#0de809;fill-rule:nonzero;"/>
            <path d="M133.2,88.4C132.6,88.9 133.2,90.3 133.7,91.2C133.7,91.1 133.6,91 133.5,90.8C131.2,92.3 128.3,94 125,95.7C125.3,96.2 125.5,96.6 125.6,96.7C129,95 131.9,93.3 134.2,91.8L134.1,91.7C134.5,92.2 135.4,93.1 136.2,93.1C137.9,95.8 139.3,98.7 140.4,101.8C140.6,102.3 140.8,102.8 140.9,103.3L140.9,103.2C140.3,103.8 140.4,105.5 140.9,106.9C141.4,108.6 142.4,109.2 142.8,108.2C143.6,106.6 142.5,102.9 141.3,103C141.1,102.5 141,102 140.8,101.5C139.7,98.4 138.2,95.5 136.6,92.8C136.9,92.1 136.6,91.3 136.2,90.5C136.2,90.5 136.4,90.4 136.5,90.3L136.4,90.3L136.6,90.3C136.6,90.3 136.8,90.2 136.8,90.1C138,89.2 138.8,88.3 139.4,87.5C140,86.8 140.2,86.1 140.2,85.6C141.1,86.7 141.3,86.9 141.4,87C143.9,90.8 144.6,92.1 146.5,97.4L145.8,95.4C145.5,94.5 144.9,93.3 144.5,92.4C143.6,90.4 142.5,88.6 141.3,86.9C140.9,86.1 138.4,82.9 137.9,82.6C137.9,82.8 138.2,83.2 139.4,84.6C139.4,85.1 139.2,85.8 138.6,86.5C138,87.3 137,88.2 135.7,89.2C135.6,89.2 135.5,89.3 135.4,89.4C134.7,88.6 133.8,88.1 133.2,88.3L133.2,88.4ZM134.8,91L134.8,90.6C134.7,90.6 134.7,90.8 134.8,91ZM134.8,90.6C134.8,90.6 134.9,90.6 135,90.7C134.9,90.7 134.8,90.7 134.7,90.6L134.8,90.6ZM141.1,103.1L141,103.2L141.1,103.1ZM135.4,91L135.4,90.9L135.4,91Z" style="fill:#0de809;fill-rule:nonzero;"/>
            <path d="M80.2,82.8L79.9,83.2C80.2,82.9 80.4,82.6 80.7,82.3C80.7,82.3 80.8,82.2 80.9,82.1L80.2,82.8Z" style="fill:#0de809;fill-rule:nonzero;"/>
            <path d="M97.7,71.7L97.5,71.7C96.9,71.9 96.3,72.3 95.8,73C96.4,72.3 97,71.9 97.7,71.7Z" style="fill:#0de809;fill-rule:nonzero;"/>
            <path d="M96.9,72.2C96.5,72.4 96.2,72.7 95.8,73C96.3,72.7 96.6,72.4 96.9,72.2Z" style="fill:#0de809;fill-rule:nonzero;"/>
            <path d="M99.5,71.2C99.1,71.2 98.7,71.4 98.3,71.5C98.5,71.5 98.8,71.3 99.2,71.2L99.5,71.2Z" style="fill:#0de809;fill-rule:nonzero;"/>
            <path d="M95.8,73L95.8,73Z" style="fill:#0de809;fill-rule:nonzero;"/>
            <path d="M98.4,71.5C97.8,71.7 97.5,71.9 96.9,72.2C97.4,71.9 97.8,71.6 98.4,71.5Z" style="fill:#0de809;fill-rule:nonzero;"/>
            <path d="M110.9,70L111,70L110.9,70Z" style="fill:#0de809;fill-rule:nonzero;"/>
            <path d="M102.2,70.6C102,70.6 101.8,70.6 101.6,70.7C101.8,70.7 102,70.7 102.2,70.6Z" style="fill:#0de809;fill-rule:nonzero;"/>
            <path d="M109.8,70L110.8,70L109.8,70Z" style="fill:#0de809;fill-rule:nonzero;"/>
            <path d="M110.9,70.1L112.1,70.1L110.9,70.1Z" style="fill:#0de809;fill-rule:nonzero;"/>
            <path d="M116,70.6C114.9,70.5 114,70.3 113.3,70.2C114.3,70.3 115.4,70.5 116.4,70.7L116,70.7L116,70.6Z" style="fill:#0de809;fill-rule:nonzero;"/>
            <path d="M113.3,70.2L112.2,70.2L113.3,70.2Z" style="fill:#0de809;fill-rule:nonzero;"/>
            <path d="M95.6,72.4L95.4,72.4L95.8,73C95.6,72.5 95.6,72.5 95.6,72.4Z" style="fill:#0de809;fill-rule:nonzero;"/>
            <path d="M93.8,73.1L93.6,73.1C94.2,72.9 94.9,72.9 95.8,73.1C95,72.9 94.4,72.9 93.8,73.1Z" style="fill:#0de809;fill-rule:nonzero;"/>
            <path d="M114.6,72.6C114.6,72.7 115.5,73.1 116.2,73.3C115.9,73.6 115.6,73.9 115.2,74.2C114.9,74.5 114.5,74.7 114.1,75C114.6,75.2 115,75.3 115.1,75.4C115.5,75.1 115.9,74.8 116.3,74.6L116.4,74.5C116.7,74.2 117,74 117.3,73.7C195.5,122.833 195.5,122.833 117.3,73.7C118.6,74.1 119.5,74.2 119.8,74.1C120,74.1 120.3,74.3 120.5,74.4L120.5,74.3C120.4,74.6 121.6,75.3 122.2,75.6L122,75.6C121.7,75.9 121.2,76.3 120.8,76.6C120.4,76.9 119.9,77.2 119.4,77.6C119.8,77.8 120.1,78 120.4,78.2C120.9,77.9 121.4,77.5 121.8,77.2L121.9,77.2C121.9,77.2 122,77.2 122.1,77.1C122.5,76.8 122.9,76.5 123.2,76.1C124.7,76.8 125.8,77 125.6,76.5C125.5,76.2 124.8,75.7 124,75.3C124.6,74.5 124.7,73.9 124.4,73.4C124.4,73.4 123.9,73.2 123.3,73C123.6,73.4 123.5,74 122.9,74.8C122,74.4 121.1,74.2 120.7,74.3C120.5,74.3 120.3,74.1 120,74C119.8,73.6 118.4,73.1 117,72.7C117.5,72.8 117.9,72.9 118.1,73C118.6,72.3 118.7,71.8 118.4,71.5C118.1,71.5 117.5,71.3 117.2,71.2C117.4,71.5 117.3,72 116.9,72.6C116,72.4 115.2,72.3 114.9,72.4C108.7,71 102.3,71.1 96,73C102.2,71.2 108.7,71.2 114.8,72.6L114.6,72.6ZM120.8,76.6C120.8,76.7 121,76.8 121.1,76.9C120.9,76.8 120.7,76.7 120.8,76.6ZM114.7,72.5L114.7,72.5Z" style="fill:#0de809;fill-rule:nonzero;"/>
            <path d="M105.1,70.2C105.5,70.2 105.9,70.1 106.2,70.1C107.7,70.1 108.7,70 109.7,70C108.7,70 107.4,70 106.3,70.1L107,70.1C106.3,70.1 105.5,70.2 104.7,70.3C104.4,70.3 104,70.3 103.6,70.4C102.9,70.5 102.7,70.5 102,70.7C102.5,70.7 103,70.6 103.5,70.5C102.7,70.6 102.1,70.8 102.1,70.8C100,71.3 97.8,72.1 95.7,73.1C97.9,72.1 100,71.3 102.2,70.8C103.2,70.7 104.1,70.5 105,70.3L105.1,70.2Z" style="fill:#0de809;fill-rule:nonzero;"/>
            <path d="M148.1,108.5C148.1,109 147.8,109.6 147.3,110.3C146.4,111.5 144.7,112.9 142.5,114.4L142.5,115.1C142.5,113.8 142,112.6 141.3,112.7L141.1,112.7C140.8,112.9 140.6,113.3 140.5,113.7C136.3,108.9 131.6,105.6 131.3,105.7C130.4,106.1 129.5,106.6 128.6,107C127.6,104.4 126.4,101.8 125.2,99.3C126.8,97.9 124.8,94.5 122.9,94.4C122.6,94.4 122.5,94.4 122.3,94.5C121.1,95.2 121.6,97 122.2,97.9C122.5,98.4 123.2,99.4 124.5,99.5C125.8,102 126.9,104.6 128,107.3C123.9,109.3 119.3,111.3 114.4,113.2C113.7,111.4 113.1,109.6 112.4,107.9C113.5,107.5 114.6,107.1 115.6,106.6C115.7,106.6 115.8,106.5 115.8,106.3C117.2,100.2 117.6,97.7 118.1,92.6C117.8,92.5 117.7,92.4 117.4,92.2C118.5,92.9 119.7,92.8 119.9,91.7C120.2,90.1 118.1,87.9 116.6,88.1C115.9,87.2 115.2,86.3 114.5,85.4C119.1,83.2 122.9,81 125.4,79.1C125.4,79.1 125.5,79 125.6,79C126.5,78.3 127.2,77.6 127.7,77C128.4,76 128.5,75.3 128,74.8C129.1,75.4 130.1,76 131.1,76.7C131.6,77.1 132.2,77.6 132.8,78C133.2,78.5 133,79.3 132.3,80.2C131.7,80.9 130.9,81.8 129.7,82.6C127.2,84.6 123.3,86.8 118.6,89.1C119,89.5 119.2,89.8 119.3,90C124,87.7 127.9,85.4 130.5,83.4C130.5,83.4 130.6,83.3 130.7,83.2C131.7,82.4 132.6,81.6 133.1,80.9C133.8,79.9 134,79.2 133.6,78.6C134.1,79 134.6,79.5 135.2,79.9L135.1,79.9C133.9,78.8 132.3,77.6 131.1,76.7C131,76.7 131,76.7 130.9,76.6C129.9,75.9 128.9,75.3 127.8,74.7C127.8,74.7 127.6,74.6 127.5,74.5L126.4,73.9C126.5,73.9 126.6,74 126.7,74.1C126.4,74 126.2,73.8 125.9,73.7C125.6,73.5 124.7,73.1 123.7,72.7C123.7,72.7 123.6,72.7 123.4,72.6L122.2,72.2C122.3,72.2 122.4,72.3 122.5,72.3C121.7,72 121,71.8 120.8,71.8C120.5,71.8 120.2,71.6 120,71.6C119.7,71.5 118.8,71.2 117.8,71C117.6,70.9 117.4,70.8 117,70.7C116.7,70.7 116.4,70.6 116.2,70.6C116.3,70.6 116.5,70.7 116.6,70.8C115.7,70.7 115,70.5 114.7,70.6C108.5,69.8 102,70.5 95.7,73C102,70.5 108.6,69.9 114.8,70.7C115,70.7 115.5,70.9 117.6,71.3C119.9,71.8 119.9,71.8 120,71.8C120.3,71.8 120.6,72 120.9,72.1L120.8,72.1C120.8,72.1 120.9,72.1 123.6,73.2C125.6,74 125.8,74.1 125.8,74C126.1,74.1 126.4,74.3 126.6,74.4C127.1,74.9 127,75.6 126.3,76.6C125.8,77.2 125.1,78 124.1,78.7C121.7,80.5 118,82.7 113.5,84.8C113.3,84.6 113.1,84.4 113,84.2C113.1,84.1 113.2,83.9 113.2,83.8C113.3,82.3 110.7,80.5 109.6,81C109,81.3 109.2,82.1 109.7,82.9C108.1,83.6 106.5,84.3 104.7,85C104.1,84.3 103.4,83.8 102.7,84C102.4,84.2 102.2,84.5 102.1,84.9L102.1,84.6C99.7,83 98.6,82.1 98.6,82.1C97.667,81.3 97.167,80.9 97.1,80.9C95.9,81.3 94.8,81.7 93.6,82.1C91.2,82.8 89,83.4 87.1,83.9C87.4,83.2 87.5,82.5 87.3,82.4C89.4,78.5 92.2,75.4 95.6,73.3C99,71.2 95.6,73.3 95.6,73.3C92.1,75.4 89.2,78.6 87,82.5C80.2,83.567 80.2,83.567 87,82.5C86.6,82.7 86,83.4 85.5,84.2C83.5,84.5 82,84.6 81,84.4C81.2,84.2 81.4,83.9 81.6,83.7C84.8,83.433 84.8,83.433 81.6,83.7C82,83.7 85.2,80.1 85.5,79.8C88.4,77.2 91.8,75 95.6,73.4C91.8,75 88.4,77.2 85.5,79.8C85.3,79.8 84.5,80.5 83.6,81.3C83,81.1 82.8,80.7 83.3,80C83.7,79.6 83.7,79.6 84.3,79L83.1,80C82.8,80.3 82.7,80.3 82.4,80.8C81.9,81.5 82,82 82.7,82.2C82,82.9 81.5,83.6 81.5,83.8C81.3,84 81.1,84.2 80.9,84.5C79.9,84.3 79.6,83.7 80.3,82.8C80,83.1 79.8,83.4 79.5,83.7C78.8,84.7 79.1,85.3 80.1,85.5C79.2,86.7 78.3,88 77.5,89.3C71.567,93.3 71.567,93.3 77.5,89.3C77.2,89.4 76.6,90.2 76.1,91.1C75.1,90.8 74.8,90.1 75.4,89.1L74.7,90.2C74.1,91.2 74.4,91.8 75.5,92.1L75.5,92C74.9,93.3 74.7,94.3 75.1,94.2C75.7,94 77.7,90 77.6,89.4C78.4,88.1 79.3,86.8 80.2,85.5C81.2,85.7 82.8,85.6 84.9,85.3C84.5,86.3 84.5,86.9 84.8,87C83.9,89.2 83.2,91.5 82.7,93.9C82.8,93.9 82.9,93.9 83,93.8C82.3,93.9 81.5,95.4 81.4,96.8C81.2,98.4 81.8,99.4 82.7,98.8C83.6,98.1 84,96 83.8,94.8C85,92.7 85.5,92 87,89.4C89,88.9 91.2,88.3 93.5,87.6C94.1,87.4 94.7,87.2 95.3,87L96.2,87.9L96.2,89.4C96.6,91 98.2,91.5 98.9,90.2C99.6,88.8 98.6,86.2 97.1,86.6C96.8,86.7 96.6,86.9 96.5,87.2C95.767,86.467 95.367,86.133 95.3,86.2C94.7,86.4 94.1,86.6 93.4,86.8C91.1,87.5 89,88.1 87,88.6C86.933,88.6 86.867,88.667 86.8,88.8C85.3,91.3 85.2,91.4 83.4,94.4C83.4,94.3 83.2,94.2 83.1,94.1C83.6,91.7 84.3,89.4 85.1,87.2C85.5,86.9 86,86.2 86.4,85.4C88.4,85 90.7,84.4 93.3,83.6C94.5,83.2 95.8,82.8 97,82.4C98.5,83.8 100.3,85 101.8,86.1C101.8,86.5 101.9,87 102.2,87.4C103.1,89 104.7,89.2 105.1,88C105.2,87.6 105.2,87 105.1,86.5C106.9,85.8 108.6,85 110.2,84.3C110.9,85 111.7,85.3 112.3,85.2C112.5,85.4 112.6,85.6 112.8,85.8C107.3,88.4 100.7,91 94.1,93C93.7,93.1 93.3,93.3 92.8,93.4C92.8,93.4 92.8,93.5 92.7,93.6C92.4,94.2 91.2,97 90.1,99.2C85.7,100.4 81.9,101.2 78.9,101.6C79.2,99.1 79.7,96.7 80.3,94.4C81.4,93.8 82.8,89.7 81.9,89.6C81.3,89.7 80.4,91.1 80,92.3C79.6,93.4 79.6,94.3 80,94.5C79.3,96.8 78.8,99.2 78.5,101.7C77.5,101.8 76.7,101.9 75.9,101.9C75.4,97.8 75.6,96.6 76.2,93.5C76,93.9 75.9,94 75.7,94.3C75.3,96.6 74.9,99 75.5,103C75.5,103.1 75.5,103.1 75.6,103.2C76.4,103.2 77.3,103.2 78.4,103C78.3,104.2 78.2,105.4 78.2,106.6L78.4,106.6C77.9,106.8 77.5,107.7 77.4,108.8C75.7,108.9 74.2,108.9 73.1,108.8L73.1,110.1C74,110.2 75.2,110.2 76.5,110.1C76.6,115.1 77.5,120.2 79.3,125.1C80.2,127.4 81.2,129.6 82.4,131.7L78.8,131.7C79.1,132.2 79.3,132.5 79.4,132.7C80.4,132.8 81.6,132.8 83,132.7C84.5,135.2 86.3,137.4 88.3,139.3C87.9,139.4 88.1,140 88.8,140.8C90.067,175.6 90.067,175.6 88.8,140.8C86.7,140.8 85.2,140.7 84.3,140.2C81.6,137.9 79.1,135.2 77.1,132.1C77.3,132.2 77.6,132.3 78,132.4C78.9,133.6 79.8,134.5 79.9,134.1C80,133.5 77.7,129.7 76.8,129.4L77,129.4C76.2,127.9 75.6,126.4 75,124.8C73.4,120.6 72.6,116.2 72.5,111.9C72.4,107.6 72.5,111.9 72.6,111.9C73.2,111.3 73.4,106.7 72.6,106.4C72.2,106.4 71.9,107.4 71.8,108.6L71.8,108.5C71.6,108.5 71.5,108.4 71.3,108.4L71.3,109.6C71.4,109.6 71.6,109.7 71.7,109.7C71.7,110.7 71.9,111.6 72.2,111.9C72.3,116.2 73.1,120.6 74.7,124.8C75.3,126.4 76,127.9 76.7,129.4C76.4,129.4 76.7,130.4 77.3,131.5C77.3,131.5 77.3,131.4 77.2,131.3C76.9,131.3 76.6,131.1 76.3,131C75.1,129 74,126.8 73.1,124.4C71.6,120.2 70.8,115.9 70.7,111.7C70.6,107.5 70.7,111.7 70.7,111.7C71.1,111.3 71.3,106.5 70.9,106.1L70.9,106.2C71.2,103.9 71.7,101.6 72.3,99.4C72.6,99.3 73.1,98.1 73.5,97C73.8,96.3 74.4,94.5 74.2,94.3C74,94.3 73.5,95.1 73,96.1C72.6,95.8 72.5,95.3 72.8,94.7L72.3,95.9C72.1,96.5 72.2,96.9 72.5,97.3L72.5,97.2C72.1,98.3 71.9,99.2 72,99.5C71.3,101.7 70.8,103.9 70.5,106.2C70.2,106.2 70,107.5 69.9,108.8L69.9,108C69.6,107.8 69.5,107.5 69.5,107.2C69.5,106.5 69.6,105.9 69.7,105.3C69.7,105.7 69.6,106.3 69.5,107L69.5,109L69.5,108.4C69.5,108.7 69.7,109 69.9,109.3C69.9,110.5 69.9,111.5 70.2,111.8C70.2,116.1 70.9,120.3 72.4,124.5C73.3,126.8 74.3,129 75.6,131.1C75.4,131 75.2,130.8 75,130.6L75.7,131.7C75.8,131.9 76,132.1 76.2,132.2C78.2,135.3 80.7,138 83.4,140.3C83.4,140.3 83.3,140.3 83.2,140.2L84.2,141L84.3,141.1C85.2,141.8 86.1,142.4 87,143L87.8,143.5L88.9,144.1L89.8,144.6C89.5,144.5 89.2,144.3 89,144.2C90.1,144.8 92.2,144.9 95.2,144.5C96.6,145.3 98.1,145.7 98.1,145.1C98.1,144.4 95.3,142.5 94,142.6C93.4,142.7 93.7,143.3 94.5,143.9C91.4,144.3 89.2,144.2 88.1,143.6C86.9,142.9 85.8,142.1 84.7,141.3C85.6,141.7 87,141.9 89.1,141.9C90.4,142.9 91.9,143.5 91.9,142.9C91.9,142.3 89.4,140 88.2,139.8C86.3,137.8 84.6,135.6 83.1,133.1C86.3,132.8 90.4,132.1 95.3,130.9C96,131.8 96.9,132.2 97.7,132.2L97.5,132.2C98,133.2 98.6,134.1 99.1,135C97.5,135.4 96,135.8 94.5,136.1C94.4,136.1 94.4,136.1 94.4,136.3C94.3,139.8 94.4,140.6 95.1,143L95.2,143C95.6,143.1 95.9,143.3 96,143.4C95.2,140.8 95.2,139.8 95.3,137C96.7,136.7 98.1,136.3 99.7,136C100.9,137.9 102.1,139.5 103.4,141C103.5,141 103.6,140.9 103.7,140.9C102.8,141.2 102.8,142.1 103.7,143C105,144.1 107.1,144.3 107.1,143C107.1,142 105.3,140.7 104,140.8L104.1,140.8C102.9,139.3 101.6,137.6 100.5,135.8C102.5,135.3 104.5,134.7 106.7,134C109.8,133 113,132 116,130.8C119.267,132.6 120.967,133.5 121.1,133.5C128.8,130.4 135.8,127.1 140.5,124.1C140.5,124.4 140.5,124.6 140.4,124.9C139.9,125.4 139.5,126.3 139.3,127.2C137.9,128.1 136.3,128.9 134.6,129.8L134.6,130.8C136.3,129.9 137.8,129.1 139.2,128.3C139.2,129 139.2,129.6 139.5,129.5C139.5,129.8 139.4,130 139.3,130.2C139.3,130.2 139.4,130.1 139.5,130C139,130.3 138.4,131.3 138,132.3C137.2,132.8 136.3,133.3 135.4,133.8C135.4,133.8 135.3,133.8 135.2,134C133.1,137.2 131.6,139.1 129.7,141.4C129.6,141.3 129.4,141.4 129.3,141.4C128.7,141.7 128.2,142.4 127.9,142.9L127.9,142.8C125.2,144 122.2,145.2 119.1,146.3C119,146.3 119,146.4 119.1,146.5C119.9,147.3 120.5,147.7 121,147.6L121.2,147.6C120.8,147.6 120.3,147.3 119.6,146.6C122.5,145.6 125.2,144.5 127.7,143.4C127.6,143.6 127.5,144 127.7,143.9C127,144.8 126.2,145.5 125.2,146L125.4,146L125.4,145.9C126.4,145.4 127.3,144.7 128,143.7C128.6,143.3 129.6,142.2 129.7,141.7C132.2,138.8 132.9,137.9 135.2,134.6C136.1,134.1 136.9,133.6 137.7,133.2C148.9,133 148.9,133 137.7,133.2C137.5,133.8 137.4,134.4 137.7,134.4C135.8,138.3 133,141.5 129.5,143.7L129.9,143.5C133.4,141.2 136.1,138.1 138,134.3C138.4,133.9 139,133.1 139.4,132.3C140.9,131.3 142,130.4 142.7,129.6C142.5,130 142.3,130.4 142.1,130.8C141.8,131.4 141.4,132 141,132.5L141.2,132.3C141.5,131.8 141.8,131.3 142.1,130.8C142.4,130.5 143.2,128.9 143.8,127.7C144.2,126.9 144.5,126.2 144.5,126.1C144.5,125.9 144.7,125.7 144.8,125.5C145,125.1 145.4,124.2 145.7,123.2C145.7,123.1 145.8,122.9 145.9,122.8L146.3,121.6C146.3,121.7 146.2,121.9 146.1,122.1C146.3,121.4 146.4,120.7 146.4,120.5C146.4,120.6 146.1,120.9 145.5,123C144.7,124 143.3,125.1 141.6,126.2C141.7,125.5 141.6,124.9 141.3,124.9C141.3,124.6 141.3,124.4 141.4,124.1C143.8,122.5 145.6,121.1 146.6,119.8C147,119.3 147.2,118.9 147.3,118.5L147.5,117.5L147.5,117.3C147.5,117.7 147.2,118.2 146.8,118.7C145.8,120 144,121.4 141.5,123C141.5,121.9 141.6,120.8 141.6,119.6C142.1,119 142.3,118.2 142.3,117.4C144.5,115.9 146.2,114.5 147.1,113.3C147.6,112.6 147.9,112 147.9,111.5L147.9,110.2L148.1,108.5ZM123.3,97.4C123.3,97.3 123.3,97.2 123.4,97.1C123.4,97.1 123.3,97.2 123.3,97.4ZM123.5,97.1L123.6,97.1L123.5,97.1ZM123.7,97L123.6,97L123.7,97ZM124,97.3C124,97.3 124,97.4 124.1,97.4C124.1,97.4 124.1,97.3 124,97.3ZM129.8,83.1C129.9,83.2 130,83.3 130.1,83.4C130,83.4 129.8,83.2 129.7,83.1L129.8,83.1ZM133.4,78.6L133.4,78.6ZM131,76.8L131,76.8ZM120.2,71.8C200.333,119.667 200.333,119.667 120.2,71.8ZM124.8,79.2L125,79.2C124.9,79.2 124.7,79 124.6,78.9C124.7,79 124.9,79.1 124.9,79.1L124.8,79.2ZM104.5,139.2L104.2,139.2L104.5,139.2ZM76.6,108.5L76.6,108.2L76.6,108.5ZM76.6,108.2C76.6,108.1 76.6,108 76.7,107.9C127.833,179.833 127.833,179.833 76.7,107.9C76.7,108 76.6,108.1 76.6,108.2ZM76.8,107.9L76.8,107.9ZM76.9,107.9C76.9,107.9 77,107.9 77,108.1C77,108.1 77,108 76.9,107.9ZM77,108.3L77,108.5L77,108.3ZM83,130.5C81.8,128.5 80.8,126.3 79.9,123.9C78.1,119 77.2,113.9 77,108.9L77.4,108.9C77.5,110 78,110.9 78.4,111.1C78.8,115.3 79.7,119.7 81.2,123.8C82.1,126.1 83.1,128.3 84.2,130.4C83.7,130.4 83.2,130.5 82.7,130.5L83,130.5ZM96.1,125.8C95,126.2 94.9,127.3 95.2,128.4C91.3,129.4 87.9,130 85,130.4C83.9,128.4 82.8,126.2 82,123.8C80.5,119.6 79.5,115.3 79.1,111.1C79.1,111.1 79.2,111 79.3,110.9C79.7,110.4 79.9,109.5 80,108.6C81.2,108.5 82.6,108.2 84,107.9C85.8,110.3 86,110.5 88.7,113.3C88.7,112.9 88.9,112.6 89.1,112.3C86.7,109.8 86.6,109.7 84.4,106.8C84.3,106.7 84.2,106.7 84.1,106.7C82.6,107 81.2,107.3 80,107.4L80,108.5C80,107.1 79.6,105.7 79,105.5C79,104.3 79,103.1 79.2,102C82.3,101.6 86.3,100.8 90.9,99.5C90.9,99.5 90.9,99.4 91,99.3C91.9,97.4 92.7,95.5 93.5,93.6C93.9,93.5 94.2,93.4 94.6,93.3C101.4,91.2 108.2,88.5 113.9,85.9C114.6,86.8 115.3,87.7 115.9,88.6C115.9,88.6 116.1,88.5 116.2,88.4C115.3,88.9 115.5,90.3 116.2,91.4C116.5,91.8 116.9,92.2 117.2,92.4L117.1,92.3L117,92.3C116.6,97.2 116.1,100 114.8,105.6C113.8,106 112.8,106.4 111.8,106.8C111.3,105.6 110.9,104.4 110.4,103.2C110.6,103 110.8,102.8 110.9,102.5C111.7,100.6 109.9,97.7 107.9,98.3C106.6,98.9 106.6,100.7 107.1,101.8C107.7,103.1 108.9,103.8 109.9,103.5L109.6,103.5C110.1,104.7 110.5,105.9 111,107.1C107.1,108.6 103,110 98.9,111.3C96.6,112 94.4,112.6 92.3,113.2C91.9,112.2 91,111.3 90,111.5C88.8,111.9 88.5,113.6 89,115C89.7,117.1 91.6,117.8 92.4,116.3C92.8,115.5 92.8,114.4 92.4,113.5C92.5,113.8 92.6,114.1 92.6,114.4C94.7,113.8 96.9,113.2 99.2,112.5C103.3,111.2 107.5,109.8 111.4,108.3C112.1,110.1 112.7,111.8 113.4,113.6C112.3,114 111.2,114.4 110.1,114.8C109.5,113.7 108.5,113 107.3,113.3C105.7,114 105.8,115.9 106.3,117C106.5,117.5 106.8,117.9 107.1,118.2C106.4,120.2 106.3,120.7 104.7,125.5C104.5,125.5 104.3,125.6 104.1,125.7C102.3,126.3 100.6,126.7 99,127.3C98.4,126.3 97.3,125.5 96.1,125.7L96.1,125.8ZM121.5,131C116.7,128.2 116.5,128.2 116.3,128.2C113.1,129.4 109.9,130.5 106.7,131.5C104.5,132.2 102.4,132.8 100.4,133.3C99.8,132.4 99.3,131.4 98.8,130.5C99.1,130.3 99.3,130.1 99.4,129.7C99.5,129.3 99.5,128.9 99.4,128.5C101,128.1 102.8,127.5 104.5,127C104.8,127 105,126.8 105.3,126.7C105.5,126.7 105.5,126.6 105.6,126.4C106.533,123.467 107.333,121 108,119C108.9,119.3 109.9,119 110.4,118C110.6,117.4 110.7,116.8 110.5,116.2C111.6,115.8 112.7,115.4 113.8,115C114.2,116.2 114.7,117.4 115.1,118.5L115.1,118.7C114.2,119.4 114.1,120.9 114.6,122C115.5,124 117.8,124.1 118.5,122.3C118.7,121.8 118.7,121.3 118.6,120.7C120.6,120 122.5,119.2 124.3,118.4C126.8,120.1 127.6,120.6 129.7,122.3L129.9,122.3C131.8,121.4 133.6,120.5 135.2,119.7C135.6,121.1 136.5,121.5 137.3,120.5C138.5,118.8 138,115.6 136.5,115.8C136.5,115.8 136.3,115.8 136.2,115.9C135.2,116.5 135,118 135.1,119.1L135.1,118.7C133.5,119.5 131.8,120.4 130,121.2C127.5,119.4 127.3,119.2 124.5,117.3L124.2,117.3C122.3,118.1 120.3,119 118.3,119.8C117.8,118.9 116.9,118.3 116,118.5L116,118.4C115.6,117.2 115.1,116.1 114.7,114.9C119.6,113 124.2,111 128.3,109C128.8,110.2 129.2,111.5 129.6,112.7C129.6,112.7 129.7,112.7 129.7,112.6C128.8,113.3 128.6,114.9 129.1,116.2C129.8,118.1 131.4,118.4 132.2,116.8C133.1,114.9 131.9,112.1 130.4,112.3C130,111.1 129.6,109.8 129.1,108.6L131.6,107.3C136.5,111 137.8,112.3 140.2,115.1L140.2,116.7C140.3,117.9 140.8,118.5 141.3,118.4C141.3,119.5 141.3,120.6 141.2,121.7C136.4,124.7 129.4,128.1 121.6,131.2L121.5,131ZM144.9,124.3L144.9,124.3ZM145,123.8L145,123.8ZM141.6,125.4C143.3,124.2 144.6,123.2 145.4,122.2C145,123.5 145,123.6 145,123.7C145,123.9 144.8,124.1 144.7,124.4C144.7,124.6 144.4,125 143.3,127.2C143.3,127.1 143.4,126.9 143.5,126.7C142.8,127.6 141.6,128.5 140.1,129.5C140.3,128.9 140.4,128.4 140.1,128.3L140,128.3C140,128.1 140.1,127.8 140.2,127.6C140.7,127.1 141.1,126.3 141.4,125.4L141.6,125.4Z" style="fill:#0de809;fill-rule:nonzero;"/>
            <path d="M114.8,144.2C115,144.1 115.2,143.9 115.1,143.5C115.1,143.4 115.1,143.2 115,143.1C119.9,141.6 124.7,139.7 129,137.8C129,137.8 129.1,137.8 129.2,137.6C131.2,134.7 131.7,133.7 133,131.3L132.9,131.2C133.2,131.6 133.7,131.5 134.2,131C135.5,129.7 135.6,126.9 134.4,127C134.3,127 134.1,127 134,127.1C133,127.7 132.6,129.3 132.6,130.1C132.6,130.9 132.6,130.7 132.7,130.9C131.2,133.6 130,135.5 128.9,137.2C124.5,139.2 119.5,141.1 114.6,142.7C114.1,142.3 113.3,142 112.6,142.1C111.5,140.9 110.4,139.5 109.4,137.8C109.6,137.7 109.7,137.6 109.8,137.4C113,138.7 115.4,139.6 115.4,139.6L115.7,139.6C119.3,138.4 122.9,137 126.3,135.6C126.3,135.6 126.4,135.5 126.4,135.4C126.6,135 126.9,134.4 127.2,134L127.1,134C127.7,134.3 128.4,134 128.9,133.2C129.8,131.7 129.3,129.8 128,130C127.9,130 127.8,130 127.7,130.1C126.5,130.7 126.3,132.1 126.4,132.9C126.4,133.2 126.6,133.5 126.7,133.7L126,135C122.7,136.4 119.1,137.8 115.5,139C113.9,138.333 112.067,137.567 110,136.7C107.933,135.833 110,136.7 110,136.8C110.1,135.4 108.5,133.9 106.8,134.3C105.4,134.8 105.7,136.1 106.3,136.9C106.9,137.7 107.9,138.1 108.7,138.1C109.8,139.7 111,141.2 112.1,142.3L112.2,142.3C111.6,142.6 111.5,143.1 111.9,143.6C108.1,144.7 104.8,145.4 102.1,145.8C101,145.3 99.8,144.7 98.7,144L98.3,144C99.4,144.7 100.5,145.3 101.7,145.8C99.1,146.1 97.2,146.1 96.1,145.8L97.3,146.2C98.3,146.5 100.2,146.5 102.6,146.2C102.8,146.2 103.1,146.4 103.3,146.5L103.4,146.5C103.1,146.5 103.3,146.7 103.4,146.8C103.6,146.9 103.9,147.1 104.3,147.2C98.433,153.333 98.433,153.333 104.3,147.2C102.6,147.4 101.3,147.4 100.4,147.2L101.7,147.5C102.5,147.6 103.7,147.6 105.3,147.5L105.1,147.5C106,147.7 107,147.8 107.5,147.8C109.5,148.1 111.5,148.2 113.5,148.1L113.8,148.1C112.7,148.1 111.2,148.2 110,148.1C109.3,148.1 108.4,147.8 107.7,147.8C107,147.8 107.7,147.8 107.7,147.8C107.7,147.7 107.3,147.5 106.8,147.4C107.7,147.3 108.7,147.1 109.8,146.8C112.2,147.7 114.6,147.9 116.9,147.6L117.2,147.6C114.8,147.9 112.3,147.6 109.8,146.6C109.5,146.5 109.4,146.6 109.2,146.6C108,146.9 106.9,147.1 105.8,147.3C104.8,147 103.8,146.9 103.4,146.9L103.6,146.9C103.4,146.9 103.2,146.7 102.9,146.6C105.5,146.2 108.7,145.5 112.3,144.4C113,144.8 114,145 114.6,144.7C114.5,144.7 114.3,144.8 114.2,144.8C116.3,146.5 118.3,147.3 120.1,146.8L120.3,146.8L120.2,146.8C118.6,147.3 116.7,146.5 114.7,144.8L114.8,144.2ZM132.7,131.1L132.7,131.1Z" style="fill:#0de809;fill-rule:nonzero;"/>
            <path d="M146.1,101.4C145.4,102.3 144.3,103.4 142.8,104.5C143,105 143.1,105.5 143.1,105.7C144.6,104.6 145.7,103.5 146.4,102.6C146.9,101.9 147.2,101.4 147.2,100.9C147.2,100.7 147.2,100.5 147.1,100.2C147.1,100.4 147.2,100.7 147.2,100.8L147.2,100.5L146.9,99.2L146.9,99.6C146.9,100.2 146.7,100.8 146.2,101.5L146.1,101.4ZM147,99.8L147,99.6L147,99.8Z" style="fill:#0de809;fill-rule:nonzero;"/>
            <path d="M80,133.1L79.7,133.1C80,133.5 80.3,133.9 80.6,134.3L80.7,134.3C80.4,134.3 80.7,135 81.4,135.7C81.6,135.9 81.8,136.2 82,136.4C83.1,137.6 84.4,138.5 84.4,138.2C84.4,137.8 81.9,134.8 80.9,134.3C80.6,133.9 80.3,133.5 80,133.1Z" style="fill:#0de809;fill-rule:nonzero;"/>
        </g>
    </g>
</svg>
